<svg width="1297" height="159" xmlns="http://www.w3.org/2000/svg" xml:space="preserve" enable-background="new 0 0 1563 1563" version="1.1">

 <g>
  <title>Layer 1</title>
  <g id="svg_26">
   <path id="svg_2" d="m269.78256,140.0332c-24.96536,0 -49.45749,-0.34888 -73.92847,0.21631c-7.17749,0.16577 -10.69305,-2.99017 -14.0141,-8.31335c-11.01978,-17.66321 -12.89014,-36.21625 -6.02032,-55.76843c0.1557,-0.44299 0.01956,-0.98865 0.01956,-1.78009c-1.10861,-0.11896 -2.20541,-0.27783 -3.3078,-0.34277c-0.98416,-0.05798 -1.9744,-0.01227 -4.4964,-0.01227c22.17239,-23.19629 43.52737,-45.53723 65.12369,-68.13074c7.71521,8.11377 15.18985,15.97449 23.46295,24.67493c0,-5.65479 0,-10.29224 0,-15.23303c8.6268,0 16.68243,0 25.28265,0c0,12.49817 0.12338,24.93549 -0.08035,37.36737c-0.05621,3.42816 0.79456,5.91223 3.36969,8.23627c4.29828,3.87958 8.27252,8.11804 13.05118,12.86969c-3.19293,0.14429 -5.55188,0.25079 -7.24591,0.32751c1.30759,7.73297 3.7316,15.40601 3.6489,23.052c-0.14447,13.35364 -3.99432,25.84674 -12.12073,36.9483c-3.315,4.52869 -6.74426,6.88306 -12.74454,5.88831m-55.82632,-12.46161c11.24109,7.27686 23.29184,8.70721 34.99149,2.2923c20.0719,-11.00525 23.06662,-37.05096 11.54068,-53.63989c-0.80096,-1.15283 -2.7851,-2.08337 -4.22894,-2.09753c-15.3017,-0.1499 -30.60773,-0.21808 -45.90561,0.06555c-1.91302,0.0354 -4.51123,1.79047 -5.55411,3.50269c-4.97168,8.16296 -7.04117,16.84961 -5.03421,26.61304c1.9256,9.36755 6.15033,16.93756 14.1907,23.26385z" fill="#BED425"/>
   <path id="svg_3" d="m0.01588,127.69409c-0.01588,-39.91608 -0.01588,-79.36151 -0.01588,-119.23059c1.30803,-0.14441 2.56093,-0.40063 3.81422,-0.40259c12.48431,-0.02014 25.0097,-0.61523 37.43977,0.21118c9.57599,0.63672 19.28642,2.21326 28.47818,4.92651c11.84236,3.49561 18.97513,14.45404 19.12444,26.82214c0.05808,4.81213 0.40243,9.75214 -0.49507,14.42017c-2.81744,14.65393 -11.38188,23.15759 -26.85905,25.32031c-11.61768,1.62347 -23.46998,1.58441 -35.22123,2.22253c-2.61618,0.14221 -5.24667,0.02087 -8.26154,0.02087c0,16.02502 0,31.60718 0,47.90747c-5.77704,0 -11.18449,0.04395 -16.58832,-0.07593c-0.47867,-0.01044 -0.93365,-1.08893 -1.41553,-2.14209m20.62355,-60.66931c10.44025,-0.33246 20.88982,-0.48999 31.31824,-1.04468c11.28651,-0.60034 18.28586,-6.89001 18.97604,-16.54407c1.07558,-15.0451 -3.40305,-22.19476 -16.28427,-24.4198c-6.81009,-1.17627 -13.83849,-1.18909 -20.77869,-1.47894c-5.23607,-0.21869 -10.48862,-0.0434 -16.01738,-0.0434c0,13.41931 -0.00032,26.0401 0.00073,38.66077c0.00008,0.83105 -0.21777,1.75574 0.07455,2.46948c0.36191,0.88385 1.15108,1.59241 2.71077,2.40063z" fill="#898A8B"/>
   <path id="svg_4" d="m321.96457,119.0332c-0.00009,-26.64545 -0.00009,-52.79089 -0.00009,-78.85822c10.1582,-2.87805 11.34204,-1.97125 15.59375,11.77057c2.24384,-2.13733 4.29584,-4.43201 6.67847,-6.3067c16.65491,-13.10468 41.62042,-9.28357 52.9895,8.9776c12.14487,19.5072 11.89111,39.97113 0.82806,59.95532c-11.23981,20.30359 -43.10413,25.74963 -60.03049,3.71075c0,14.06647 0,27.41101 0,41.10181c-5.46997,0 -10.37854,0 -16.05911,0c0,-13.35321 0,-26.60205 -0.00009,-40.35114m16.20493,-24.18268c0.24991,1.1297 0.4505,2.27313 0.75696,3.38739c4.05746,14.75244 12.28177,20.22595 23.45319,20.54144c9.75723,0.27533 19.27179,-3.875 23.69263,-18.76898c2.89349,-9.74829 2.89459,-19.63739 0.0123,-29.40509c-3.72519,-12.62421 -12.314,-18.95038 -24.84579,-18.58484c-10.42053,0.30365 -20.06631,8.49127 -22.1398,20.15131c-1.26416,7.10901 -0.80466,14.52454 -0.92947,22.67877z" fill="#898A8B"/>
   <path id="svg_5" d="m503.05936,68.90625c1.84921,6.94153 3.10013,13.52594 1.84048,20.78784c-23.08002,0 -45.81232,0 -68.49127,0c-1.29626,14.12244 9.63684,27.26758 23.24585,28.33252c8.49615,0.66473 16.58618,-0.20544 23.09509,-6.6825c0.79626,-0.79224 2.44928,-1.40723 3.47989,-1.16107c4.28683,1.02374 8.48734,2.40918 13.3699,3.85431c-6.0354,9.61053 -14.26859,14.89856 -24.50818,17.07166c-13.47379,2.8595 -26.59717,2.04303 -37.98105,-6.55695c-15.69745,-11.85852 -19.64056,-28.56384 -17.63293,-47.07916c1.61069,-14.85486 8.5069,-26.9657 21.95776,-34.06445c23.74774,-12.53333 53.0036,-3.56213 61.62445,25.4978m-28.51407,-14.30139c-13.99323,-7.0415 -37.47943,-0.50061 -38.22217,22.12445c17.22528,0 34.4473,0 51.66238,0c0.1423,-9.41425 -3.89893,-16.21332 -13.44022,-22.12445z" fill="#898A8B"/>
   <path id="svg_6" d="m746.62219,114.96545c7.15155,-8.13342 14.1521,-2.93719 21.73657,-0.76196c-6.34271,9.51764 -14.68042,15.11749 -25.21454,17.0968c-16.39758,3.08105 -31.48773,0.72125 -43.44983,-12.17566c-6.53247,-7.04279 -10.12909,-15.64227 -11.31531,-25.01733c-1.61224,-12.74158 -0.69678,-25.28992 6.60504,-36.4317c10.52863,-16.06555 26.77899,-21.46271 42.28754,-19.35767c18.91541,2.56763 31.92615,15.51825 35.47229,33.91681c1.05347,5.46539 1.06122,11.13232 1.60419,17.34967c-23.55133,0 -46.27625,0 -69.37531,0c-0.21631,10.00879 2.95953,18.00433 10.69641,23.37286c9.57178,6.64148 20.0014,7.14868 30.95294,2.00818m-10.77039,-62.86536c-2.1593,-0.0249 -4.32245,-0.1452 -6.47729,-0.0592c-13.93817,0.55682 -23.70203,10.46228 -24.22522,24.69965c17.20795,0 34.40839,0 51.59204,0c0.63538,-11.50934 -7.10999,-20.83368 -20.88953,-24.64044z" fill="#898A8B"/>
   <path id="svg_7" d="m1227.38416,87.43201c11.52344,-7.2478 24.29651,-9.2157 37.00757,-11.34888c4.70422,-0.78955 9.44189,-1.37897 14.08093,-2.04761c0.0387,-13.82251 -4.33728,-20.1947 -15.20483,-22.68634c-10.5697,-2.4234 -19.30432,2.24744 -24.91602,13.60004c-4.74768,-1.39343 -9.56604,-2.80774 -14.76953,-4.33508c2.19104,-8.01233 7.18445,-13.49988 13.78503,-17.18396c12.85706,-7.1759 26.50977,-7.14575 39.979,-2.0741c10.71069,4.03284 15.69238,13.04675 16.41089,23.91125c0.8988,13.59143 0.58081,27.25885 1.17505,40.87646c0.33838,7.75623 1.44751,15.47882 2.24133,23.53656c-4.17615,0 -8.72473,0 -13.92944,0c-1.08118,-3.18561 -2.30872,-6.802 -3.59509,-10.5921c-11.97925,15.19385 -31.3363,15.68652 -45.00854,10.72595c-13.66943,-4.95941 -20.47913,-18.75555 -15.51672,-31.66492c1.5155,-3.94275 5.24475,-7.03442 8.26038,-10.71729m8.8147,13.71259c-2.1189,9.17352 1.34497,16.2713 9.46948,17.73102c19.2771,3.46313 37.34961,-5.92578 33.63525,-32.47388c-10.2113,2.03125 -20.53333,3.51904 -30.48511,6.32214c-4.42664,1.24695 -8.1062,5.14563 -12.61963,8.42072z" fill="#F4943E"/>
   <path id="svg_8" d="m1076.7594,57.23682c9.97925,18.8432 10.39209,37.61975 -0.05554,55.75323c-9.50305,16.49377 -27.99841,21.86719 -44.89954,18.65002c-18.55103,-3.53119 -31.4364,-17.96997 -33.9613,-35.81055c-1.86487,-13.1781 -0.84302,-25.65826 5.94641,-37.41559c12.6709,-21.94226 43.37866,-26.73358 63.29419,-11.53094c3.61475,2.75946 6.36121,6.65637 9.67578,10.35382m-62.75671,33.77466c0.28699,1.46277 0.61047,2.91962 0.85486,4.38953c1.8606,11.19287 11.41821,21.22614 21.56519,22.61798c11.35205,1.55719 21.89526,-3.82233 26.89551,-14.63593c5.4895,-11.87146 5.35889,-24.19373 0.0498,-36.08447c-4.30908,-9.651 -12.62012,-15.00378 -22.89111,-14.9552c-10.21655,0.04828 -18.18506,5.48462 -22.90112,14.9671c-3.59473,7.22772 -3.93115,14.96124 -3.57312,23.70099z" fill="#F4943E"/>
   <path id="svg_9" d="m835.90417,130.04126c-16.79565,0 -33.09137,0 -49.72827,0c-0.36566,-7.4281 -0.95551,-13.81116 4.59052,-20.14948c15.00159,-17.14502 29.12518,-35.05835 43.58911,-52.67352c0.60272,-0.73401 1.12415,-1.53479 2.27026,-3.11157c-16.80341,0 -32.81134,0 -49.23395,0c0,-5.05127 0,-9.45447 0,-14.25989c22.71429,0 45.40179,0 68.00958,0c1.45428,8.35095 -0.19788,14.79279 -5.84778,21.2713c-15.31042,17.55548 -29.72217,35.89502 -45.09607,54.66309c17.94116,0 35.10016,0 52.67303,0c0,4.96851 0,9.35956 0,14.26007c-7.15588,0 -13.94116,0 -21.22644,0z" fill="#898A8B"/>
   <path id="svg_10" d="m1186.90393,130.04303c-17.46973,0 -34.43945,0 -51.04932,0c-4.479,-11.67841 2.7085,-18.88885 9.09204,-26.53168c13.42871,-16.07703 26.7002,-32.2851 40.64673,-49.17877c-16.82422,0 -32.82104,0 -49.25122,0c0,-5.07953 0,-9.638 0,-14.61188c22.27795,0 44.66138,0 67.11963,0c1.36694,8.45471 0.24365,15.41827 -5.8894,22.36292c-14.8645,16.83197 -28.69897,34.57367 -42.93701,51.95819c-0.2937,0.35834 -0.44629,0.83234 -0.91199,1.72852c17.34192,0 34.37305,0 51.79504,0c0,4.80731 0,9.2005 0,14.27271c-5.92139,0 -12.01807,0 -18.6145,0z" fill="#F3933E"/>
   <path id="svg_11" d="m922.255,47.32849c12.6748,-9.24463 26.3335,-11.86377 40.90588,-7.16602c9.43372,3.04102 16.49219,9.40479 21.29529,18.89899c-4.35059,1.6167 -8.40552,3.26349 -12.57056,4.55402c-0.84326,0.26117 -2.53809,-0.52185 -3.1051,-1.33557c-6.13513,-8.8042 -18.33362,-11.99445 -27.88196,-8.40771c-9.76465,3.66803 -16.45093,13.16736 -17.08215,24.63342c-0.46692,8.48309 -0.68713,16.92102 3.08728,24.88202c8.19019,17.2749 28.64368,20.26501 41.12903,5.85785c1.82556,-2.10669 3.33679,-2.73499 5.83044,-1.68994c3.46082,1.4505 6.99341,2.73029 11.02954,4.28973c-5.63257,9.84723 -13.88513,16.06085 -24.3501,19.02277c-26.57642,7.52191 -50.75098,-9.63629 -53.76453,-37.22626c-1.57715,-14.4389 0.53027,-27.63763 9.18518,-39.46332c1.75122,-2.39258 3.99976,-4.4212 6.29175,-6.84998z" fill="#F4943E"/>
   <path id="svg_12" d="m623.88367,126.82361c-0.66187,1.37927 -1.31366,3.06195 -1.97998,3.06757c-6.47736,0.05579 -13.04773,0.45325 -19.41339,-0.47223c-7.93567,-1.15344 -11.41016,-5.84161 -11.52802,-14.35205c-0.25574,-18.47113 -0.2796,-36.9458 -0.38672,-55.41901c-0.04175,-7.18719 -0.02747,-7.17523 -7.39752,-7.06049c-2.60455,0.04059 -5.21033,0.00647 -8.02252,0.00647c0,-4.5033 0,-8.30127 0,-12.55188c4.78534,0 9.53583,0 14.90503,0c0,-4.01257 0,-7.59827 0,-11.18365c0,-3.65802 0,-7.31586 0,-11.40167c5.41571,0 10.7851,0 16.49341,0c0,7.19653 0,14.44928 0,22.25989c5.86743,0 11.42548,0 17.10986,0c0,4.50018 0,8.43738 0,12.82281c-4.67041,0 -9.11249,0.10193 -13.54688,-0.0379c-2.70667,-0.08508 -3.9223,0.79114 -3.88654,3.672c0.21869,17.6438 0.21564,35.29077 0.54083,52.93201c0.11157,6.052 1.42694,6.9317 7.7121,6.96698c2.95526,0.0166 5.91064,0.00275 9.40363,0.00275c0,3.70941 0,6.99158 -0.0033,10.74841z" fill="#898A8B"/>
   <path id="svg_13" d="m534.65356,130.04053c-4.11139,0.00061 -7.7561,0.00061 -11.92761,0.00061c0,-1.95752 0.01147,-3.57886 -0.00177,-5.20007c-0.22015,-26.95062 -0.39136,-53.90192 -0.73248,-80.8512c-0.04236,-3.35181 0.70752,-4.78162 4.34589,-4.7981c7.76141,-0.03491 7.73944,-0.2038 9.89355,7.28345c0.8028,2.79065 1.72992,5.54565 2.78595,8.90796c8.13739,-11.39691 18.32056,-17.61127 32.15027,-17.23492c0,5.66766 0,10.91876 0,16.42682c-3.51483,0.29773 -6.6781,0.22705 -9.6853,0.87769c-14.63025,3.16528 -22.14514,12.24469 -22.57281,27.87323c-0.38672,14.13214 -0.24017,28.27991 -0.2583,42.4209c-0.00323,2.53204 0.03857,4.82184 -3.99738,4.29364z" fill="#898A8B"/>
   <path id="svg_14" d="m108.45287,129.48199c-0.39723,-29.14233 -0.44958,-57.93915 -0.5893,-86.7356c-0.01274,-2.62421 0.99287,-3.38367 3.50189,-3.52399c8.26075,-0.46161 8.26237,-0.55511 10.51737,7.31464c0.76962,2.6861 1.49626,5.38422 2.46202,8.86884c7.97522,-11.39478 18.32916,-17.56244 32.32843,-17.27539c0,5.64191 0,10.89569 0,16.37061c-3.57861,0.41687 -6.98886,0.70313 -10.36246,1.22626c-14.97763,2.32251 -20.44046,12.97729 -21.28326,23.88928c-1.09879,14.22583 -0.83762,28.55701 -1.14401,42.84308c-0.04932,2.30255 -0.0069,4.60693 -0.0069,7.36786c-5.26218,0 -10.1824,0 -15.42378,-0.34558z" fill="#898A8B"/>
   <path id="svg_15" d="m666.87756,125.83643c-0.83429,1.71631 -1.50653,3.83313 -2.53314,4.02179c-2.73956,0.50342 -5.63177,0.20111 -8.46277,0.17279c-1.46088,-0.01447 -2.92078,-0.12781 -4.8797,-0.22009c0,-25.6394 0,-51.03461 0,-77.03662c-2.60419,0 -4.7431,-0.25586 -6.79797,0.05096c-4.93964,0.73737 -6.60687,-1.40778 -6.0755,-6.0871c0.22211,-1.95575 0.03693,-3.95795 0.03693,-6.39349c9.46887,0 18.69043,0 28.71265,0c0,28.2251 0,56.61908 -0.00049,85.49176z" fill="#898A8B"/>
   <path id="svg_16" d="m1108.98718,108.04999c5.86584,0.75189 10.39355,3.13849 11.71851,8.76874c1.08057,4.59094 0.6062,9.22339 -3.57397,12.65796c-4.01611,3.29962 -8.46045,3.74628 -12.99707,1.81152c-4.70093,-2.00458 -6.96411,-6.07983 -7.08923,-11.06262c-0.11938,-4.74878 3.40503,-9.47675 7.78577,-11.10052c1.21582,-0.45062 2.49963,-0.71832 4.15601,-1.07507z" fill="#898A8B"/>
   <path id="svg_17" d="m872.19934,128.68329c-6.50214,-7.69672 -2.13208,-16.52844 3.4928,-19.04211c5.67218,-2.53497 10.67371,-1.48566 14.89111,3.57849c3.20044,3.84296 3.28662,10.24457 0.19238,14.27832c-3.60034,4.69324 -9.82422,6.25952 -15.06934,3.69415c-1.16797,-0.57123 -2.16943,-1.48303 -3.50696,-2.50885z" fill="#898A8B"/>
   <path id="svg_18" d="m662.97961,22.58392c-10.63806,1.05853 -17.19806,-4.91962 -15.24237,-13.37628c1.29993,-5.62128 4.91479,-8.91571 10.0719,-9.17883c6.55743,-0.33459 10.51703,2.23322 12.59741,8.16919c1.57397,4.49078 -0.43604,9.89514 -4.87903,13.01245c-0.67456,0.47327 -1.45392,0.79724 -2.54791,1.37347z" fill="#898A8B"/>
  </g>
 </g>
</svg>