<?xml version="1.0" encoding="utf-8"?>
<svg version="1.1" id="Layer_1" x="0px" y="0px" width="100%" viewBox="0 0 1563 1563" enable-background="new 0 0 1563 1563" xmlns="http://www.w3.org/2000/svg">
  <defs/>
  <path fill="#BED425" opacity="1.000000" stroke="none" d="M 1179.059 1544.103 C 896.386 1544.103 619.068 1540.151 341.989 1546.548 C 260.714 1548.428 220.914 1512.693 183.3 1452.422 C 58.534 1252.428 37.349 1042.345 115.137 820.962 C 116.903 815.946 115.363 809.775 115.363 800.807 C 102.806 799.46 90.385 797.659 77.907 796.924 C 66.766 796.267 55.556 796.788 27 796.788 C 278.049 534.144 519.847 281.182 764.374 25.355 C 851.729 117.228 936.367 206.236 1030.04 304.745 C 1030.04 240.726 1030.04 188.211 1030.04 132.265 C 1127.722 132.265 1218.938 132.265 1316.314 132.265 C 1316.314 273.777 1317.707 414.61 1315.397 555.375 C 1314.763 594.189 1324.399 622.315 1353.555 648.629 C 1402.22 692.561 1447.228 740.547 1501.328 794.353 C 1465.175 795.984 1438.464 797.184 1419.284 798.056 C 1434.094 885.615 1461.54 972.495 1460.6 1059.069 C 1458.97 1210.273 1415.377 1351.729 1323.368 1477.434 C 1285.833 1528.704 1246.996 1555.369 1179.059 1544.103 M 546.954 1402.998 C 674.233 1485.394 810.684 1501.586 943.149 1428.961 C 1170.42 1304.343 1204.332 1009.441 1073.825 821.607 C 1064.756 808.552 1042.291 798.01 1025.941 797.852 C 852.68 796.154 679.374 795.384 506.158 798.599 C 484.497 798.996 455.081 818.867 443.271 838.252 C 386.985 930.68 363.547 1029.041 386.272 1139.585 C 408.08 1245.657 455.907 1331.37 546.954 1402.998 Z" style=""/>
</svg>