<?xml version="1.0" standalone="no"?>
<svg version="1.1" id="Layer_1" xmlns="http://www.w3.org/2000/svg" xmlns:xlink="http://www.w3.org/1999/xlink" x="0px" y="0px" viewBox="0 0 595.28 595.28" enable-background="new 0 0 595.28 595.28" xml:space="preserve">
<path id="color_x5F_5" fill="#8b572a" d="M286.934,298.744c2.211-1.786,4.705-2.948,4.705-2.948l0,0
	c0.737,0.113,1.474,0.283,2.239,0.595c2.778,1.105,3.827,7.058,2.353,13.096c-0.85-2.268-2.098-4.422-3.77-6.321
	C290.846,301.323,288.975,299.85,286.934,298.744L286.934,298.744z M272.704,424.035L272.704,424.035
	c-1.191-0.595-7.625-2.891-14.343-6.009c-6.746-3.118-16.384-3.345-22.195-3.345c-5.839,0-64.346-19.219-82.715-16.101
	c-18.397,3.118-24.888,26.419-24.888,26.419h145.021C273.583,424.999,274.235,424.801,272.704,424.035L272.704,424.035z
	 M261.677,330.152L261.677,330.152c-7.484-8.504-6.633-21.43,1.871-28.885c3.77-3.316,8.391-4.96,13.039-5.074
	c-6.463-4.479-19.559-6.974-26.844-2.636c-8.702,5.159-9.156,8.759-19.672,9.212c-10.516,0.425-14.4,6.718-14.4,6.718
	s1.134-7.172-2.296-8.759c-3.43-1.559-9.128-0.878-9.836,3.374c0,0-0.028-0.028-0.057-0.057c0,4.677,1.616,10.432,5.386,14.429
	c3.798,4.025,5.698,5.811,5.698,5.811s3.005,17.036,16.724,22.167l0.737,18.17c0,0,4.564,9.071,17.773,10.12
	c0,0,0.255,0.028,0.397,0.028c0.113,0,0.369-0.028,0.369-0.028c13.209-1.049,17.773-10.12,17.773-10.12l0.737-18.17
	c5.329-1.984,9.014-5.754,11.565-9.638C273.809,338.004,266.553,335.736,261.677,330.152L261.677,330.152z M318.285,339.818
	L318.285,339.818c-1.899-2.183-1.899-3.118-7.824-2.183c-5.924,0.936-7.795,2.806-9.666,3.742s-4.365,3.118-5.924,4.054
	c-1.559,0.935-2.806,5.612-2.806,5.612s-1.559,0.936-1.559,4.677s3.742,6.86,3.742,6.86s-1.871-0.624,1.871,3.458
	c3.742,4.053,8.731,5.924,11.537,5.924s10.942-4.677,10.942-4.677l34.016,57.77l44.135-0.369
	C396.748,424.687,320.156,342,318.285,339.818L318.285,339.818z"></path>
<path id="color_x5F_4" fill="#c1d34c" d="M278.018,296.225c0.198,0.009,0.395,0.015,0.592,0.03
	C278.414,296.238,278.215,296.236,278.018,296.225z M309.164,371.692c0.107-0.03,0.215-0.062,0.326-0.097
	C309.379,371.63,309.271,371.662,309.164,371.692z M310.421,371.277c-0.097,0.036-0.189,0.067-0.284,0.101
	C310.233,371.344,310.324,371.313,310.421,371.277z M315.872,368.767c1.549,0.594,3.1,1.215,4.681,1.863l31.819,54.057h0.025
	l-33.799-57.402C318.598,367.285,317.452,367.944,315.872,368.767z M539.926,437.216H30.228c0,0,0-18.652,3.6-37.332
	c3.6-18.653,28.176-64.517,97.143-91.078c24.791-9.564,31.12-21.397,36.381-37.272c2.06,10.388,8.288,20.002,17.904,24.035
	c14.676,6.183,17.806,8.198,18.227,8.492c0.004,4.674,1.62,10.42,5.385,14.413c3.798,4.025,5.698,5.811,5.698,5.811
	s3.005,17.036,16.724,22.167l0.711,17.536l-0.142-3.251c-0.369,0-0.595-0.028-0.652-0.028c0,0-67.918-2.183-97.427,52.781
	c0.027-0.044,0.058-0.09,0.085-0.134c-3.227,5.228-4.83,10.089-5.21,11.331H81.394v4.366H211.22v-4.054h3.912v4.054h49.351v-4.054
	h7.286v4.054h241.54v-4.366h-72.566l9.666-37.502h-35.972l8.702,37.502h-26.514l0.124-0.001
	c-0.001,0.001-76.593-82.686-78.464-84.868c-1.899-2.183-1.899-3.118-7.824-2.183c-3.672,0.58-5.785,1.519-7.308,2.372
	c0.094-0.054,0.179-0.105,0.278-0.16l-2.466-2.806l-1.219,1.105l-4.11-4.677c8.179-9.003,8.705-22.751,1.011-32.39
	c-0.426-2.376-1.382-4.137-2.769-4.688c-0.765-0.312-1.501-0.482-2.238-0.595c3.457-3.347,4.506-18.709,2.238-24.434
	c-8.163-20.608-28.346-20.183-38.891-20.41c-10.516-0.227-11.196-10.545-32.683-18.397c-15.161-5.541-32.263-1.689-43.273,6.493
	c2.506-5.323,5.583-10.963,9.512-16.953c23.471-35.83,73.672-63.95,125.915-51.591c115.937,27.44,94.734,176.712,172.687,195.364
	C565.098,384.52,539.926,437.216,539.926,437.216z M442.953,353.056c-8.079,2.523-8.589,3.033-4.706-5.556
	c3.855-8.561,3.685-19.843-6.066-22.848c-9.751-3.033-11.764,10.573-8.391,19.645c3.345,9.099,1.843,12.274-4.054,8.929
	c-5.868-3.373-10.913,2.523-6.718,7.229s14.116,8.731,11.594,11.764c-2.523,3.033-6.038-2.013-10.233-1.19
	c-4.224,0.851-2.211,7.568,5.017,11.112c2.806,1.361,4.309,2.948,5.102,4.422h9.638c2.041-2.551,5.726-1.956,11.509-4.422
	c5.868-2.523,4.025-7.398-1.531-7.058c-5.527,0.34-7.228,1.332-7.228-3.713c0-5.046,6.888-4.876,12.954-8.051
	C455.907,360.114,451.031,350.533,442.953,353.056z M277.962,337.1c0.06-0.003,0.12-0.011,0.18-0.014
	c-0.108,0.007-0.217,0.011-0.325,0.016C277.865,337.101,277.914,337.102,277.962,337.1z M291.3,337.269
	c-4.431,3.068-9.594,4.519-14.714,4.424c-2.049,1.95-4.511,3.642-7.51,4.759l-0.737,18.17c0,0-0.873,1.735-2.961,3.776
	c2.089-2.041,2.963-3.778,2.963-3.778l0.17-3.855c1.701-0.028,2.806-0.057,2.948-0.057c0,0,9.213-0.284,22.309,2.069
	c0,0.294,0.32,0.907,1.395,2.174c-2.413-2.864-0.915-2.371-0.915-2.371s-3.742-3.119-3.742-6.86c0-3.741,1.559-4.677,1.559-4.677
	s1.247-4.677,2.806-5.612c1.543-0.926,4-3.069,5.864-4.021c-1.55,0.777-3.502,2.391-5.014,3.455l-1.587-1.814l1.276-1.105
	L291.3,337.269z M308.347,371.887c0.08-0.014,0.167-0.036,0.251-0.054C308.513,371.851,308.426,371.873,308.347,371.887z
	 M301.279,341.115c-0.139,0.079-0.277,0.155-0.415,0.226C301.001,341.27,301.139,341.195,301.279,341.115z M134.553,412.277
	c-0.011,0.016-0.021,0.032-0.031,0.048C134.532,412.309,134.543,412.293,134.553,412.277z"></path>
<path id="color_x5F_3" fill="#417505" d="M276.814,337.153L276.814,337.153c11.31,0,20.495-9.156,20.495-20.495
	c0-11.31-9.184-20.494-20.495-20.494c-11.339,0-20.494,9.184-20.494,20.494C256.32,327.998,265.476,337.153,276.814,337.153
	L276.814,337.153z"></path>
<path id="color_x5F_2" fill="#ea9a52" d="M320.553,370.63l32.003,54.369h-97.937h-6.576h-119.48h145.021
	c0,0,0.652-0.198-0.879-0.964c-1.191-0.595-7.625-2.891-14.343-6.009c-6.746-3.118-16.384-3.345-22.195-3.345
	c-5.839,0-64.346-19.219-82.715-16.101c-9.468,1.616-15.761,8.561-19.672,14.91c29.509-54.964,97.427-52.781,97.427-52.781
	c0.057,0,0.283,0.028,0.652,0.028l0.17,3.883c0,0,4.564,9.071,17.773,10.12c0,0,0.255,0.028,0.397,0.028
	c0.113,0,0.369-0.028,0.369-0.028c13.209-1.049,17.773-10.12,17.773-10.12l0.17-3.855c1.701-0.028,2.806-0.057,2.948-0.057
	c0,0,9.213-0.284,22.309,2.069c0,0.369,0.482,1.219,2.353,3.26c3.742,4.053,8.731,5.924,11.537,5.924
	c1.758,0,5.556-1.814,8.192-3.203C317.406,369.355,318.965,369.979,320.553,370.63L320.553,370.63z M442.953,353.056
	L442.953,353.056c-8.079,2.523-8.589,3.033-4.706-5.556c3.855-8.561,3.685-19.843-6.066-22.848
	c-9.751-3.033-11.764,10.573-8.391,19.645c3.345,9.099,1.843,12.274-4.054,8.929c-5.868-3.373-10.913,2.523-6.718,7.229
	s14.116,8.731,11.594,11.764c-2.523,3.033-6.038-2.013-10.233-1.19c-4.224,0.851-2.211,7.568,5.017,11.112
	c2.806,1.361,4.309,2.948,5.102,4.422h9.638c2.041-2.551,5.726-1.956,11.509-4.422c5.868-2.523,4.025-7.398-1.531-7.058
	c-5.527,0.34-7.228,1.332-7.228-3.713c0-5.046,6.888-4.876,12.954-8.051C455.907,360.114,451.031,350.533,442.953,353.056
	L442.953,353.056z"></path>
<path id="color_x5F_1" fill="#000000" d="M513.309,424.687v4.366h-241.54v-4.366h151.37l-8.702-37.502h35.972l-9.666,37.502H513.309
	z M215.132,429.053L215.132,429.053h49.351v-4.366h-49.351V429.053z M81.394,429.053L81.394,429.053H211.22v-4.366H81.394V429.053z
	 M213.375,300.728L213.375,300.728c-3.43-1.559-9.128-0.878-9.836,3.374c0,0-2.268-1.786-18.283-8.533
	c-16.016-6.718-22.649-28.913-16.243-44.39c6.406-15.478,31.805-26.476,53.291-18.624c21.487,7.852,22.167,18.17,32.683,18.397
	c10.545,0.227,30.728-0.198,38.891,20.41c2.268,5.726,1.219,21.09-2.239,24.435c0,0-0.17,0.085-0.425,0.227
	c1.701,1.134,3.288,2.495,4.677,4.11c8.504,9.666,8.192,24.038-0.255,33.335l4.11,4.677l1.219-1.105l2.466,2.806
	c-1.077,0.595-1.843,1.134-2.636,1.531c-1.559,0.765-3.543,2.41-5.074,3.487l-1.587-1.814l1.276-1.105l-4.11-4.677
	c-10.318,7.144-24.605,5.584-33.08-4.082c-9.128-10.403-8.079-26.249,2.324-35.376c2.721-2.381,5.839-4.054,9.071-5.074
	c-0.085,0.028-0.198,0.057-0.283,0.085c-6.52-1.984-14.485-2.296-19.587,0.737c-8.702,5.159-9.156,8.759-19.672,9.212
	c-10.516,0.425-14.4,6.718-14.4,6.718S216.805,302.315,213.375,300.728L213.375,300.728z M263.548,301.267L263.548,301.267
	c-8.504,7.455-9.354,20.381-1.871,28.885c7.455,8.504,20.381,9.354,28.885,1.899c8.504-7.455,9.354-20.381,1.899-28.885
	C285.006,294.662,272.08,293.812,263.548,301.267L263.548,301.267z"></path>
</svg>