<?xml version="1.0" standalone="no"?>
<svg version="1.1" id="Layer_1" xmlns="http://www.w3.org/2000/svg" xmlns:xlink="http://www.w3.org/1999/xlink" x="0px" y="0px" viewBox="0 0 595.28 595.28" enable-background="new 0 0 595.28 595.28" xml:space="preserve">
<path fill="#417505" d="M228.048,536.56l0.078,0.278H121.542c-1.658-29.151,32.729-21.267,32.729-21.267s-5.172-18.061,10.631-31.23
	c2.1-1.75,4.301-3.078,6.539-4.085c-1.187-3.743-2.425-7.498-3.817-11.111c-1.615,0.319-16.256,2.98-22.765-4.082
	c-6.894-7.48-12.723-5.455-12.723-5.455s10.716-3.797,19.768-0.157c8.068,3.244,14.356,8.379,15.628,9.458
	c-1.083-2.791-2.258-5.494-3.578-8.038c-5.341-10.301-17.102-16.591-25.73-19.993c-1.587-0.026-9.757-0.302-18.018-3.211
	c-9.203-3.241-14.746-13.167-14.746-13.167s3.043,5.368,13.159,4.3c7.623-0.805,15.049,6.462,18.247,10.094
	c1.94,0.71,4.09,1.575,6.321,2.61c4.689,2.177,10.36,5.413,15.107,9.88c-1.211-2.438-4.199-8.991-5.44-16.58
	c-1.574-9.629,4.472-19.256,4.472-19.256s-3.25,5.245,2.543,13.606c5.262,7.595,0.097,20.571-0.894,22.886
	c2.427,2.391,4.578,5.118,6.18,8.208c3.008,5.802,5.274,12.375,7.363,18.931c0.414-2.711,1.404-7.415,3.666-11.895
	c3.453-6.838,12.751-9.475,12.751-9.475s-5.031,1.463-4.635,9.839c0.214,4.52-3.311,8.181-6.604,10.602
	c12.607-2.566,24.518,3.019,24.518,3.019c1.151-6.907,7.775-17.021,18.246-21.41l4.55,45.279
	c-1.481,11.32,0.624,22.053,1.626,26.239c-3.086,0.657-11.367,1.398-11.935,2.641c-0.684,1.496-0.641,2.479-0.641,2.479
	S221.505,536.591,228.048,536.56z M242.267,459.788l-1.071,17.678c3.693-2.364,8.155-4.258,13.534-5.493
	C252.609,467.025,248.833,462.382,242.267,459.788z"></path>
<path id="color_x5F_8" fill="#b8e986" d="M228.678,526.151c-0.427,0.342-0.385,4.061-0.898,4.831
	c-0.087,0.13-0.518,0.261-1.146,0.394c-1.001-4.182-3.11-14.923-1.627-26.249l1.373,13.668h2.135l0.749,7.138
	c0.002,0,0.004-0.001,0.006-0.001C228.992,525.993,228.786,526.065,228.678,526.151z M505.845,454.075
	c-7.623-0.805-15.049,6.462-18.247,10.094c-1.94,0.71-4.09,1.575-6.321,2.61c-4.689,2.177-10.36,5.413-15.107,9.88
	c1.211-2.438,4.199-8.991,5.44-16.58c1.574-9.629-4.472-19.256-4.472-19.256s3.25,5.245-2.543,13.606
	c-5.262,7.595-0.097,20.571,0.894,22.886c-2.427,2.391-4.578,5.118-6.18,8.208c-3.008,5.802-5.274,12.375-7.363,18.931
	c-0.414-2.711-1.404-7.415-3.666-11.895c-3.453-6.838-12.751-9.475-12.751-9.475s5.032,1.463,4.635,9.839
	c-0.265,5.601,5.207,9.888,8.868,12.12c-11.509-1.742-22.625,0.805-22.625,0.805s7.537-26.32-15.491-45.51
	c-17.036-14.197-38.61-9.84-48.691-6.611c-0.072,4.144-0.095,6.798-0.095,6.798l17.346,52.877h-2.296l1.305,3.352
	c0.101-0.121,0.161-0.231,0.157-0.324c-0.03-0.794,0.748-0.719,0.999-0.65c0.251,0.069,4.556,11.329,4.556,11.329l-1.949,0.719
	c0,0-1.094-2.456-1.554-3.092c-0.46-0.636-1.515-0.851-2.239,0.746c-0.725,1.597-0.739,4.099-1.044,4.494
	c-0.305,0.394-16.445,6.592-16.445,6.592s-0.268-0.828-0.081-1.541c0.187-0.713,11.157-7.903,11.068-8.756
	c-0.09-0.853-1.827-5.257-1.877-5.818c-0.05-0.562,0.912-1.146,0.912-1.146s0.159,0.326,0.587,0.494l-3.311-6.397h-1.27
	l-23.288-43.451l-7.788-42.212c-0.976-0.603-1.988-1.163-3.023-1.694l0.412,92.752h-2.18v5.302c0.005-0.011,0.018-0.021,0.022-0.031
	c0.246-0.756,0.951-0.416,1.162-0.265c0.211,0.151,0.352,12.206,0.352,12.206h-2.077c0,0-0.176-2.683-0.387-3.439
	c-0.211-0.756-1.127-1.323-2.359-0.076c-1.232,1.247-2.113,3.59-2.535,3.855c-0.423,0.265-17.71,0.491-17.71,0.491h166.507
	c1.149-20.209-9.59-28.2-21.166-31.028c1.214-3.836,2.478-7.687,3.905-11.39c1.615,0.319,16.256,2.98,22.765-4.082
	c6.894-7.48,12.723-5.455,12.723-5.455s-10.716-3.797-19.768-0.157c-8.069,3.244-14.356,8.379-15.628,9.458
	c1.083-2.791,2.258-5.494,3.578-8.038c5.341-10.301,17.102-16.591,25.73-19.993c1.587-0.026,9.757-0.302,18.018-3.211
	c9.203-3.241,14.746-13.167,14.746-13.167S515.96,455.143,505.845,454.075z M321.467,530.981c0.211-0.831,0.106-5.564,0.253-6.108
	c0.147-0.544,1.252-0.759,1.252-0.759s0.021,0.253,0.228,0.514l-1.008-5.832h-1.623l-13.045-96.749
	c-1.929,0.305-3.9,0.739-5.915,1.325c-31.265,9.091-24.815,47.201-24.815,47.201c-0.257-0.017-0.503-0.024-0.757-0.039v48.262h-3.28
	c-0.139,2.648-0.28,5.402-0.373,7.371c-0.004-0.005-0.009-0.011-0.013-0.015c0.427,0.344,0.385,4.061,0.897,4.83
	c0.513,0.769,12.397,1.539,13.081,3.035c0.684,1.496,0.641,2.479,0.641,2.479s-23.683,0.299-23.683-0.342
	c0-0.641-0.427-11.286-0.299-11.799c0.128-0.513,0.77-0.983,0.77-0.983h1.111c0,0,0.024,0.003,0.05,0.009
	c-0.001,0-0.004-0.002-0.005-0.002l-0.697-4.584h-2.462l-6.007-47.042c-5.845,1.225-10.646,3.203-14.573,5.718l-2.504,41.323h-2.152
	l-0.253,4.577h0.984c0,0,0.641,0.47,0.769,0.983c0.128,0.513-0.299,11.157-0.299,11.799c0,0.282-4.569,0.382-9.693,0.406
	l0.078,0.278h79.469c0,0,0.035-0.869,0.458-1.474C308.474,534.76,321.256,531.813,321.467,530.981z"></path>
<path id="color_x5F_6" fill="#1D5C87" d="M294.375,283.848c-10.944,4.36-33.515,1.454-33.515,1.454s-0.345-1.349-0.896-3.538
	c1.28,1.059,5.513-0.395,6.026-1.592c0.513-1.197,1.924-3.548,2.095-3.548c0.171,0,7.951-1.795,7.951-1.795l-3.441-8.357
	c0,0-4.745,2.501-6.989,2.116c-2.244-0.385-3.035-1.24-4.275-1.539c-1.24-0.299-1.966-1.111-2.394-0.577
	c-0.428,0.534,0.47,2.202,1.111,2.672c0.641,0.47,1.111,1.154,0.983,1.539c-0.086,0.257-1.823,1.634-3.023,3.196
	c-2.451-10.014-5.587-23.392-5.548-26.13c0.003-0.222,0.013-0.438,0.023-0.652c-2.569-1.3-7.201-3.728-10.716-5.579
	c0.353-0.331,0.977-0.872,1.844-1.464c1.411-0.962,16.272-5.835,16.272-5.835v0c0.774-0.475,1.319-0.727,1.319-0.727
	s1.539,4.104,5.643,3.933c4.104-0.171,6.754-3.933,6.754-3.933c5.728-0.086,14.021,2.992,15.047,4.788s9.576,18.98,9.832,21.593
	c0.256,2.612-6.754,12.35-6.925,12.863C291.383,273.246,294.375,283.848,294.375,283.848z M226.381,518.795h12.311l7.428-122.603
	l15.655,122.603h14.261V355.627l-65.905,1.444L226.381,518.795z"></path>
<path id="color_x5F_5" fill="#8b572a" d="M270.209,336.019l6.368,1.05l-2.309,4c0,0-0.18,0.012-0.345,0.052
	c-0.1,0.024-0.194,0.059-0.242,0.107c-0.128,0.128-0.994,0-2.116-0.353c-0.14-0.044-0.271-0.092-0.392-0.141
	c-0.85-0.347-1.243-0.79-1.243-0.79l-0.16,0.001c0,0-0.427-0.011-0.776,0.042c0,0,0,0,0,0L270.209,336.019z M209.049,222.974
	l0.486,2.179h0l1.651,7.397l0.976,6.525c13.834,10.811,24.929-0.027,24.929-0.027c-1.453-1.539-2.137-6.84-2.137-6.84
	s1.539-2.736,3.334-7.524c1.157-3.084,1.426-8.9,1.472-12.648l-0.83,0.572c0,0,0.257-2.052-1.026-5.643
	c-1.282-3.591-5.899-7.567-9.362-7.759c-3.462-0.192-5.643,0-5.643,0l2.629,1.86c0,0-8.657-0.513-11.606,1.154
	c-2.95,1.667-3.719,3.847-3.944,8.272s0.802,8.4,0.802,8.4h-1.603c0,0-0.449-5.707-1.411-6.733
	c-0.962-1.026-2.751-2.302-3.463,1.795C203.592,218.051,209.049,222.974,209.049,222.974z M264.933,523.38
	c0.101,0.024,0.34,0.138,0.34,0.677c0,0.684,0.855,1.624,2.779,1.624s3.89,0.128,4.318,0.47c0.005,0.004,0.009,0.01,0.014,0.015
	c0.092-1.969,0.234-4.723,0.373-7.371h-8.519L264.933,523.38z M256.885,276.239c-0.171,2.266,1.799,4.466,3.08,5.524
	c1.28,1.059,5.513-0.395,6.026-1.592c0.513-1.197,1.924-3.548,2.095-3.548s7.951-1.795,7.951-1.795l-3.441-8.357
	c0,0-4.745,2.501-6.989,2.116c-2.244-0.385-3.035-1.24-4.275-1.539c-1.24-0.299-1.966-1.111-2.394-0.577
	c-0.428,0.534,0.47,2.202,1.111,2.672c0.641,0.47,1.111,1.154,0.983,1.539C260.903,271.066,257.056,273.973,256.885,276.239z
	 M255.859,228.018c2.188,4.813,5.215,5.13,5.215,5.13l0.085,0.363c0.026-0.012,0.044-0.021,0.044-0.021s1.539,4.104,5.643,3.933
	c4.104-0.171,6.754-3.933,6.754-3.933s5.03-3.544,5.771-8.337c0.131-0.846,2.266-2.179,2.907-4.787
	c0.641-2.608-0.214-4.275-0.855-4.275c-0.182,0-0.349,0.054-0.496,0.129c-0.058,1.512-0.095,2.578-0.095,2.578l-1.795,1.144
	c0,0-0.256-4.531-0.769-6.498c-0.513-1.966-4.36-4.617-6.241-2.907c-1.881,1.71-5.451,3.249-5.451,3.249l1.087-5.676
	c-0.05,0.257-0.838,3.917-5.127,4.907c-4.446,1.026-8.208,8.037-7.695,9.832s0.513,1.795,0.513,1.795s-2.052-0.256-1.795-1.795
	l-1.632-3.296l-0.463,2.569c0,0-0.218-0.579-0.547-1.439c-0.328,0.667-0.46,1.636,0.198,2.931
	C252.524,226.394,255.36,226.922,255.859,228.018z M229.265,525.933c0.824-0.18,2.289-0.252,3.731-0.252
	c1.924,0,2.779-0.94,2.779-1.624c0-0.684,0.385-0.684,0.385-0.684h0.127l0.253-4.578h-8.024L229.265,525.933z M371.241,362.733
	c-0.776-2.055,3.586-11.428,3.586-11.428l-3.557-10.96l-5.726,14.457c0,0-8.321,2.622-10.428,2.76s-1.479,1.101-0.613,1.902
	c0.865,0.8,3.418,1.591,4.785,0.982s1.636,1.145,1.636,1.145s-7.888,7.933-7.75,10.326c0.133,2.299,5.134,6.195,7.376,6.663
	c2.242,0.468,7.379-4.23,8.915-6.876C371.001,369.057,372.017,364.788,371.241,362.733z M353.362,235.245
	c0.055-0.048,0.11-0.097,0.165-0.148c0.024-0.022,0.048-0.043,0.072-0.065c0.079-0.073,0.158-0.147,0.236-0.224
	c0.013-0.012,0.025-0.025,0.038-0.037c0.067-0.065,0.133-0.131,0.2-0.199c0.028-0.028,0.055-0.057,0.083-0.086
	c0.052-0.053,0.103-0.107,0.155-0.161c0.031-0.032,0.061-0.065,0.092-0.098c0.049-0.053,0.098-0.106,0.147-0.16
	c0.03-0.033,0.061-0.067,0.091-0.101c0.051-0.057,0.101-0.114,0.151-0.171c0.028-0.032,0.055-0.063,0.083-0.095
	c0.063-0.073,0.125-0.146,0.186-0.22c0.014-0.017,0.028-0.033,0.042-0.05c0.075-0.09,0.148-0.181,0.221-0.273
	c0.023-0.029,0.046-0.059,0.069-0.088c0.05-0.063,0.099-0.127,0.148-0.19c0.028-0.036,0.055-0.072,0.082-0.108
	c0.044-0.058,0.088-0.117,0.131-0.175c0.027-0.037,0.054-0.074,0.081-0.111c0.043-0.059,0.085-0.119,0.127-0.178
	c0.025-0.035,0.05-0.071,0.074-0.106c0.046-0.067,0.092-0.134,0.136-0.201c0.018-0.027,0.037-0.054,0.055-0.081
	c0.061-0.093,0.121-0.186,0.179-0.278c0.013-0.021,0.026-0.042,0.039-0.063c0.044-0.071,0.088-0.142,0.13-0.213
	c0.02-0.033,0.038-0.065,0.057-0.098c0.035-0.059,0.069-0.118,0.101-0.177c0.019-0.034,0.038-0.069,0.057-0.103
	c0.031-0.057,0.061-0.113,0.09-0.168c0.017-0.033,0.035-0.067,0.051-0.099c0.03-0.059,0.058-0.117,0.085-0.174
	c0.013-0.028,0.027-0.056,0.04-0.084c0.249-0.538,0.395-1.019,0.395-1.392c0-0.503-0.017-0.942-0.071-1.317
	c-0.08-0.563-0.24-0.985-0.543-1.272c-0.051-0.048-0.105-0.092-0.164-0.133c-0.117-0.081-0.252-0.147-0.406-0.199
	c-0.231-0.077-0.505-0.122-0.83-0.135c-0.003,0-0.005,0-0.007,0c-0.007,0-0.012,0-0.019,0c-0.086-0.003-0.168-0.005-0.248-0.005
	c-0.074-0.001-0.146,0-0.216,0.001c-0.051,0.001-0.105,0.001-0.154,0.002c-0.025,0.039-0.052,0.079-0.078,0.118
	c0,0-0.001,0.001-0.001,0.001c-2.293,3.513-7.074,7.337-7.406,7.6c-0.012,0.01-0.02,0.016-0.02,0.016s0.006-0.007,0.012-0.015
	c0.002-0.003,0.006-0.008,0.009-0.012c0.007-0.009,0.016-0.022,0.025-0.036c0.005-0.007,0.01-0.016,0.016-0.025
	c0.011-0.017,0.023-0.038,0.036-0.06c0.006-0.011,0.012-0.021,0.018-0.032c0.019-0.036,0.04-0.076,0.061-0.122
	c0.019-0.041,0.037-0.087,0.056-0.137c0.02-0.055,0.04-0.117,0.058-0.183c0.006-0.02,0.011-0.043,0.016-0.064
	c0.012-0.049,0.024-0.101,0.034-0.155c0.005-0.028,0.01-0.056,0.014-0.085c0.009-0.057,0.016-0.117,0.021-0.18
	c0.003-0.029,0.006-0.057,0.008-0.087c0.006-0.094,0.009-0.192,0.006-0.297c0-0.012-0.002-0.025-0.002-0.037
	c-0.005-0.147-0.021-0.307-0.048-0.476c-0.018-0.114-0.042-0.234-0.071-0.357c-0.003-0.011-0.004-0.02-0.007-0.031
	c-0.031-0.13-0.069-0.264-0.116-0.406c-0.042-0.128-0.09-0.261-0.146-0.398c-0.055-0.135-0.135-0.272-0.236-0.409
	c-0.016-0.022-0.035-0.043-0.052-0.065c-0.037-0.047-0.073-0.093-0.114-0.14c-0.024-0.027-0.052-0.054-0.077-0.081
	c-0.039-0.042-0.077-0.083-0.12-0.125c-0.03-0.029-0.063-0.058-0.094-0.088c-0.042-0.039-0.084-0.079-0.129-0.118
	c-0.035-0.03-0.073-0.061-0.109-0.091c-0.046-0.038-0.091-0.077-0.14-0.115c-0.039-0.031-0.081-0.062-0.122-0.093
	c-0.049-0.037-0.098-0.075-0.15-0.112c-0.043-0.031-0.088-0.062-0.132-0.093c-0.053-0.037-0.105-0.074-0.159-0.111
	c-0.046-0.031-0.094-0.062-0.141-0.093c-0.055-0.036-0.111-0.073-0.167-0.109c-0.049-0.031-0.1-0.062-0.15-0.093
	c-0.057-0.036-0.115-0.071-0.174-0.106c-0.052-0.031-0.105-0.062-0.157-0.093c-0.059-0.035-0.118-0.069-0.179-0.104
	c-0.054-0.031-0.109-0.061-0.163-0.092c-0.061-0.034-0.122-0.068-0.184-0.102c-0.055-0.03-0.11-0.06-0.166-0.089
	c-0.063-0.034-0.126-0.067-0.189-0.1c-0.057-0.03-0.113-0.059-0.17-0.088c-0.063-0.032-0.125-0.064-0.188-0.096
	c-0.058-0.029-0.116-0.058-0.174-0.087c-0.063-0.031-0.127-0.063-0.19-0.094c-0.057-0.028-0.115-0.056-0.172-0.083
	c-0.064-0.031-0.127-0.061-0.191-0.091c-0.057-0.027-0.115-0.054-0.172-0.081c-0.063-0.03-0.127-0.059-0.19-0.088
	c-0.057-0.026-0.114-0.052-0.171-0.078c-0.062-0.028-0.124-0.056-0.185-0.083c-0.057-0.025-0.114-0.051-0.17-0.075
	c-0.061-0.027-0.121-0.053-0.181-0.08c-0.055-0.024-0.11-0.048-0.164-0.071c-0.06-0.026-0.119-0.051-0.178-0.076
	c-0.053-0.023-0.106-0.045-0.158-0.067c-0.058-0.024-0.115-0.048-0.172-0.072c-0.051-0.021-0.101-0.042-0.151-0.063
	c-0.056-0.023-0.112-0.046-0.167-0.068c-0.047-0.019-0.095-0.039-0.141-0.057c-0.053-0.021-0.104-0.042-0.155-0.062
	c-0.046-0.018-0.092-0.037-0.136-0.054c-0.05-0.02-0.099-0.039-0.147-0.058c-0.041-0.016-0.082-0.032-0.121-0.047
	c-0.048-0.019-0.093-0.036-0.138-0.054c-0.037-0.014-0.075-0.029-0.11-0.043c-0.044-0.017-0.085-0.032-0.126-0.048
	c-0.031-0.012-0.064-0.024-0.093-0.036c-0.042-0.016-0.081-0.03-0.12-0.045c-0.025-0.01-0.052-0.02-0.076-0.028
	c-0.035-0.013-0.066-0.024-0.098-0.036c-0.023-0.008-0.047-0.017-0.068-0.025c-0.027-0.01-0.05-0.018-0.073-0.027
	c-0.02-0.007-0.043-0.016-0.06-0.022c-0.028-0.01-0.051-0.018-0.073-0.026c-0.007-0.002-0.016-0.006-0.022-0.008
	c-0.015-0.005-0.023-0.008-0.034-0.012c-0.029-0.01-0.048-0.017-0.048-0.017c0.078,0.109,0.156,0.225,0.235,0.344
	c0.02,0.03,0.039,0.059,0.058,0.089c0.156,0.24,0.31,0.493,0.46,0.749c0.019,0.032,0.037,0.063,0.055,0.095
	c0.13,0.225,0.255,0.448,0.372,0.662c0.043,0.08,0.085,0.158,0.126,0.234c0.007,0.014,0.014,0.027,0.022,0.04
	c0.039,0.074,0.077,0.146,0.114,0.216c0.008,0.014,0.015,0.029,0.022,0.043c0.036,0.068,0.07,0.134,0.102,0.196
	c0.007,0.013,0.013,0.026,0.02,0.039c0.032,0.063,0.063,0.123,0.092,0.18c0.003,0.007,0.007,0.013,0.01,0.02
	c0.027,0.053,0.051,0.102,0.074,0.148c0.004,0.009,0.009,0.018,0.013,0.026c0.024,0.048,0.045,0.091,0.065,0.13
	c0.003,0.006,0.005,0.011,0.008,0.016c0.019,0.038,0.035,0.07,0.048,0.098c0.003,0.006,0.005,0.011,0.008,0.016
	c0.012,0.025,0.022,0.045,0.028,0.059c0.001,0.003,0.001,0.003,0.002,0.005c0.006,0.012,0.01,0.02,0.01,0.02l0,0l0,0
	c0,0-0.004-0.005-0.011-0.013c0-0.001-0.001-0.001-0.001-0.002c-0.117-0.144-1.127-1.322-3.929-2.663
	c-0.136-0.065-0.276-0.13-0.42-0.196c-0.137-0.062-0.278-0.125-0.422-0.187c-0.001,0-0.001-0.001-0.002-0.001
	c-0.433-0.188-0.902-0.377-1.409-0.565c-0.003-0.001-0.007-0.003-0.01-0.004c-0.115-0.043-0.231-0.085-0.35-0.128
	c-0.214-0.077-0.436-0.153-0.663-0.229c-0.037-0.012-0.073-0.025-0.11-0.037c-0.236-0.078-0.477-0.156-0.727-0.234
	c-0.159-0.049-0.313-0.1-0.463-0.151c-5.813-1.955-5.556-5.031-5.556-5.034c-0.063,0.203-0.122,0.41-0.178,0.619
	c-0.017,0.065-0.034,0.13-0.05,0.195c-0.038,0.148-0.075,0.297-0.11,0.448c-0.017,0.074-0.034,0.149-0.051,0.223
	c-0.034,0.153-0.066,0.307-0.096,0.462c-0.013,0.066-0.027,0.132-0.039,0.199c-0.083,0.441-0.155,0.889-0.217,1.341
	c-0.01,0.071-0.018,0.142-0.028,0.214c-0.02,0.158-0.04,0.316-0.058,0.475c-0.009,0.079-0.018,0.159-0.026,0.238
	c-0.017,0.159-0.033,0.318-0.047,0.477c-0.006,0.07-0.013,0.14-0.019,0.21c-0.019,0.225-0.037,0.449-0.053,0.673
	c-0.016,0.229-0.029,0.458-0.041,0.684c0,0.005,0,0.009-0.001,0.014c-0.012,0.223-0.021,0.443-0.029,0.663
	c-0.001,0.032-0.002,0.065-0.003,0.097c-0.006,0.185-0.012,0.368-0.016,0.55c-0.001,0.047-0.002,0.094-0.003,0.14
	c-0.003,0.17-0.006,0.337-0.008,0.503c0,0.047-0.001,0.095-0.002,0.143c-0.002,0.206-0.002,0.409-0.001,0.609c0,0,0,0,0,0
	c0.001,0.248,0.004,0.489,0.008,0.725c0.003,0.149,0.006,0.296,0.009,0.44c0,0.002,0,0.004,0,0.007
	c0.004,0.143,0.008,0.283,0.012,0.42c0.009,0.279,0.02,0.547,0.031,0.8c0,0.001,0,0.002,0,0.003c0,0.004,0,0.007,0,0.01
	c0.007,0.146,0.014,0.286,0.021,0.422c0.002,0.04,0.004,0.077,0.007,0.116c0.006,0.099,0.011,0.197,0.017,0.29
	c0.002,0.031,0.004,0.061,0.006,0.091c0.006,0.099,0.013,0.197,0.019,0.289c0.001,0.016,0.002,0.03,0.003,0.045
	c0.007,0.106,0.015,0.208,0.022,0.302c0.009,0.12,0.018,0.231,0.026,0.331c0.012,0.15,0.024,0.275,0.033,0.374
	c0,0.005,0.001,0.01,0.001,0.014c0.004,0.039,0.007,0.072,0.01,0.103c0.001,0.013,0.003,0.028,0.004,0.039
	c0.002,0.022,0.004,0.042,0.006,0.057c0.001,0.008,0.002,0.017,0.002,0.024c0.001,0.011,0.002,0.019,0.003,0.025
	c0.001,0.006,0.002,0.014,0.002,0.014c0.072,0.255,0.146,0.501,0.22,0.743c0.03,0.097,0.06,0.193,0.09,0.287
	c0.041,0.128,0.082,0.253,0.123,0.377c0.095,0.288,0.191,0.569,0.289,0.838c0,0.001,0.001,0.003,0.001,0.004
	c0.059,0.162,0.117,0.32,0.177,0.475c0,0.001,0.001,0.001,0.001,0.002c0.099,0.259,0.198,0.507,0.297,0.747
	c0.001,0.003,0.003,0.007,0.004,0.01c0.099,0.239,0.199,0.469,0.298,0.69c0,0,0,0,0,0.001c0.086,0.191,0.172,0.375,0.257,0.553
	c0,0,0,0.001,0.001,0.001c0.09,0.187,0.18,0.367,0.269,0.54c0,0,0,0,0,0c0.089,0.173,0.177,0.338,0.264,0.496
	c0.101,0.184,0.2,0.357,0.297,0.522c0.331,0.558,0.636,1.006,0.898,1.353c0.016,0.021,0.032,0.043,0.048,0.063
	c0.037,0.048,0.072,0.094,0.107,0.138c0.027,0.034,0.054,0.067,0.08,0.099c0.024,0.03,0.049,0.06,0.072,0.088
	c0.05,0.059,0.098,0.115,0.142,0.164c0.088,0.098,0.167,0.199,0.243,0.301c0.015,0.02,0.029,0.039,0.043,0.059
	c0.126,0.176,0.238,0.357,0.333,0.541c0,0.001,0.001,0.002,0.001,0.003c0,0,0,0,0,0c0,0,0,0,0,0
	c2.265,3.332,2.067,12.303,0.977,16.728c-0.368,1.493-1.138,2.554-2.088,3.275c0.254,1.97,0.519,3.773,0.799,5.365
	c0.189-0.24,0.386-0.478,0.589-0.715c0.002-0.003,0.005-0.005,0.007-0.008c0.2-0.232,0.406-0.462,0.619-0.689
	c0.012-0.013,0.025-0.026,0.037-0.039c0.204-0.217,0.413-0.432,0.63-0.646c0.029-0.029,0.06-0.057,0.09-0.086
	c0.203-0.197,0.409-0.394,0.623-0.588c0.055-0.05,0.112-0.098,0.168-0.148c0.195-0.173,0.391-0.346,0.595-0.517
	c0.09-0.076,0.186-0.15,0.278-0.225c0.177-0.144,0.353-0.288,0.537-0.43c0.146-0.112,0.299-0.222,0.448-0.333
	c0.14-0.104,0.277-0.209,0.421-0.311c0.301-0.214,0.61-0.426,0.928-0.634c9.789-6.412,1.282-12.354,8.678-20.477
	c0.208-0.228,0.408-0.459,0.603-0.691c0.232-0.276,0.457-0.554,0.674-0.829c0.006-0.008,0.012-0.016,0.019-0.023
	c0.017-0.022,0.034-0.043,0.05-0.064c0.061-0.078,0.123-0.156,0.183-0.234c0.089-0.114,0.177-0.228,0.264-0.341
	c0.093-0.12,0.186-0.24,0.277-0.358c0.005-0.006,0.009-0.012,0.014-0.018c0.003-0.004,0.007-0.009,0.01-0.013
	c0.252-0.326,0.499-0.643,0.744-0.945c0.244-0.3,0.485-0.584,0.728-0.847c0.004-0.005,0.008-0.009,0.013-0.014
	c0.108-0.116,0.216-0.227,0.324-0.334c0.016-0.016,0.032-0.033,0.048-0.048c0.036-0.035,0.072-0.068,0.108-0.102
	c0.026-0.025,0.053-0.051,0.079-0.075c0.044-0.04,0.088-0.078,0.132-0.116c0.019-0.017,0.038-0.034,0.057-0.05
	c0.046-0.039,0.092-0.076,0.138-0.112c0.018-0.014,0.035-0.03,0.053-0.044c0.044-0.034,0.088-0.066,0.132-0.098
	c0.021-0.015,0.041-0.032,0.062-0.046c0.046-0.033,0.093-0.064,0.14-0.095c0.019-0.012,0.037-0.026,0.056-0.038
	c0.046-0.029,0.092-0.056,0.139-0.084c0.02-0.012,0.04-0.025,0.06-0.036c0.037-0.021,0.075-0.039,0.112-0.059
	c0.03-0.016,0.06-0.033,0.09-0.047c0.032-0.016,0.064-0.029,0.097-0.043c0.036-0.016,0.073-0.034,0.109-0.049
	c0.034-0.014,0.068-0.025,0.103-0.038c0.036-0.013,0.071-0.028,0.107-0.04c0.035-0.012,0.071-0.021,0.106-0.031
	c0.036-0.011,0.072-0.022,0.108-0.032c0.031-0.008,0.063-0.013,0.095-0.02c0.041-0.009,0.082-0.019,0.124-0.027
	c0.029-0.005,0.058-0.008,0.087-0.012c0.045-0.007,0.09-0.014,0.136-0.019c0,0,0.001,0,0.001,0c0.055-0.005,0.113-0.016,0.172-0.029
	c0.019-0.005,0.039-0.011,0.059-0.016c0.041-0.011,0.082-0.023,0.125-0.038c0.023-0.008,0.047-0.017,0.071-0.026
	c0.041-0.016,0.082-0.032,0.124-0.051c0.025-0.011,0.05-0.022,0.075-0.034c0.044-0.021,0.088-0.043,0.133-0.067
	c0.024-0.013,0.048-0.025,0.072-0.038c0.055-0.03,0.11-0.063,0.166-0.097c0.015-0.009,0.03-0.018,0.046-0.027
	c0.072-0.045,0.144-0.093,0.218-0.144c0.02-0.014,0.041-0.029,0.061-0.044c0.054-0.038,0.109-0.078,0.164-0.119
	c0.027-0.021,0.055-0.042,0.083-0.063c0.049-0.038,0.099-0.077,0.148-0.117c0.03-0.024,0.059-0.048,0.089-0.073
	c0.049-0.041,0.099-0.083,0.149-0.125C353.303,235.295,353.333,235.271,353.362,235.245z M377.18,513.401h-8.917l3.314,6.403
	c0.301,0.116,0.734,0.153,1.347-0.057c1.324-0.453,4.788-2.073,5.562-2.993L377.18,513.401z M283.517,305.65
	c-2.052-0.257-4.275-3.933-3.676-4.617c0.598-0.684,2.223-4.104,1.624-5.215c-0.598-1.112-1.881-1.112-3.334,0.769
	c-1.453,1.881-4.446,3.591-6.669,5.643s-3.035,6.369-3.035,6.369c-27.06,2.693-45.784-8.336-45.784-8.336l-18.211,6.925
	l-3.692,1.147c0,0,9.164,16.551,9.848,16.978c0.684,0.427,57.625-7.78,57.625-7.78s8.293,4.531,10.003,5.472
	c1.71,0.94,7.78,1.71,8.892,0c1.111-1.71,5.301-12.483,4.959-13.983C291.725,307.523,285.569,305.906,283.517,305.65z M323.2,524.63
	c0.215,0.271,0.63,0.551,1.436,0.57c1.554,0.037,6.087-0.362,6.492-1.091v-5.313h-8.935L323.2,524.63z M326.043,233.881
	c-0.003-0.013-0.045-0.187-0.115-0.478C325.964,233.572,326.001,233.734,326.043,233.881z"></path>
<path id="color_x5F_4" fill="#c1d34c" d="M377.403,313.041l-6.478,26.254l0.393,1.195l-0.001,0l-0.047-0.146l-0.107,0.27l0,0v0
	l-4.504,11.37l0.652-1.647l-1.391-7.907c-1.604-9.917-5.045-31.673,2.807-39.647L377.403,313.041z M292.086,374.9l7.284-36.419
	c0,0-7.284-30.957-7.284-31.814c0-0.085,0.077-0.594,0.218-1.443c-0.337,0.936-0.692,1.905-1.062,2.898
	c-0.014-0.009-0.035-0.018-0.05-0.028c0.477,0.306,0.803,0.619,0.874,0.928c0.342,1.5-3.847,12.273-4.959,13.983
	c-0.333,0.512-1.115,0.798-2.087,0.928c0.017-0.002,0.035-0.002,0.052-0.005c-3.063,7.585-5.609,13.615-5.609,13.615l-2.872-0.473
	l-1.427,2.444c0.618,9.329,0.872,16.112,0.872,16.112v114.906c0.255,0.015,0.5,0.022,0.757,0.039c0,0-6.45-38.111,24.815-47.201
	c2.015-0.586,3.987-1.02,5.915-1.325l-6.357-47.146H292.086z M241.195,477.472c1.962-1.256,1.961-1.261,0-0.006l1.071-17.678
	c6.567,2.594,10.342,7.237,12.463,12.185c-0.358,0.082,0.326-0.07,1.038-0.219l-9.648-75.561L241.195,477.472z M524.068,337.2
	c-77.015-31.055-116.144-75.773-90.058-127.323c29.797-58.884-38.508-124.218-92.542-139.745
	c-107.401-30.863-197.507,3.105-201.233,58.382c-5.871,87.082,43.476,121.734-21.117,154.651
	c-79.1,40.311-103.101,81.984-93.785,153.409c9.747,74.726,96.208,100.264,96.208,100.264
	c-1.658-29.151,32.729-21.267,32.729-21.267s-5.172-18.061,10.631-31.23c2.1-1.75,4.301-3.078,6.539-4.085
	c-1.187-3.743-2.425-7.498-3.817-11.111c-1.615,0.319-16.256,2.98-22.765-4.082c-6.894-7.48-12.723-5.455-12.723-5.455
	s10.716-3.797,19.768-0.157c8.068,3.244,14.356,8.379,15.628,9.458c-1.083-2.791-2.258-5.494-3.578-8.038
	c-5.341-10.301-17.102-16.591-25.73-19.993c-1.587-0.026-9.757-0.302-18.018-3.211c-9.203-3.241-14.746-13.167-14.746-13.167
	s3.043,5.368,13.159,4.3c7.623-0.805,15.049,6.462,18.247,10.094c1.94,0.71,4.09,1.575,6.321,2.61
	c4.689,2.177,10.36,5.413,15.107,9.88c-1.211-2.438-4.199-8.991-5.44-16.58c-1.574-9.629,4.472-19.256,4.472-19.256
	s-3.25,5.245,2.543,13.606c5.262,7.595,0.097,20.571-0.894,22.886c2.427,2.391,4.578,5.118,6.18,8.208
	c3.008,5.802,5.274,12.375,7.363,18.931c0.414-2.711,1.404-7.415,3.666-11.895c3.453-6.838,12.751-9.475,12.751-9.475
	s-5.031,1.463-4.635,9.839c0.214,4.52-3.311,8.181-6.604,10.602c12.607-2.566,24.518,3.019,24.518,3.019
	c1.151-6.907,7.775-17.021,18.246-21.41l-10.328-102.787l-0.433,0.009c0.513-18.466-8.956-48.74-8.958-48.744
	c0,0,0.072,0.13,0.196,0.353c-0.124-0.223-0.196-0.353-0.196-0.353l-2.293,0.734c0,0-6.754-15.133-9.405-21.374
	c-2.65-6.241-4.018-25.735-1.453-29.069c2.565-3.334,24.538-19.579,24.538-19.579c0.012,0.009,0.024,0.017,0.036,0.026l-0.976-6.524
	l-1.651-7.397c0,0-3.244-1.837-4.526-2.35c-1.282-0.513-2.885-3.014-3.655-5.258c-0.769-2.244-2.501-6.989-1.09-10.26
	c1.411-3.27-0.705-7.246-1.603-9.554c-0.898-2.308,0.064-8.785,3.847-10.965c3.783-2.18,6.669-1.09,9.49-3.142
	c2.821-2.052,6.22-1.667,9.362-1.154c3.142,0.513,6.861,1.86,9.939,0.834c3.078-1.026,8.657,2.693,8.469,7.246
	c-0.188,4.553,0.572,4.681,2.111,7.759c1.539,3.078-2.111,13.722-2.111,13.722l-0.838,0.577l0.83-0.572
	c-0.045,3.748-0.315,9.564-1.472,12.648c-1.796,4.788-3.334,7.524-3.334,7.524s0.684,5.301,2.137,6.84c0,0,2.018,1.069,4.675,2.468
	c0.353-0.331,0.977-0.872,1.844-1.464c1.411-0.962,16.272-5.835,16.272-5.835v0c0.774-0.475,1.319-0.726,1.319-0.726l0,0
	c0,0-0.018,0.009-0.044,0.021l-0.085-0.363c0,0-3.028-0.317-5.215-5.13c-0.499-1.097-3.334-1.624-4.745-4.403
	c-0.657-1.295-0.526-2.264-0.198-2.931c-0.734-1.915-2.023-5.224-2.702-6.641c-0.983-2.052-2.009-8.721,1.154-11.457
	c3.163-2.736,4.873-6.241,13.68-6.498c8.806-0.257,13.338-1.111,16.501-2.479c3.163-1.368,2.919,2.821,2.956,5.215
	c0.037,2.394-0.818,5.557-1.075,7.78c-0.173,1.497-0.384,6.503-0.504,9.615c0.148-0.076,0.315-0.129,0.496-0.129
	c0.641,0,1.496,1.667,0.855,4.275c-0.641,2.608-2.776,3.941-2.907,4.787c-0.741,4.793-5.771,8.337-5.771,8.337l0,0
	c5.728-0.086,14.022,2.992,15.047,4.788c1.026,1.795,9.576,18.98,9.832,21.593c0.257,2.612-6.754,12.35-6.925,12.863
	c-0.171,0.513,2.821,11.115,2.821,11.115s0.487,2.275,0.819,5.334c2.433-12.934,5.577-28.448,6.64-29.324
	c0.928-0.765,7.871-3.005,14.455-5.017c0.006,0.016,0.014,0.028,0.02,0.044c-1.078-2.587-1.956-5.927-2.024-10.028
	c-0.185-11.111,5.493-13.707,6.296-24.814c1.698-23.494,29.258-18.969,34.813-14.022c5.555,4.948,17.036,20.688,15.184,30.317
	c-1.852,9.629-0.131,12.62,3.703,20.925c2.436,5.276,3.889,10.068,4.543,14.405c-0.001-0.006-0.001-0.011-0.002-0.017
	c10.99,14.819,19.682,39.967,19.682,39.967L375.468,353.1l-0.627-1.905l-0.014,0.109c0,0-4.361,9.374-3.586,11.428
	c0.669,1.773,0.002,5.19-1.18,7.795c0.041-0.092,0.083-0.182,0.124-0.276c0.003-0.007,0.006-0.014,0.01-0.022
	c0.074-0.172,0.145-0.347,0.214-0.524c0-0.001,0.001-0.002,0.001-0.002c0.4,3.172,0.622,5.197,0.622,5.197h-1.071
	c-0.186,3.74,1.472,19.732-4.417,30.528c-2.297,4.211-3.08,34.513-3.319,48.297c10.081-3.229,31.655-7.585,48.691,6.611
	c23.029,19.191,15.491,45.51,15.491,45.51s11.116-2.547,22.625-0.805c-3.661-2.232-9.133-6.519-8.868-12.12
	c0.396-8.377-4.635-9.839-4.635-9.839s9.298,2.638,12.751,9.475c2.262,4.479,3.252,9.184,3.666,11.895
	c2.089-6.555,4.355-13.129,7.363-18.931c1.603-3.09,3.754-5.817,6.18-8.208c-0.991-2.315-6.156-15.291-0.894-22.886
	c5.792-8.361,2.543-13.606,2.543-13.606s6.047,9.627,4.472,19.256c-1.241,7.589-4.229,14.142-5.44,16.58
	c4.747-4.467,10.418-7.703,15.107-9.88c2.231-1.035,4.381-1.9,6.321-2.61c3.198-3.632,10.624-10.9,18.247-10.094
	c10.115,1.068,13.159-4.3,13.159-4.3s-5.544,9.925-14.746,13.167c-8.261,2.909-16.431,3.185-18.018,3.211
	c-8.628,3.402-20.389,9.693-25.73,19.993c-1.319,2.543-2.495,5.247-3.578,8.038c1.272-1.079,7.56-6.214,15.628-9.458
	c9.053-3.64,19.768,0.157,19.768,0.157s-5.828-2.025-12.723,5.455c-6.509,7.062-21.15,4.401-22.765,4.082
	c-1.427,3.703-2.691,7.555-3.905,11.39c11.576,2.828,22.315,10.819,21.166,31.028C589.343,522.821,601.083,368.255,524.068,337.2z
	 M332.895,426.044c1.035,0.531,2.047,1.092,3.023,1.694l-3.09-16.748L332.895,426.044z"></path>
<path id="color_x5F_3" fill="#417505" d="M285.072,323.929c-3.063,7.585-5.609,13.615-5.609,13.615l-11.67-1.924l1.633-17.424
	c2.366,1.293,7.487,4.092,8.79,4.809C279.423,323.669,282.798,324.246,285.072,323.929z M271.564,340.875
	c-1.122-0.353-1.635-0.931-1.635-0.931l-0.16,0.001c0,0-1.186-0.032-1.218,0.256c-0.032,0.289-0.417,1.186-0.449,1.507
	c-0.032,0.321-3.751-0.642-4.97-0.882c-1.218-0.24-3.046,1.523-3.142,2.004s-0.16,1.058,0.16,1.315s11.97,3.687,12.493,3.399
	c0.524-0.289,1.624-6.475,1.624-6.475s-0.46,0.031-0.588,0.159C273.551,341.356,272.686,341.228,271.564,340.875z M378.823,271.65
	c4.578,30.255-29.765,38.376-41.576,33.758c-5.139-2.01-18.576-23.271-6.536-37.584c-0.296-1.487-0.573-3.225-0.836-5.163
	c-1.882,1.719-4.695,1.872-6.378,1.28c-2.373-0.834-2.916-2.42-2.916-2.42s-2.448-2.229-4.292-6.681
	c-6.583,2.013-13.526,4.253-14.455,5.018c-1.063,0.875-4.207,16.39-6.64,29.324c-0.331-3.059-0.819-5.334-0.819-5.334
	c-6.941,2.766-18.558,2.608-26.129,2.122l1.232,7.965c0.469,2.892,0.932,5.893,1.383,8.938l0,0.003
	c0.187-0.232,0.387-0.449,0.6-0.646c2.223-2.052,5.215-3.762,6.669-5.643c1.453-1.881,2.736-1.881,3.334-0.769
	c0.598,1.111-1.026,4.531-1.624,5.215c-0.599,0.684,1.624,4.36,3.676,4.617c1.642,0.205,5.911,1.282,7.726,2.473
	c0.369-0.993,0.724-1.962,1.062-2.898c-0.141,0.849-0.218,1.359-0.218,1.443c0,0.857,7.284,31.814,7.284,31.814l-7.284,36.419
	h62.878c0,0,0,0,0,0c-0.071-0.074-0.141-0.148-0.21-0.222c-0.027-0.029-0.053-0.058-0.08-0.088c-0.046-0.05-0.091-0.101-0.135-0.152
	c-0.026-0.03-0.053-0.06-0.078-0.09c-0.053-0.061-0.104-0.122-0.154-0.183c-0.014-0.017-0.029-0.034-0.042-0.051
	c-0.061-0.076-0.119-0.151-0.176-0.226c-0.02-0.026-0.039-0.053-0.059-0.079c-0.04-0.053-0.078-0.107-0.115-0.16
	c-0.019-0.027-0.038-0.054-0.056-0.08c-0.046-0.067-0.089-0.134-0.131-0.2c-0.006-0.01-0.013-0.02-0.019-0.029
	c-0.046-0.075-0.09-0.149-0.131-0.223c-0.013-0.024-0.025-0.047-0.038-0.07c-0.029-0.054-0.056-0.108-0.082-0.161
	c-0.011-0.023-0.022-0.046-0.033-0.069c-0.032-0.07-0.062-0.139-0.089-0.207c-0.001-0.004-0.003-0.008-0.005-0.011
	c-0.027-0.071-0.05-0.142-0.071-0.211c-0.006-0.021-0.011-0.041-0.017-0.061c-0.014-0.051-0.026-0.102-0.036-0.152
	c-0.004-0.02-0.008-0.04-0.012-0.06c-0.011-0.067-0.02-0.133-0.024-0.198c-0.009-0.15,0.014-0.321,0.064-0.51
	c0.075-0.284,0.212-0.61,0.398-0.966c0.062-0.119,0.129-0.241,0.202-0.365c1.879-3.247,7.086-8.485,7.086-8.485
	s-0.105-0.685-0.518-1.051c-0.124-0.11-0.275-0.19-0.46-0.215c-0.061-0.008-0.127-0.01-0.196-0.005
	c-0.138,0.01-0.292,0.05-0.463,0.126c-0.031,0.014-0.066,0.023-0.098,0.036c-0.125,0.048-0.257,0.087-0.397,0.114
	c-0.034,0.007-0.067,0.014-0.102,0.02c-1.414,0.229-3.437-0.457-4.188-1.151c-0.053-0.049-0.106-0.099-0.157-0.149
	c-0.001-0.001-0.002-0.001-0.002-0.002c-0.138-0.136-0.264-0.275-0.368-0.412c-0.024-0.031-0.046-0.062-0.068-0.094
	c-0.019-0.027-0.036-0.054-0.052-0.081c-0.022-0.035-0.042-0.07-0.06-0.105c-0.267-0.522-0.063-0.968,1.32-1.059
	c0.143-0.009,0.316-0.031,0.511-0.061c0.165-0.026,0.346-0.058,0.542-0.097c0.107-0.021,0.219-0.044,0.334-0.069
	c0.462-0.099,0.985-0.224,1.542-0.365c0.316-0.08,0.643-0.166,0.975-0.255c0.213-0.057,0.428-0.115,0.645-0.175
	c0.082-0.023,0.164-0.045,0.246-0.068c0.214-0.059,0.428-0.119,0.642-0.18c0.084-0.024,0.168-0.048,0.252-0.071
	c0.515-0.147,1.021-0.294,1.5-0.435c0.169-0.05,0.335-0.099,0.496-0.147c0.131-0.039,0.26-0.077,0.385-0.115
	c0.25-0.075,0.487-0.147,0.708-0.214c0.11-0.033,0.217-0.066,0.318-0.097c0.813-0.248,1.333-0.412,1.333-0.412l1.116-2.817
	l0.652-1.647l-1.391-7.907c-1.604-9.917-5.045-31.673,2.807-39.647l8.675,10.257l-6.478,26.254l4.543,13.805l23.037-41.484
	C398.505,311.617,389.813,286.47,378.823,271.65z M370.408,369.706c-0.069,0.177-0.14,0.352-0.214,0.524
	c-0.003,0.007-0.006,0.014-0.01,0.022c-0.07,0.163-0.142,0.324-0.216,0.481c-0.021,0.044-0.043,0.087-0.064,0.131
	c-0.059,0.121-0.117,0.243-0.178,0.359c-0.082,0.159-0.167,0.313-0.253,0.462c-0.003,0.006-0.006,0.012-0.01,0.018
	c-0.06,0.103-0.127,0.211-0.198,0.32c-0.019,0.029-0.039,0.059-0.058,0.089c-0.059,0.089-0.122,0.18-0.187,0.273
	c-0.017,0.024-0.033,0.048-0.051,0.072c-0.084,0.116-0.172,0.235-0.265,0.355c-0.014,0.018-0.029,0.037-0.044,0.056
	c-0.082,0.105-0.167,0.212-0.255,0.319c-0.022,0.027-0.044,0.054-0.067,0.081c-0.21,0.254-0.436,0.512-0.675,0.771
	c-0.018,0.02-0.037,0.04-0.055,0.059c-0.109,0.118-0.22,0.235-0.333,0.353c-0.015,0.016-0.03,0.031-0.045,0.047
	c-0.131,0.135-0.264,0.27-0.4,0.404h4.199c0,0-0.222-2.024-0.622-5.197C370.409,369.704,370.408,369.705,370.408,369.706z"></path>
<path id="color_x5F_2" fill="#ea9a52" d="M332.311,523.802c0.211,0.151,0.352,12.206,0.352,12.206h-2.077
	c0,0-0.176-2.683-0.387-3.439c-0.211-0.756-1.127-1.323-2.359-0.076c-1.232,1.247-2.113,3.59-2.535,3.854
	c-0.423,0.265-17.71,0.491-17.71,0.491s0.035-0.869,0.458-1.474c0.422-0.605,13.204-3.552,13.415-4.384
	c0.211-0.831,0.106-5.564,0.253-6.108c0.147-0.544,1.252-0.759,1.252-0.759s0.079,1.049,1.664,1.086
	c1.584,0.038,6.267-0.378,6.514-1.134C331.396,523.31,332.1,523.65,332.311,523.802z M379.642,515.779
	c-0.251-0.069-1.029-0.144-0.999,0.65c0.03,0.794-4.219,2.805-5.719,3.318c-1.5,0.513-1.937-0.443-1.937-0.443
	s-0.962,0.584-0.912,1.146c0.05,0.561,1.787,4.965,1.877,5.818c0.09,0.853-10.881,8.043-11.068,8.756
	c-0.187,0.714,0.081,1.541,0.081,1.541s16.14-6.197,16.445-6.592c0.305-0.394,0.32-2.897,1.044-4.494
	c0.724-1.596,1.779-1.382,2.239-0.746c0.46,0.636,1.554,3.092,1.554,3.092l1.949-0.719
	C384.197,527.108,379.892,515.848,379.642,515.779z M222.643,300.263c0,0,18.724,11.029,45.784,8.336c0,0,0.679-3.6,2.491-5.788
	c-0.018,0.022-0.037,0.042-0.055,0.064l0-0.003c-0.45-3.04-0.912-6.036-1.381-8.924c-0.451-2.783-0.909-5.466-1.369-7.987
	c-4.293-0.279-7.252-0.66-7.252-0.66s-0.345-1.349-0.896-3.538c0.191,0.158,0.449,0.259,0.749,0.314
	c-0.3-0.055-0.558-0.156-0.749-0.314c-1.28-1.059-3.251-3.259-3.08-5.524c0.057-0.755,0.523-1.581,1.123-2.362
	c-2.451-10.014-5.587-23.392-5.548-26.13c0.003-0.222,0.013-0.438,0.023-0.652c-0.001,0-0.002-0.001-0.003-0.001
	c-0.159-0.081-0.326-0.165-0.501-0.254c-0.002-0.001-0.004-0.002-0.006-0.003c-0.175-0.089-0.356-0.182-0.544-0.278
	c-0.001,0-0.001-0.001-0.002-0.001c-0.568-0.291-1.193-0.614-1.857-0.957c-0.004-0.002-0.008-0.004-0.012-0.006
	c-1.1-0.57-2.302-1.197-3.512-1.83c-0.023-0.012-0.046-0.024-0.069-0.036c-0.466-0.244-0.933-0.488-1.395-0.731
	c-0.028-0.015-0.057-0.03-0.085-0.045c-0.179-0.094-0.356-0.187-0.533-0.28c-0.093-0.049-0.185-0.097-0.278-0.146
	c-0.17-0.089-0.339-0.178-0.506-0.266c-0.048-0.025-0.096-0.05-0.144-0.076c-0.157-0.082-0.312-0.164-0.466-0.245
	c-0.091-0.048-0.182-0.096-0.272-0.143c-0.143-0.075-0.285-0.15-0.425-0.224c-0.035-0.019-0.072-0.038-0.107-0.056
	c-2.658-1.4-4.675-2.468-4.675-2.468s-11.115,10.858-24.965,0c0,0-21.973,16.244-24.538,19.579
	c-2.565,3.334-1.197,22.828,1.453,29.069c2.65,6.241,9.405,21.374,9.405,21.374l2.293-0.734l3.692-1.147L222.643,300.263z
	 M276.036,355.627c0,0-0.254-6.783-0.872-16.112l-0.897,1.553c0,0-1.101,6.187-1.624,6.475c-0.523,0.289-12.173-3.142-12.493-3.399
	s-0.257-0.834-0.16-1.315s1.924-2.244,3.142-2.004c1.218,0.24,4.937,1.203,4.97,0.882c0.032-0.321,0.417-1.218,0.449-1.507
	c0.013-0.115,0.21-0.179,0.442-0.214l1.217-3.969l4.104,0.676l-6.52-1.075l1.633-17.424c-0.741-0.405-1.213-0.663-1.213-0.663
	s-56.941,8.208-57.625,7.78c-0.684-0.428-9.846-16.974-9.848-16.978c0.001,0.005,9.471,30.278,8.958,48.744L276.036,355.627z
	 M366.993,513.401h12.483l-17.346-52.877c0,0,0.427-49.619,3.414-55.095c5.889-10.796,4.231-26.789,4.417-30.528h-3.129
	c-2.124,2.089-4.819,3.984-6.282,3.678c-1.404-0.293-3.89-1.931-5.585-3.678h-53.797l19.402,143.895h12.739l-0.479-107.805
	l10.877,58.96L366.993,513.401z M273.267,530.982c-0.513-0.769-0.47-4.489-0.898-4.831c-0.428-0.342-2.394-0.47-4.318-0.47
	s-2.779-0.94-2.779-1.624c0-0.684-0.385-0.684-0.385-0.684h-1.111c0,0-0.641,0.47-0.77,0.983
	c-0.128,0.513,0.299,11.157,0.299,11.799s23.683,0.342,23.683,0.342s0.043-0.983-0.641-2.479
	C285.665,532.521,273.78,531.752,273.267,530.982z M237.27,523.373h-1.111c0,0-0.385,0-0.385,0.684c0,0.684-0.855,1.624-2.779,1.624
	c-1.924,0-3.89,0.128-4.318,0.47s-0.385,4.061-0.898,4.831s-12.397,1.539-13.081,3.035c-0.684,1.496-0.641,2.479-0.641,2.479
	s23.683,0.299,23.683-0.342s0.427-11.286,0.299-11.799C237.912,523.843,237.27,523.373,237.27,523.373z"></path>
<path id="color_x5F_1" d="M241.88,198.308c1.539,3.078-2.111,13.722-2.111,13.722l-0.838,0.577c0,0,0.257-2.052-1.026-5.643
	c-1.282-3.591-5.899-7.567-9.362-7.759c-3.462-0.192-5.643,0-5.643,0l2.629,1.86c0,0-8.657-0.513-11.606,1.154
	c-2.95,1.667-3.719,3.847-3.944,8.272s0.802,8.4,0.802,8.4h-1.603c0,0-0.449-5.707-1.411-6.733
	c-0.962-1.026-2.751-2.302-3.463,1.795c-0.712,4.097,4.745,9.02,4.745,9.02l0.486,2.179c0,0-3.244-1.837-4.526-2.35
	s-2.886-3.014-3.655-5.258c-0.769-2.244-2.501-6.989-1.09-10.26c1.411-3.27-0.705-7.246-1.603-9.554s0.064-8.785,3.847-10.965
	c3.783-2.18,6.669-1.09,9.49-3.142c2.821-2.052,6.22-1.667,9.362-1.154s6.861,1.86,9.939,0.834s8.657,2.693,8.469,7.246
	C239.581,195.102,240.341,195.23,241.88,198.308z M279.549,193.61c-3.163,1.368-7.695,2.223-16.501,2.479
	c-8.806,0.257-10.516,3.762-13.68,6.498c-3.163,2.736-2.137,9.405-1.154,11.457c0.983,2.052,3.249,8.079,3.249,8.079l0.463-2.569
	l1.632,3.296c-0.257,1.539,1.795,1.795,1.795,1.795s0,0-0.513-1.795s3.249-8.806,7.695-9.832c4.289-0.99,5.077-4.65,5.127-4.907
	l-1.087,5.676c0,0,3.57-1.539,5.451-3.249s5.728,0.94,6.241,2.907c0.513,1.966,0.769,6.498,0.769,6.498l1.795-1.144
	c0,0,0.342-9.971,0.598-12.194c0.257-2.223,1.111-5.386,1.075-7.78C282.467,196.431,282.712,192.242,279.549,193.61z
	 M337.246,305.408c-5.761-2.253-21.951-28.698-0.989-42.428c9.789-6.412,1.282-12.354,8.678-20.477
	c2.461-2.703,3.969-5.838,6.385-6.073c1.898-0.185,6.134-5.347,6.134-7.361c0-2.014-0.278-2.986-2.014-3.055
	c-0.235-0.009-0.448-0.009-0.644-0.003c-2.342,3.672-7.504,7.734-7.504,7.734s0.88-1.018,0-3.194
	c-0.88-2.176-8.287-4.768-8.287-4.768c0.926,1.296,1.944,3.426,1.944,3.426s-1.759-2.315-8.055-4.259
	c-6.296-1.944-6.018-5.185-6.018-5.185c-1.759,5.648-0.833,14.119-0.833,14.12c1.343,4.768,3.138,7.304,3.935,8.194
	c0.257,0.288,0.46,0.591,0.621,0.904c2.265,3.332,2.067,12.303,0.977,16.728c-1.09,4.424-5.707,5.066-8.079,4.232
	s-2.916-2.42-2.916-2.42s-6.111-5.555-6.296-16.666c-0.185-11.111,5.493-13.707,6.296-24.814
	c1.698-23.494,29.258-18.969,34.813-14.022c5.555,4.948,17.036,20.688,15.184,30.317c-1.852,9.629-0.131,12.62,3.703,20.925
	C393.699,299.318,350.749,310.687,337.246,305.408z M325.916,233.35c0.039,0.19,0.081,0.369,0.128,0.534
	C326.043,233.883,325.995,233.685,325.916,233.35z" fill="#000000"></path>
</svg>