<?xml version="1.0" standalone="no"?>
<svg version="1.1" id="Layer_1" xmlns="http://www.w3.org/2000/svg" xmlns:xlink="http://www.w3.org/1999/xlink" x="0px" y="0px" width="595.279px" height="595.279px" viewBox="0 0.001 595.279 595.279" enable-background="new 0 0.001 595.279 595.279" xml:space="preserve">
<path id="color_x5F_6" fill="#000000" d="M140.572,176.386l-0.002-0.006c-2.494-0.229-4.803-0.871-6.793-1.866l0.002,0.002
	l-0.004,0.009l-1.105-0.021c-2.373,4.268-7.32,7.812-13.535,9.121c-0.639,0.135-1.271,0.234-1.901,0.314l2.143,10.165l-4.635-6.21
	l-0.007-0.008l-1.196-5.831c-0.666-0.503-0.854-0.744-2.379-1.897c-5.961-4.503,8.249-24.914,23.064-18.298
	c6.824,3.048,5.521,8.334,5.521,8.334c0.285,0.391,2.656,0.842,2.895,1.266c6.002,3.109,2.316,10.053,2.316,10.053l-0.004,0.01
	l-1.732,7.552L140.572,176.386z M140.724,186.3c-1.012-0.815-2.295-1.369-3.584-0.857c-1.316,0.524-1.893,1.783-2.09,3.11
	c-0.119,0.787,1.115,0.806,1.23,0.031c0.295-1.964,1.996-2.683,3.561-1.424C140.45,187.651,141.343,186.799,140.724,186.3z
	 M127.339,189.908c-0.83-1.053-1.955-1.86-3.357-1.661c-1.373,0.194-2.212,1.314-2.687,2.524c-0.29,0.74,0.906,1.037,1.193,0.308
	c0.734-1.871,2.566-2.091,3.799-0.531C126.769,191.164,127.831,190.532,127.339,189.908z M288.739,329.009
	c-0.015,0.129-0.026,0.254-0.042,0.379C288.713,329.262,288.724,329.137,288.739,329.009z M288.467,332.85
	c0.003-0.117,0.007-0.236,0.011-0.357C288.473,332.614,288.469,332.733,288.467,332.85z M289.252,325.343
	c0.014-0.082,0.028-0.168,0.041-0.252C289.28,325.175,289.265,325.26,289.252,325.343z M288.552,331.016
	c-0.001,0.008-0.002,0.014-0.002,0.021C288.55,331.03,288.551,331.024,288.552,331.016z M306.671,311.13
	c0.001-0.016,0.003-0.035,0.006-0.055C306.674,311.093,306.672,311.115,306.671,311.13z M158.304,392.553
	c-0.072,0.107-0.125,0.217-0.14,0.329c-1.035,7.939,12.715,40.937,24.93,59.171c-1.804-0.348-3.427-0.602-4.65-0.768
	c-6.164-0.837-63.132,18.473-63.132,18.473h83.797c0,0,1.336-61.621,1.384-75.652l-42.26-1.396
	C158.232,392.71,158.26,392.649,158.304,392.553z M385.653,370.476l8.081-1.449l-2.87-16.009c-2.127,1.447-4.836,2.467-7.889,2.522
	L385.653,370.476z M440.008,353.99c0.145-0.072,0.285-0.168,0.423-0.273c0.036-0.027,0.071-0.057,0.106-0.086
	c0.126-0.105,0.248-0.221,0.367-0.352c0.011-0.012,0.021-0.021,0.032-0.033c0.129-0.146,0.253-0.309,0.372-0.481
	c0.028-0.041,0.056-0.082,0.083-0.124c0.106-0.163,0.21-0.334,0.309-0.517c0.011-0.021,0.022-0.039,0.034-0.061
	c0.109-0.208,0.212-0.429,0.31-0.659c0.017-0.039,0.032-0.078,0.048-0.118c0.09-0.22,0.174-0.446,0.251-0.683
	c0.006-0.017,0.012-0.033,0.018-0.05c0.062-0.191,0.113-0.392,0.167-0.591c-0.581,0.125-1.161,0.257-1.74,0.427
	c-7.434,2.179-11.767,2.371-12.938,5.961c3.921-0.292,7.356-0.793,9.835-1.504C438.589,354.588,439.378,354.303,440.008,353.99z
	 M475.91,452.001c-3.154-1.283-24.104-2.36-28.227-0.333c11.731-24.536,22.068-76.468,19.675-85.955h-38.699l2.278,104.321h72.342
	C503.279,470.034,490.334,457.867,475.91,452.001z M428.094,250.082c-1.416-0.141-2.508,0.707-3.293,1.801
	c-0.466,0.646,0.62,1.232,1.081,0.595c1.158-1.607,3.013-1.467,3.821,0.375c0.313,0.721,1.496,0.375,1.18-0.359
	C430.354,251.302,429.47,250.216,428.094,250.082z M233.104,283.787c1.27-1.521,3.109-1.248,3.784,0.646
	c0.26,0.741,1.468,0.48,1.203-0.274c-0.443-1.226-1.246-2.373-2.61-2.604c-1.4-0.241-2.552,0.525-3.413,1.562
	C231.557,283.728,232.599,284.389,233.104,283.787z M280.787,242.406c0.165-0.855,0.552-1.48,1.06-1.859h-1.904
	c-0.156,0.293-0.293,0.6-0.397,0.922c-0.089,0.274-0.164,0.553-0.22,0.834C279.147,243.23,280.609,243.319,280.787,242.406z
	 M285.109,240.964c0.505,0.44,1.207,0.062,1.301-0.417h-1.889C284.719,240.664,284.916,240.794,285.109,240.964z M279.943,240.546
	h1.904c0.184-0.137,0.38-0.246,0.591-0.316c0.632-0.213,1.364-0.111,2.083,0.316h1.889c0.004-0.02,0.013-0.038,0.015-0.058
	c0.015-0.167-0.05-0.344-0.227-0.499c-1.195-1.05-2.685-1.751-4.278-1.215c-0.376,0.126-0.699,0.308-0.984,0.533
	C280.516,239.64,280.197,240.071,279.943,240.546z M301.057,232.885c-1.358-0.733-2.978-1.103-4.373-0.227
	c-1.422,0.896-1.825,2.491-1.768,4.083c0.03,0.946,1.476,0.703,1.443-0.229c-0.002-0.054,0.012-0.099,0.011-0.152
	c0.001-0.522,0.087-0.993,0.262-1.38c0.226-0.497,0.588-0.853,1.024-1.075c0.695-0.354,1.594-0.349,2.561,0.175
	c0.102,0.055,0.205,0.086,0.306,0.095C301.219,234.232,301.785,233.277,301.057,232.885z M251.598,268.536
	c-0.294,1.517-0.917,2.88-1.768,4.046c-2.181,2.992-5.9,4.646-9.732,3.953l-0.006-0.001l-0.112-0.028
	c-0.643-0.12-7.466-1.224-9.215-1.317c-0.54-0.044-0.806-0.034-0.619,0.064c1.042,4.264,0.566,8.322-1.374,11.17
	c-0.271-1.193-0.782-2.327-1.593-3.223c-1.056-1.179-2.679-1.919-4.276-1.913c-1.032-0.05-2.066,0.19-2.943,0.836
	c-0.752,0.548-1.176,1.299-1.333,2.11l3.853,5.97c0,0-7.292,4.382-5.873,11.891c0.833,4.414,3.048,8.254,4.945,12.064l0.087-0.34
	c0.061,0.12,0.122,0.24,0.182,0.359l-0.089,0.348c1.458,2.965,2.674,5.926,2.875,9.131c0.102,0.164,0.201,0.32,0.304,0.488
	c0.072,2.287-0.389,4.707-1.677,7.348c-0.434,0.893-0.931,1.678-1.472,2.371c-0.087,0.085-0.183,0.153-0.271,0.236
	c-8.618,8.09-22.32,6.904-34.764,0.99c-2.189-1.041-4.334-2.235-6.41-3.544c-0.48-0.303-0.96-0.605-1.433-0.921
	c-12.87-8.592-22.481-21.766-20.129-33.267c0.103-0.5,0.235-0.997,0.384-1.49c0.042-0.139,0.089-0.277,0.135-0.416
	c0.053-0.163,0.12-0.323,0.179-0.484c0.08-0.221,0.155-0.443,0.245-0.663c0.049-0.119,0.094-0.239,0.146-0.357
	c0.213-0.489,0.448-0.974,0.712-1.453c0.028-0.052,0.063-0.103,0.092-0.155c0.16-0.284,0.345-0.563,0.524-0.844
	c0.092-0.144,0.172-0.291,0.269-0.434c0.077-0.114,0.157-0.228,0.237-0.341c0.288-0.407,0.595-0.811,0.925-1.209
	c0.051-0.062,0.097-0.124,0.148-0.185c0.223-0.263,0.477-0.52,0.718-0.779c0.188-0.201,0.359-0.406,0.559-0.605
	c0.059-0.058,0.122-0.115,0.181-0.173c0.026-0.025,0.057-0.05,0.083-0.075c0.377-0.365,0.771-0.727,1.188-1.082
	c0.104-0.088,0.207-0.177,0.313-0.265c0.001,0,0.001-0.001,0.002-0.002c0.515-0.426,1.052-0.847,1.627-1.258
	c1.751-1.251,3.782-2.428,6.115-3.514c0.777-0.362,1.589-0.714,2.435-1.055c4.615-1.862,10.246-3.409,17.035-4.544
	c3.017-0.504,5.384-1.79,7.206-3.392c2.331-2.05,3.768-4.619,4.527-6.736c0.186-0.79,0.426-1.595,0.723-2.385
	c0.001-0.011,0.001-0.021,0.001-0.021c1.926-5.075,6.444-9.794,17.279-8.64l0.06,0.015c0.179,0.023,0.365,0.066,0.553,0.1
	c3.748,0.729,2.339,0.939,5.602,1.725c0.642,0.146,1.461,0.324,2.539,0.532c4.708,0.889,8.344-1.148,12.308-0.373
	C249.165,257.846,252.659,263.098,251.598,268.536z M220.706,317.229c0.011,0.018,0.021,0.035,0.03,0.051l0.016,0.004l0.011-0.043
	L220.706,317.229z M222.747,290.223l-3.854-5.97c0.158-0.812,0.583-1.563,1.333-2.11c0.801-0.59,1.734-0.852,2.676-0.855
	c-1.032-0.05-2.066,0.19-2.943,0.836c-0.752,0.548-1.176,1.299-1.333,2.11l3.853,5.97c0,0-7.292,4.382-5.873,11.891
	c0.833,4.414,3.048,8.254,4.945,12.064l0.087-0.34c-1.854-3.693-3.958-7.43-4.765-11.705
	C215.457,294.604,222.747,290.223,222.747,290.223z M230.146,275.253c1.042,4.264,0.566,8.322-1.374,11.17
	c0.024,0.106,0.059,0.208,0.079,0.315c2.109-2.856,2.641-7.059,1.562-11.467c-0.152-0.08-0.001-0.101,0.352-0.083
	C230.225,275.145,229.959,275.156,230.146,275.253z M165.795,286.348c0.001,0,0.001-0.001,0.002-0.002h0
	C165.796,286.347,165.796,286.348,165.795,286.348z M159.699,294.305c0.392-0.955,0.889-1.891,1.475-2.809
	c-0.18,0.28-0.364,0.56-0.524,0.844c-0.029,0.052-0.063,0.103-0.092,0.155c-0.264,0.479-0.499,0.964-0.712,1.453
	C159.793,294.067,159.748,294.186,159.699,294.305z M161.443,291.063c0.581-0.859,1.266-1.695,2.029-2.514
	c-0.242,0.259-0.495,0.516-0.718,0.779c-0.052,0.061-0.098,0.124-0.148,0.185c-0.33,0.398-0.637,0.802-0.925,1.209
	C161.6,290.835,161.52,290.948,161.443,291.063z M159.14,295.868c0.091-0.302,0.205-0.601,0.313-0.9
	c-0.059,0.161-0.125,0.321-0.179,0.484C159.229,295.591,159.182,295.729,159.14,295.868z M164.294,287.695
	c0.377-0.365,0.771-0.727,1.188-1.082c0.104-0.088,0.207-0.177,0.313-0.265c0.001,0,0.001-0.001,0.002-0.002
	C165.263,286.788,164.765,287.238,164.294,287.695z M164.03,287.943c0.059-0.058,0.122-0.115,0.181-0.173
	C164.152,287.828,164.088,287.885,164.03,287.943z M368.447,274.495l12.008,66.986c2.37-0.166,5.63,0.17,8.463,0.677l-12.39-69.111
	L368.447,274.495z M279.529,124.39c-0.337-0.438-0.967-0.519-1.402-0.181l-49.95,38.542l-6.858,5.292
	c-0.438,0.337-0.518,0.965-0.181,1.402c0.016,0.021,0.041,0.028,0.059,0.047c0.468-0.421,0.733-0.658,0.733-0.658
	s-0.1,0.338-0.277,0.937c0.092,0.027,0.182,0.063,0.278,0.063c0.213,0,0.429-0.068,0.61-0.208l7.333-5.658l49.475-38.175
	C279.785,125.455,279.866,124.827,279.529,124.39z M221.929,168.834c0,0-0.265,0.237-0.733,0.658
	c0.127,0.141,0.284,0.228,0.456,0.279C221.829,169.173,221.929,168.834,221.929,168.834z M115.311,469.759l-0.329-17.758
	l-26.756,17.758H115.311z"></path>
<path id="color_x5F_5" fill="#8b572a" d="M126.997,209.385c0,0,0,0-0.002,0l-0.184-2.569c0,0,0.002,0.001,0.002,0.001
	L126.997,209.385z M116.311,192.552l1.057-0.824c-0.297,0.144-0.576,0.331-0.819,0.58L116.311,192.552z M117.429,191.679
	l-0.062,0.048c0.018-0.009,0.034-0.021,0.052-0.03L117.429,191.679z M126.347,199.332l-0.063,0.013l0.025,0.388v0.015v-0.015
	L126.347,199.332z M143.705,209.247l-16.438,3.996l-0.036-0.502l-0.072-1.029l-0.164-2.327c0.002,0,0.002,0,0.002,0l-0.184-2.569
	c0,0-0.002-0.001-0.002-0.001c-0.352-0.152-0.693-0.32-1.027-0.5c-0.574-0.307-1.109-0.656-1.619-1.033
	c-1.49-1.109-2.699-2.484-3.623-3.906c-0.431-0.196-0.768-0.637-0.924-1.613c-0.254-0.507-0.465-1.009-0.645-1.497
	c-0.211-0.574-0.373-1.128-0.482-1.645l-0.191-0.906l-3.402-0.731c-1.969-0.423-3.223-2.359-2.799-4.329
	c0.299-1.39,1.354-2.42,2.642-2.759l4.635,6.21l-2.143-10.165c0.63-0.081,1.263-0.179,1.901-0.314
	c6.214-1.309,11.162-4.853,13.535-9.121l1.105,0.021l0.004-0.009c1.99,0.994,4.299,1.642,6.793,1.87l2.648,12.691l1.732-7.552
	c1.416-0.375,2.977,0.127,3.889,1.382c0.895,1.237-0.066,4.548-0.816,5.091l-2.977,2.157l0.176,0.828
	c0.729,3.461-0.047,7.192-1.926,10.258c-0.277,0.448-0.576,0.884-0.9,1.285c-0.252,0.337-0.512,0.65-0.795,0.956l1.684,4.615v0
	v0.002L143.705,209.247z M117.429,191.679l-0.062,0.048c-0.297,0.144-0.576,0.331-0.819,0.58l-0.237,0.245l1.057-0.824
	c0.018-0.009,0.034-0.021,0.052-0.03L117.429,191.679z M126.347,199.332l-0.063,0.013l0.025,0.388v0L126.347,199.332z
	 M127.339,189.908c-0.83-1.053-1.955-1.86-3.357-1.661c-1.373,0.194-2.212,1.314-2.687,2.524c-0.29,0.74,0.906,1.037,1.193,0.308
	c0.734-1.871,2.566-2.091,3.799-0.531C126.769,191.164,127.831,190.532,127.339,189.908z M140.724,186.3
	c-1.012-0.815-2.295-1.369-3.584-0.857c-1.316,0.524-1.893,1.783-2.09,3.11c-0.119,0.787,1.115,0.806,1.23,0.031
	c0.295-1.964,1.996-2.683,3.561-1.424C140.45,187.651,141.343,186.799,140.724,186.3z M288.467,332.85
	c-0.008,0.465-0.012,0.918,0.002,1.336C288.455,333.768,288.459,333.315,288.467,332.85z M289.619,323.268c0,0,0,0-0.003,0
	c-0.116,0.617-0.223,1.225-0.323,1.822C289.393,324.495,289.503,323.885,289.619,323.268z M288.55,331.038
	c-0.037,0.508-0.057,0.988-0.072,1.455C288.493,332.026,288.512,331.546,288.55,331.038z M288.739,329.009
	c0.131-1.156,0.302-2.383,0.513-3.666C289.041,326.626,288.87,327.852,288.739,329.009z M288.552,331.016
	c0.037-0.523,0.089-1.07,0.146-1.629C288.64,329.946,288.589,330.493,288.552,331.016z M290.524,318.959
	c-0.34,1.472-0.644,2.915-0.908,4.31c0.003,0,0.004,0,0.004,0c0.264-1.391,0.568-2.832,0.907-4.3
	C290.526,318.966,290.525,318.962,290.524,318.959z M306.653,311.255c0,0,0.008-0.049,0.018-0.125
	C306.658,311.208,306.653,311.255,306.653,311.255z M356.567,298.196c0.479,0.291,0.946,0.581,1.384,0.866
	C357.513,298.776,357.047,298.487,356.567,298.196z M360.583,300.951c-0.332-0.269-0.697-0.544-1.081-0.821
	C359.885,300.407,360.251,300.682,360.583,300.951z M357.977,299.077c0.439,0.287,0.848,0.569,1.24,0.849
	C358.825,299.646,358.417,299.364,357.977,299.077z M306.721,310.722c0.003-0.007,0.004-0.013,0.004-0.021
	C306.725,310.709,306.722,310.718,306.721,310.722z M306.721,310.722c-0.018,0.146-0.035,0.269-0.045,0.353
	C306.688,310.989,306.704,310.87,306.721,310.722z M261.506,394.263c-4.46,0-8.075,3.615-8.075,8.075s3.615,8.075,8.075,8.075
	 M76.479,205.046c1.612-2.653,3.341-12.437,0.797-12.914c-2.021-0.378-0.383,5.473-2.718,4.849
	c-2.593-0.692-3.858-12.612-6.206-11.554c-2.66,1.199,2.851,9.138,0.64,9.705c-2.211,0.565-3.418-11.83-6.171-10.478
	c-2.75,1.353,4.067,10.399,1.946,11.241s-3.392-9.443-5.929-8.289c-2.829,1.286,4.676,10.994,3.289,11.435
	c-2.321,0.736-3.471-7.557-5.742-6.684c-1.342,0.517,0.264,4.561,2.658,8.683c2.116,3.645,4.865,7.106,7.278,8.205
	C71.4,211.559,73.592,209.795,76.479,205.046 M380.455,341.481c-1.014,0.07-1.861,0.235-2.443,0.516l2.784,1.381L380.455,341.481z
	 M440.008,353.99c0.145-0.072,0.285-0.168,0.423-0.273c0.036-0.027,0.071-0.057,0.106-0.086c0.126-0.105,0.248-0.221,0.367-0.352
	c0.011-0.012,0.021-0.021,0.032-0.033c0.129-0.146,0.253-0.309,0.372-0.481c0.028-0.041,0.056-0.082,0.083-0.124
	c0.106-0.163,0.21-0.334,0.309-0.517c0.011-0.021,0.022-0.039,0.034-0.061c0.109-0.208,0.212-0.429,0.31-0.659
	c0.017-0.038,0.032-0.078,0.048-0.118c0.09-0.22,0.174-0.446,0.251-0.683c0.006-0.017,0.012-0.033,0.018-0.05
	c0.085-0.264,0.162-0.537,0.23-0.817c0.005-0.019,0.009-0.038,0.014-0.057c0.066-0.278,0.125-0.563,0.174-0.854
	c0.001-0.004,0.002-0.009,0.002-0.013c0.409-2.447,0.165-5.264-1.156-7.389c-0.001-0.002-0.002-0.003-0.003-0.004
	c-0.115-0.187-0.24-0.367-0.373-0.542c-0.007-0.009-0.014-0.018-0.021-0.027c-0.126-0.165-0.261-0.323-0.403-0.478
	c-0.016-0.017-0.03-0.033-0.046-0.05c-0.135-0.143-0.277-0.279-0.426-0.411c-0.027-0.023-0.053-0.047-0.079-0.07
	c-0.142-0.12-0.291-0.233-0.444-0.344c-0.039-0.028-0.077-0.058-0.117-0.085c-0.147-0.101-0.303-0.192-0.461-0.282
	c-0.053-0.03-0.103-0.063-0.156-0.091c-0.154-0.082-0.318-0.155-0.483-0.228c-0.064-0.028-0.124-0.06-0.189-0.085
	c-0.171-0.069-0.353-0.128-0.534-0.185c-0.066-0.021-0.129-0.047-0.197-0.066c-0.253-0.072-0.515-0.135-0.789-0.185
	c-0.084-0.016-0.186-0.025-0.28-0.037c-2.026-0.253-6.355,0.305-10.929,1.09c-7.396,1.269-15.438,3.133-15.438,3.133
	s-8.02,0.893-14.773,2.398c-0.133-0.358-0.332-0.685-0.613-0.965c-0.521-0.518-3.003-1.228-5.95-1.754
	c-2.833-0.507-6.093-0.843-8.463-0.677l0.341,1.896l-2.784-1.381c-0.033,0.016-0.07,0.029-0.101,0.046
	c-1.83,0.977-0.379,7.38-0.379,7.38s-0.549,5.892,4.543,6.119c0.305,0.014,0.603,0.004,0.9-0.001
	c3.053-0.056,5.762-1.075,7.889-2.522c0.106-0.072,0.219-0.14,0.322-0.214c3.736,1.508,9.13,2.551,15.01,3.168
	c6.921,0.726,14.52,0.859,20.92,0.433c4.229-0.282,7.936-0.804,10.568-1.559C438.589,354.588,439.378,354.303,440.008,353.99z
	 M436.901,338.293c0.274,0.05,0.536,0.112,0.789,0.185C437.437,338.405,437.176,338.343,436.901,338.293z M438.422,338.728
	c-0.171-0.069-0.353-0.128-0.534-0.185C438.069,338.6,438.25,338.66,438.422,338.728z M438.611,338.813
	c0.165,0.072,0.329,0.146,0.483,0.228C438.94,338.959,438.776,338.885,438.611,338.813z M439.712,339.414
	c-0.147-0.101-0.303-0.192-0.461-0.282C439.409,339.221,439.564,339.313,439.712,339.414z M439.829,339.499
	c0.153,0.11,0.303,0.224,0.444,0.344C440.132,339.722,439.983,339.608,439.829,339.499z M440.352,339.913
	c0.148,0.132,0.291,0.269,0.426,0.411C440.643,340.181,440.501,340.045,440.352,339.913z M441.621,341.421
	c-0.115-0.187-0.24-0.367-0.373-0.542C441.381,341.053,441.506,341.234,441.621,341.421z M441.391,352.64
	c0.106-0.163,0.21-0.334,0.309-0.517C441.601,352.306,441.498,352.477,441.391,352.64z M440.904,353.279
	c-0.119,0.131-0.241,0.246-0.367,0.352C440.663,353.525,440.785,353.41,440.904,353.279z M441.308,352.764
	c-0.119,0.173-0.243,0.336-0.372,0.481C441.065,353.1,441.189,352.937,441.308,352.764z M442.78,348.813
	c0.412-2.448,0.165-5.262-1.156-7.389C442.945,343.55,443.189,346.366,442.78,348.813z M440.43,353.717
	c-0.138,0.105-0.278,0.201-0.423,0.273C440.152,353.918,440.293,353.822,440.43,353.717z M442.604,349.679
	c0.066-0.278,0.125-0.563,0.174-0.854C442.729,349.116,442.671,349.401,442.604,349.679z M442.044,351.404
	c-0.098,0.23-0.2,0.451-0.31,0.659C441.844,351.855,441.946,351.635,442.044,351.404z M440.824,340.374
	c0.143,0.154,0.277,0.313,0.403,0.478C441.101,340.686,440.967,340.527,440.824,340.374z M442.36,350.553
	c0.085-0.264,0.162-0.537,0.23-0.817C442.522,350.016,442.445,350.289,442.36,350.553z M442.343,350.603
	c-0.077,0.236-0.161,0.463-0.251,0.683C442.181,351.066,442.265,350.84,442.343,350.603z M283.271,369.791
	c-0.285,1.826,0.443,3.563,2.55,5.654c1.882,1.867,6.092,3.213,10.25,3.903c4.702,0.779,9.055,0.851,9.063-0.588
	c0.012-2.434-8.15-0.574-8.283-3.006c-0.08-1.452,11.656,2.131,11.857-0.97c0.183-2.781-9.888-0.33-9.85-2.611
	c0.037-2.282,10.91,0.892,11.202-2.158c0.291-3.054-11.729,0.204-11.983-2.064c-0.252-2.269,9.123,0.076,9.303-2.836
	c0.159-2.57-11.437,0.464-13.001-1.716c-1.41-1.964,4.642-2.502,3.573-4.258c-1.347-2.211-9.885,2.87-11.795,5.315
	c-1.544,1.979-2.563,3.608-2.858,5.164c0.324,0.116,0.498,0.179,0.498,0.179S283.599,369.797,283.271,369.791z M283.794,369.8
	c0,0-0.174-0.063-0.498-0.179c-0.011,0.057-0.017,0.113-0.026,0.17C283.599,369.797,283.794,369.8,283.794,369.8z M459.946,273.439
	l-0.32,0.193l-19.891,12.01l-2.37-13.06l-0.247-1.362l-0.521-2.872c-2.559,1.278-5.008,2.126-6.996,2.366
	c-6.34,0.768-6.189-4.811-6.275-11.865c-0.68-0.047-1.289-0.163-1.734-0.349c-1.99-0.837-0.078-2.694,0.914-5.052
	c0.145-0.344,0.324-0.66,0.521-0.955c-0.02-0.208-0.041-0.416-0.066-0.625c-0.265-2.187-0.178-4.316,0.199-6.324
	c0.123-0.658,0.277-1.302,0.461-1.931l0.115-0.014c0.49-0.06,4.564-0.426,7.271-0.587c1.586-0.095,2.703-0.119,2.353,0.03
	c-1.383,4.328-1.156,8.559,0.742,11.559c0.34-1.295,0.969-2.5,1.918-3.414c1.813-1.749,4.977-2.302,7.018-0.565
	c1.521,1.297,1.523,3.369,0.531,5.013c-0.43,0.719-0.977,1.331-1.613,1.813c-0.605,0.466-1.285,0.824-2.008,1.056
	c1.219,0.225,2.514,0.228,3.854,0.017c2.516-0.38,5.162-1.512,7.625-3.305c0.033-0.018,0.059-0.034,0.084-0.058
	c0.217-0.159,0.426-0.348,0.639-0.517l7.443,17.941L459.946,273.439z M430.884,252.493c-0.529-1.19-1.413-2.277-2.789-2.411
	c-1.416-0.141-2.508,0.707-3.293,1.801c-0.466,0.646,0.62,1.232,1.081,0.595c1.158-1.607,3.013-1.467,3.821,0.375
	C430.016,253.573,431.2,253.227,430.884,252.493z M230.765,275.189c2.087,0.172,8.333,1.183,8.946,1.298l0.113,0.028
	c0.559,2.595,0.625,5.409,0.068,8.278c-0.041,0.207-0.077,0.413-0.111,0.618c0.176,0.309,0.333,0.636,0.452,0.99
	c0.822,2.422,2.597,4.41,0.551,5.104c-0.457,0.154-1.073,0.226-1.754,0.224c-0.589,7.03-0.837,12.605-7.106,11.388
	c-1.966-0.383-4.349-1.402-6.807-2.861l-3.479,13.563c-1.854-3.693-3.958-7.43-4.765-11.705c-1.417-7.51,5.873-11.891,5.873-11.891
	l-3.854-5.97c0.158-0.812,0.583-1.563,1.333-2.11c0.801-0.59,1.734-0.852,2.676-0.855c1.508,0.073,3.011,0.781,4.009,1.895
	c0.882,0.975,1.425,2.229,1.672,3.538c0.069-0.094,0.122-0.201,0.188-0.297c0.024,0.106,0.059,0.208,0.079,0.315
	c2.109-2.856,2.641-7.059,1.562-11.467C230.261,275.192,230.412,275.171,230.765,275.189z M233.104,283.787
	c1.27-1.521,3.109-1.248,3.784,0.646c0.26,0.741,1.468,0.48,1.203-0.274c-0.443-1.226-1.246-2.373-2.61-2.604
	c-1.4-0.241-2.552,0.525-3.413,1.562C231.557,283.728,232.599,284.389,233.104,283.787z M282.438,240.23
	c-0.21,0.07-0.405,0.18-0.588,0.316h2.667C283.801,240.121,283.069,240.018,282.438,240.23z M308.336,245.546
	c-0.178,1.445-0.522,2.876-1.051,4.245c-0.225,0.58-0.476,1.155-0.771,1.693c-0.225,0.445-0.461,0.87-0.725,1.289
	c-1.672,2.672-4.091,4.877-7.146,6.138c-3.447,1.416-6.613,1.567-9.407,0.94c-0.44-0.1-0.886-0.223-1.313-0.362
	c-0.729-0.238-1.436-0.519-2.116-0.854c-1.974-0.972-3.684-2.314-5.069-3.786c-0.317-0.078-3.095-5.088-5.381-9.302
	c-0.925-1.705-1.771-3.28-2.339-4.344c0.122,0.227,0.255,0.474,0.399,0.744c0.178-0.473,0.382-0.938,0.599-1.4
	c2.837-6.021,8.949-11.032,16.824-12.957c4.271-1.044,8.494-1.025,12.318-0.166c-0.115-0.271-0.227-0.534-0.339-0.796
	c1.834,4.286,4.118,9.832,4.118,9.832l0.384,0.922c0.419,1.018,0.715,2.081,0.906,3.165
	C308.516,242.186,308.543,243.875,308.336,245.546z M287.005,251.241l0.115,0.447l-0.045-0.475L287.005,251.241z M287.124,251.707
	l-0.004-0.018v0.001L287.124,251.707z M294.913,236.745c0.034,0.945,1.48,0.703,1.448-0.231c-0.003-0.056,0.011-0.101,0.01-0.154
	c0.001-0.521,0.087-0.991,0.262-1.38c0.226-0.495,0.588-0.852,1.024-1.075c0.693-0.353,1.591-0.345,2.554,0.176
	c0.104,0.056,0.21,0.085,0.313,0.093c0.699,0.068,1.267-0.893,0.538-1.292c-1.365-0.729-2.985-1.104-4.373-0.228
	C295.258,233.555,294.851,235.146,294.913,236.745z M279.941,240.546c-0.156,0.293-0.292,0.599-0.396,0.922
	c-0.091,0.275-0.168,0.555-0.223,0.837c-0.179,0.924,1.287,1.018,1.469,0.105c0.166-0.857,0.552-1.484,1.059-1.864h2.667
	c0.199,0.118,0.397,0.25,0.59,0.42c0.505,0.444,1.213,0.062,1.304-0.42c0.004-0.02,0.013-0.038,0.015-0.058
	c0.017-0.168-0.046-0.346-0.222-0.502c-1.199-1.052-2.69-1.751-4.284-1.215c-0.375,0.127-0.698,0.312-0.983,0.537
	C280.513,239.639,280.194,240.07,279.941,240.546z M297.657,233.905c0.693-0.353,1.591-0.345,2.554,0.176
	c0.104,0.056,0.21,0.085,0.313,0.093c-0.101-0.009-0.204-0.04-0.306-0.095C299.251,233.556,298.352,233.551,297.657,233.905z
	 M296.371,236.36c0.001-0.522,0.087-0.993,0.262-1.38C296.458,235.369,296.372,235.839,296.371,236.36z M285.109,240.964
	c-0.193-0.169-0.39-0.3-0.588-0.417h-0.004c0.199,0.118,0.397,0.25,0.59,0.42c0.505,0.444,1.213,0.062,1.304-0.42h0
	C286.316,241.025,285.614,241.404,285.109,240.964z M282.438,240.23c0.631-0.211,1.362-0.109,2.079,0.316h0.004
	C283.802,240.119,283.07,240.016,282.438,240.23z M286.41,240.546L286.41,240.546c0.004-0.02,0.014-0.038,0.015-0.058
	C286.424,240.509,286.414,240.527,286.41,240.546z M279.941,240.546c-0.156,0.293-0.292,0.599-0.396,0.922
	c0.104-0.322,0.241-0.629,0.397-0.922H279.941z M280.936,239.308c-0.423,0.331-0.742,0.762-0.995,1.238h0.002
	C280.197,240.071,280.516,239.64,280.936,239.308z M287.124,251.707l-0.004-0.018v0v0.001L287.124,251.707z M287.075,251.214
	l-0.07,0.027l0.115,0.447L287.075,251.214z M229.873,163.968l-7.333,5.658c-0.182,0.141-0.397,0.208-0.61,0.208
	c-0.096,0-0.186-0.036-0.278-0.063c-0.172-0.051-0.329-0.138-0.456-0.279c-0.018-0.019-0.042-0.026-0.059-0.047
	c-0.337-0.437-0.257-1.065,0.181-1.402l6.858-5.292c-1.104-0.586-2.361-0.92-3.697-0.92c-4.365,0-7.904,3.539-7.904,7.904
	c0,1.174,0.263,2.285,0.722,3.286c0.555,1.211,1.406,2.254,2.461,3.042c1.318,0.985,2.949,1.576,4.721,1.576
	c4.365,0,7.904-3.539,7.904-7.904C232.384,167.457,231.414,165.41,229.873,163.968z M360.585,324.775
	c-1.035,0-2.015,0.214-2.924,0.569c-2.019,0.787-3.651,2.344-4.502,4.33c-0.418,0.975-0.65,2.048-0.65,3.176
	c0,0.275,0.015,0.548,0.041,0.815c0.011,0.103,0.031,0.2,0.045,0.301c0.022,0.165,0.042,0.33,0.075,0.491
	c0.025,0.126,0.062,0.247,0.093,0.371c0.033,0.131,0.062,0.263,0.101,0.391c0.044,0.142,0.098,0.278,0.149,0.416
	c0.038,0.104,0.071,0.211,0.114,0.313c0.064,0.153,0.139,0.302,0.212,0.45c0.039,0.08,0.074,0.163,0.116,0.242
	c0.088,0.163,0.185,0.32,0.282,0.477c0.036,0.058,0.069,0.118,0.106,0.175c0.112,0.17,0.233,0.332,0.357,0.492
	c0.03,0.038,0.058,0.079,0.088,0.117c0.138,0.171,0.284,0.335,0.436,0.494c0.021,0.022,0.041,0.046,0.063,0.068
	c0.163,0.168,0.335,0.329,0.513,0.482c0.012,0.01,0.022,0.021,0.034,0.031c0.188,0.161,0.384,0.313,0.587,0.457
	c0.002,0.001,0.003,0.003,0.005,0.004c0.314,0.223,0.646,0.422,0.992,0.598c0.225,0.115,0.464,0.203,0.699,0.297
	c0.126,0.05,0.245,0.11,0.373,0.154c0.271,0.093,0.555,0.156,0.838,0.221c0.104,0.022,0.204,0.055,0.309,0.074
	c0.288,0.053,0.584,0.076,0.882,0.098c0.089,0.006,0.174,0.026,0.264,0.029l-0.001-0.009c0.103,0.004,0.2,0.024,0.304,0.024
	c3.009,0,5.628-1.649,7.017-4.09c0.67-1.177,1.058-2.534,1.058-3.985C368.659,328.39,365.044,324.775,360.585,324.775z
	 M296.261,334.858c-1.421-1.246-3.278-2.008-5.316-2.008c-0.958,0-1.874,0.176-2.727,0.482c-3.116,1.119-5.348,4.092-5.348,7.593
	c0,0.168,0.015,0.331,0.025,0.497c0.258,4.227,3.758,7.578,8.05,7.578c0.464,0,0.913-0.056,1.354-0.134l0.003,0.011
	c0.235-0.04,0.466-0.09,0.694-0.15c0.005-0.001,0.011-0.002,0.017-0.004c0.225-0.06,0.446-0.128,0.663-0.206
	c0.007-0.003,0.014-0.005,0.021-0.008c0.218-0.079,0.431-0.166,0.64-0.263c0.001-0.001,0.001-0.001,0.002-0.001
	c1.037-0.48,1.952-1.176,2.694-2.026c0.021-0.024,0.044-0.048,0.066-0.072c0.106-0.125,0.204-0.256,0.303-0.387
	c0.051-0.068,0.104-0.135,0.153-0.205c0.082-0.116,0.158-0.237,0.234-0.357c0.057-0.092,0.114-0.183,0.168-0.276
	c0.064-0.113,0.125-0.229,0.184-0.345c0.055-0.108,0.109-0.219,0.159-0.33c0.05-0.11,0.098-0.222,0.143-0.335
	c0.05-0.124,0.095-0.251,0.139-0.379c0.037-0.107,0.073-0.215,0.106-0.324c0.042-0.141,0.076-0.284,0.11-0.429
	c0.024-0.102,0.051-0.203,0.071-0.307c0.032-0.165,0.055-0.334,0.077-0.502c0.011-0.087,0.027-0.173,0.036-0.261
	c0.025-0.259,0.04-0.521,0.04-0.785C299.019,338.505,297.948,336.339,296.261,334.858z"></path>
<path id="color_x5F_4" fill="#c1d34c" d="M87.317,368.827c0.171-6.465,8.026-6.206,11.612,0c3.587,6.206,0,25.341,0,25.341
	l-3.016,0.549c0.533-3.849,0.461-7.771,0.189-11.644c-0.329-4.674-0.683-9.451-2.354-13.87c-0.341-0.901-1.801-0.511-1.456,0.401
	c0.686,1.811,1.146,3.688,1.479,5.593c0.297,2.016,0.53,4.04,0.704,6.071c0.043,0.603,0.082,1.205,0.118,1.805
	c0.236,3.984,0.354,7.987-0.246,11.928l-3.957,0.719c0,0,0.17-3.103-0.684-9.568C88.854,379.687,87.146,375.292,87.317,368.827z
	 M101.334,394.707h6.724c4.925-3.929,9.102-5.964,13.333-10.668c4.324-4.809-1.554-10.026-8.427-7.991
	c-3.151,0.933-7.075,4.875-10.405,8.871c-0.245,2.428-0.7,4.826-1.275,7.2c1.525-1.55,3.342-2.824,5.075-4.171
	c3.495-2.716,6.896-5.723,9.979-8.898c0.679-0.699,1.745,0.368,1.067,1.067c-2.921,3.009-6.163,5.646-9.337,8.379
	c-0.847,0.729-1.743,1.398-2.63,2.074C104.058,391.937,102.689,393.315,101.334,394.707z M68.256,384.291
	c4.231,4.704,8.407,6.739,13.332,10.669H87.6c-2.044-2.381-4.408-4.456-6.746-6.554c-3.009-2.7-5.832-5.708-9.154-8.026
	c-0.792-0.553-0.038-1.861,0.762-1.303c3.194,2.229,5.826,5.075,8.73,7.648c2.663,2.357,5.332,4.679,7.635,7.374
	c-0.695-2.938-0.853-5.909-1.157-8.929c-3.329-3.996-7.836-7.938-10.987-8.871C69.81,374.264,63.932,379.482,68.256,384.291z
	 M249.703,357.722c-6.883-2.379-12.163-4.13-12.526-4.034c-4.293-6.533-10.331-13.931-15.69-19.45
	c0.002-0.046,0.003-0.092,0.005-0.138c-8.618,8.09-22.32,6.904-34.764,0.99c-2.189-1.041-4.334-2.235-6.41-3.544
	c-0.273,2.125-0.57,4.262-0.892,6.362c-1.263,8.238-2.906,15.913-4.976,20.092c-2.382,4.809-7.562,15.945-11.431,24.316
	c-2.432,5.261-4.341,9.42-4.715,10.236c-0.044,0.096-0.072,0.156-0.072,0.156l42.26,1.396h0.004c0,0,0-11.855,0.664-30.105
	c0.031-0.862,0.308-1.617,0.495-2.315c3.866,7.082,8.072,14.264,11.434,16.642c1.021,3.468,4.362,6.738,8.748,8.14
	c5.874,1.878,31.454,12.925,31.454,12.925s-22.191-27.594-28.063-29.471c-0.726-0.231-2.007-3.841-3.537-8.822
	c4.075,2.353,8.111,4.534,11.556,5.987c2.797,1.857,6.826,2.916,11.056,2.631c2.886-0.194,9.894-0.218,17.218-0.177
	c9.457,0.053,19.423,0.212,21.751,0.251c0.009-0.057,0.015-0.113,0.026-0.17C280.11,368.474,262.243,362.055,249.703,357.722z
	 M530.363,470.034l-27.317-18.033l0.233,18.033H530.363z"></path>
<path id="color_x5F_3" fill="#000000" d="M496.448,368.827c0.171-6.465,8.026-6.206,11.612,0c3.587,6.206,0,25.341,0,25.341
	l-3.016,0.549c0.533-3.849,0.461-7.771,0.189-11.644c-0.329-4.674-0.683-9.451-2.354-13.87c-0.341-0.901-1.801-0.511-1.456,0.401
	c0.686,1.811,1.146,3.688,1.479,5.593c0.297,2.016,0.53,4.04,0.704,6.071c0.043,0.603,0.082,1.205,0.118,1.805
	c0.236,3.984,0.354,7.987-0.246,11.928l-3.957,0.719c0,0,0.17-3.103-0.684-9.568C497.985,379.687,496.277,375.292,496.448,368.827z
	 M510.466,394.707h6.724c4.925-3.929,9.102-5.964,13.333-10.668c4.324-4.809-1.554-10.026-8.427-7.991
	c-3.151,0.933-7.075,4.875-10.405,8.871c-0.245,2.428-0.7,4.826-1.275,7.2c1.525-1.55,3.342-2.824,5.075-4.171
	c3.495-2.716,6.896-5.723,9.979-8.898c0.679-0.699,1.745,0.368,1.067,1.067c-2.921,3.009-6.163,5.646-9.337,8.379
	c-0.847,0.729-1.743,1.398-2.63,2.074C513.189,391.937,511.82,393.315,510.466,394.707z M477.387,384.291
	c4.231,4.704,8.407,6.739,13.332,10.669h6.012c-2.044-2.381-4.408-4.456-6.746-6.554c-3.009-2.7-5.832-5.708-9.154-8.026
	c-0.792-0.553-0.038-1.861,0.762-1.303c3.194,2.229,5.826,5.075,8.73,7.648c2.663,2.357,5.332,4.679,7.635,7.374
	c-0.695-2.938-0.853-5.909-1.157-8.929c-3.329-3.996-7.836-7.938-10.987-8.871C478.941,374.264,473.063,379.482,477.387,384.291z
	 M159.275,295.452c-0.046,0.139-0.093,0.277-0.135,0.417C159.182,295.729,159.229,295.591,159.275,295.452z M354.289,337.902
	c-0.03-0.038-0.058-0.079-0.088-0.117C354.231,337.823,354.259,337.864,354.289,337.902z M352.863,335.219
	c-0.039-0.128-0.067-0.26-0.101-0.391C352.796,334.96,352.824,335.092,352.863,335.219z M352.594,333.967
	c0.022,0.165,0.042,0.33,0.075,0.491C352.636,334.297,352.617,334.132,352.594,333.967z M357.661,325.344l-4.936-29.303
	l-9.082,14.012c-2.117,2.848-4.608,5.486-7.488,7.827c-0.88,0.717-1.781,1.389-2.698,2.025l19.702,9.769
	C354.01,327.688,355.642,326.132,357.661,325.344z M352.509,332.85c0,0.275,0.015,0.548,0.041,0.815
	C352.523,333.398,352.509,333.126,352.509,332.85z M353.737,337.118c0.036,0.058,0.069,0.118,0.106,0.175
	C353.806,337.236,353.773,337.176,353.737,337.118z M354.787,338.465c-0.021-0.022-0.041-0.046-0.063-0.068
	C354.746,338.419,354.765,338.442,354.787,338.465z M355.334,338.978c-0.012-0.011-0.022-0.021-0.034-0.031
	C355.311,338.957,355.322,338.968,355.334,338.978z M353.127,335.949c-0.043-0.103-0.076-0.209-0.114-0.313
	C353.051,335.74,353.084,335.846,353.127,335.949z M353.455,336.641c-0.042-0.079-0.077-0.162-0.116-0.242
	C353.378,336.479,353.413,336.562,353.455,336.641z M355.926,339.439c-0.002-0.001-0.003-0.003-0.005-0.004
	C355.923,339.436,355.924,339.438,355.926,339.439z M298.867,342.473c0.032-0.165,0.055-0.334,0.077-0.502
	C298.922,342.14,298.9,342.308,298.867,342.473z M298.14,344.577c0.055-0.108,0.109-0.219,0.159-0.33
	C298.248,344.358,298.196,344.469,298.14,344.577z M298.687,343.209c0.042-0.141,0.076-0.284,0.11-0.429
	C298.763,342.925,298.728,343.068,298.687,343.209z M298.442,343.912c0.05-0.124,0.095-0.251,0.139-0.379
	C298.537,343.661,298.492,343.788,298.442,343.912z M299.019,340.926c0,0.265-0.015,0.526-0.04,0.785
	C299.005,341.452,299.019,341.191,299.019,340.926z M293.696,348.51c-0.007,0.003-0.014,0.005-0.021,0.008
	C293.682,348.514,293.689,348.512,293.696,348.51z M292.995,348.727c0.005-0.001,0.011-0.002,0.017-0.004
	C293.007,348.725,293.001,348.726,292.995,348.727z M309.962,327.634c-1.369,0.041-2.736-0.006-4.1-0.094l-16.246-4.271
	c-1.619-0.787-3.212-1.65-4.738-2.65l3.34,12.715c0.853-0.307,1.769-0.482,2.727-0.482c2.039,0,3.896,0.762,5.316,2.008l14.826-7.28
	C310.712,327.598,310.337,327.623,309.962,327.634z M297.401,345.76c0.051-0.068,0.104-0.135,0.153-0.205
	C297.505,345.626,297.452,345.692,297.401,345.76z M294.338,348.246c-0.001,0-0.001,0-0.002,0.001
	C294.337,348.246,294.338,348.246,294.338,348.246z M297.788,345.198c0.057-0.092,0.114-0.183,0.168-0.276
	C297.902,345.015,297.845,345.106,297.788,345.198z M297.098,346.147c-0.021,0.024-0.044,0.048-0.066,0.072
	C297.054,346.195,297.077,346.172,297.098,346.147z M459.928,238.269c-0.305-6.319-2.805-15.608-17.459-15.091l-0.057,0.007
	c-0.182,0.015-0.373,0.039-0.563,0.062c-3.789,0.457-2.4,0.772-5.711,1.316c-0.646,0.106-1.48,0.221-2.566,0.352
	c-0.897,0.104-1.749,0.107-2.567,0.047c-1.783-0.13-3.407-0.561-5-0.903c-1.552-0.334-3.073-0.586-4.679-0.392
	c-5.428,0.655-9.281,5.653-8.617,11.153c0.271,2.239,1.254,4.21,2.683,5.725c2.057,2.183,5.045,3.414,8.22,3.07l0.008-0.001
	l0.115-0.014c0.49-0.06,4.564-0.426,7.271-0.587c1.586-0.095,2.703-0.119,2.353,0.03c-1.383,4.328-1.156,8.559,0.742,11.559
	c0.34-1.295,0.969-2.5,1.918-3.414c1.813-1.749,4.977-2.302,7.018-0.565c1.521,1.297,1.523,3.369,0.531,5.013
	c-0.43,0.719-0.977,1.331-1.613,1.813c-0.605,0.466-1.285,0.824-2.008,1.056c1.219,0.225,2.514,0.228,3.854,0.017
	c2.516-0.38,5.162-1.512,7.625-3.305c0.033-0.018,0.059-0.034,0.084-0.058c0.217-0.159,0.426-0.348,0.639-0.517
	c0.936-0.736,1.848-1.542,2.699-2.463c0.449-0.489,0.885-1.002,1.309-1.535C457.719,248.656,460.167,243.206,459.928,238.269z
	 M217.297,173.021c-0.236,0.215-0.473,0.43-0.722,0.657c-1.485,1.353-3.191,2.916-5,4.586c-7.973,7.363-17.945,16.831-19.856,19.845
	c-0.919,1.451-1.48,3.003-1.726,4.549c-9.612,0.122-20.76,1.159-27.469,2.074c-2.263,0.309-4.021,0.604-5.044,0.845
	c-1.018,0.24-1.976,0.592-2.879,1.021l-10.896,2.648l-16.438,3.996l-10.093,2.454c-2.622,0.537-4.992,1.613-7.038,3.074
	c-1.403,0.668-2.734,1.572-3.913,2.74c-2.801,2.772-11.059,13.246-17.636,23.325c-5.174-7.896-19.389-34.001-19.389-34.001
	s-4.376,43.641-0.067,49.66c4.002,5.594,11.209,7.394,16.697,4.415c5.947-2.264,15.204-8.292,23.168-14.045l24.782,52.719
	l0.093-0.023l24.887-6.201c0.103-0.5,0.235-0.996,0.384-1.49v0c0.091-0.302,0.205-0.601,0.313-0.9c0.08-0.22,0.154-0.441,0.244-0.66
	c0-0.001,0.001-0.002,0.001-0.003c0.392-0.955,0.889-1.891,1.475-2.809c0.092-0.144,0.172-0.29,0.268-0.432c0,0,0-0.001,0.001-0.001
	c0.581-0.859,1.266-1.695,2.029-2.514c0.187-0.201,0.358-0.406,0.557-0.604c0,0,0.001-0.001,0.001-0.001
	c0.058-0.058,0.122-0.115,0.181-0.173l0,0c0.026-0.025,0.056-0.05,0.083-0.075c0.471-0.457,0.969-0.907,1.502-1.349
	c0.515-0.426,1.052-0.847,1.627-1.258c1.752-1.251,3.782-2.428,6.115-3.514c0.777-0.362,1.589-0.714,2.435-1.055
	c0.074-2.181,0.141-4.795,0.199-7.937c0.179-9.722,0.267-24.522,0.166-47.375c8.053-3.197,17.772-7.536,24.359-11.54
	c3.045-0.532,5.988-2.421,7.879-5.404c0.726-1.146,1.788-3.726,2.999-7.042c1.549-4.242,3.343-9.691,5-14.909
	c1.179-3.713,2.284-7.297,3.183-10.25C218.703,175.275,217.852,174.232,217.297,173.021z M209.142,431.585v27.25
	c0,5.852,4.744,10.596,10.596,10.596h16.9c5.852,0,10.596-4.744,10.596-10.596v-27.25H209.142z"></path>
<path id="color_x5F_2" fill="#417505" d="M549.684,477.582c3.225,0,3.225,5,0,5c-41.723,0-83.445,0-125.169,0
	c-128.126,0-256.251,0-384.377,0c-3.224,0-3.224-5,0-5c41.723,0,83.444,0,125.167,0
	C293.431,477.582,421.558,477.582,549.684,477.582L549.684,477.582z M158.757,297.359c0.103-0.5,0.235-0.996,0.384-1.49
	C158.992,296.363,158.859,296.858,158.757,297.359z M179.426,337.909c-0.164-2.412-0.345-4.851-0.541-7.283
	c-12.87-8.592-22.481-21.766-20.129-33.267l-24.887,6.201c-0.365,0.981-0.655,2.008-0.838,3.084
	c-1.106,6.482-4.098,46.161-2.076,65.77c-0.157,23.876,0.104,91.922,0.104,91.922s17.794-55.067,18.143-64
	c0.284-7.295-0.396-26.084-4.353-32.876c3.864-9.702,7.857-22.283,11.002-33.144c3.172,8.644,6.738,17.666,10.133,24.98
	c-2.402,4.707-3.024,14.74-2.965,23.021c3.869-8.371,9.049-19.508,11.431-24.316C176.52,353.822,178.163,346.147,179.426,337.909z
	 M427.849,356.35c-0.244,0.018-0.484,0.038-0.733,0.055c0.406,3.729,0.822,6.609,1.215,8.231c0.111,0.458,0.221,0.832,0.328,1.076
	C427.495,361.104,427.229,358.251,427.849,356.35z M286.199,239.99c0.177,0.155,0.241,0.332,0.227,0.499
	c0.017-0.168-0.046-0.346-0.222-0.502c-1.199-1.052-2.69-1.751-4.284-1.215c-0.375,0.127-0.698,0.312-0.983,0.537
	c0.285-0.225,0.608-0.407,0.984-0.533C283.514,238.239,285.004,238.94,286.199,239.99z M280.787,242.406
	c-0.178,0.913-1.64,0.825-1.461-0.103c0.056-0.282,0.131-0.561,0.22-0.834c-0.091,0.275-0.168,0.555-0.223,0.837
	c-0.179,0.924,1.287,1.018,1.469,0.105c0.166-0.857,0.552-1.484,1.059-1.864h-0.003
	C281.339,240.926,280.952,241.551,280.787,242.406z M281.847,240.546h0.003c0.183-0.137,0.378-0.246,0.588-0.316
	C282.227,240.3,282.031,240.409,281.847,240.546z M296.633,234.98c0.226-0.495,0.588-0.852,1.024-1.075
	C297.22,234.127,296.858,234.483,296.633,234.98z M301.061,232.882c-1.365-0.729-2.985-1.104-4.373-0.228
	c-1.431,0.901-1.837,2.492-1.775,4.091c0.034,0.945,1.48,0.703,1.448-0.231c-0.003-0.056,0.011-0.101,0.01-0.154
	c0.001,0.053-0.013,0.098-0.011,0.152c0.032,0.932-1.413,1.175-1.443,0.229c-0.058-1.592,0.346-3.187,1.768-4.083
	c1.396-0.875,3.015-0.506,4.373,0.227c0.728,0.392,0.162,1.347-0.534,1.289C301.222,234.242,301.79,233.282,301.061,232.882z
	 M272.754,240.71c0.07,0.132,0.141,0.266,0.224,0.421c0.013,0.022,0.027,0.048,0.04,0.071c0.122,0.227,0.255,0.474,0.399,0.744
	c0.178-0.473,0.382-0.938,0.599-1.4h-1.35C272.695,240.6,272.722,240.651,272.754,240.71z M352.725,296.041l-9.082,14.012
	c-2.117,2.848-4.608,5.486-7.488,7.827c-7.717,6.29-16.955,9.478-26.193,9.753c-1.369,0.041-2.736-0.006-4.1-0.094l-16.246-4.271
	c-1.619-0.787-3.212-1.65-4.738-2.65c0,0-4.583-16.794-4.819-17.361c-1.212-2.957-1.87-5.999-2.006-9.01
	c-0.385-8.239,3.057-16.255,9.302-21.664c1.337-1.158,2.797-2.204,4.382-3.099l-1.034-3.986l-0.145-0.553
	c-0.223-0.04-0.448-0.074-0.668-0.122c-0.525-0.119-1.057-0.266-1.563-0.434c-0.87-0.283-1.71-0.616-2.522-1.015
	c-2.352-1.159-4.388-2.759-6.042-4.511c-0.434-0.108-4.776-8.047-7.617-13.317c-1.288-2.387-2.267-4.227-2.435-4.542
	c-0.017-0.032-0.024-0.05-0.024-0.05c-0.089-0.082-0.189-0.231-0.294-0.408c-1.057-1.785-2.796-7.909-2.832-8.826
	c-0.35-9.296,5.86-17.866,15.25-20.161c5.211-1.274,10.41-0.388,14.714,2.085c1.933,1.103,3.669,2.524,5.139,4.206
	c0.708,0.617,1.384,1.272,2,1.988c0.055,0.105,0.118,0.234,0.186,0.375c0.024,0.051,0.05,0.107,0.078,0.163
	c0.049,0.103,0.099,0.212,0.154,0.328c0.047,0.104,0.097,0.211,0.146,0.326c0.055,0.117,0.108,0.237,0.168,0.366
	c0.053,0.117,0.106,0.237,0.161,0.362c0.037,0.084,0.077,0.17,0.115,0.258c0.125,0.283,0.259,0.583,0.396,0.899
	c0.015,0.038,0.032,0.071,0.046,0.108c0.069,0.154,0.137,0.316,0.207,0.477c0.05,0.112,0.099,0.225,0.147,0.341
	c0.064,0.145,0.129,0.29,0.191,0.441c0.111,0.259,0.227,0.525,0.344,0.795c0.022,0.056,0.046,0.11,0.067,0.164
	c2.188,5.105,4.908,11.713,4.908,11.713l0.457,1.097c0.332,0.809,0.581,1.647,0.793,2.495c0.405,1.628,0.605,3.309,0.58,5
	c-0.036,2.473-0.516,4.957-1.416,7.292c-0.269,0.691-0.567,1.375-0.919,2.016c-0.267,0.531-0.549,1.037-0.864,1.537
	c-0.283,0.452-0.59,0.889-0.908,1.318l0.053,0.087l3.606,3.399c8.625-1.936,17.503,0.516,23.883,6.208
	c0.015,0.008,0.015,0.008,0.018,0.021c1.683,1.497,3.183,3.23,4.466,5.16c0.969,1.458,1.817,3.026,2.507,4.705
	c0.574,1.4,8.086,15.67,8.086,15.67L352.725,296.041z M298.643,258.91c3.056-1.26,5.475-3.466,7.146-6.138
	c0.264-0.419,0.5-0.844,0.725-1.289c0.295-0.538,0.546-1.113,0.771-1.693c0.528-1.368,0.873-2.8,1.051-4.245
	c0.207-1.671,0.181-3.36-0.108-5c-0.191-1.084-0.487-2.147-0.906-3.165l-0.384-0.922c0,0-2.284-5.546-4.118-9.832
	c0.112,0.262,0.224,0.525,0.339,0.796c-3.824-0.859-8.047-0.878-12.318,0.166c-7.875,1.925-13.986,6.936-16.824,12.957h-1.35
	c-0.186-0.348-0.318-0.598-0.367-0.687c0.048,0.09,0.179,0.335,0.367,0.687c0.029,0.054,0.056,0.104,0.087,0.164
	c0.07,0.132,0.141,0.266,0.224,0.421c0.013,0.022,0.027,0.048,0.04,0.071c0.569,1.064,1.414,2.639,2.339,4.344
	c2.287,4.214,5.064,9.224,5.381,9.302c1.386,1.472,3.096,2.814,5.069,3.786c0.681,0.335,1.388,0.616,2.116,0.854
	c0.427,0.139,0.872,0.262,1.313,0.362C292.03,260.477,295.196,260.326,298.643,258.91z M272.666,240.546
	c0.029,0.054,0.056,0.104,0.087,0.164C272.722,240.65,272.695,240.6,272.666,240.546L272.666,240.546z M272.3,239.86
	c0.048,0.09,0.179,0.335,0.367,0.687l0,0C272.481,240.198,272.348,239.948,272.3,239.86z M165.797,286.346L165.797,286.346
	c0.516-0.426,1.053-0.847,1.627-1.258h0C166.849,285.499,166.312,285.921,165.797,286.346z M437.365,272.583h-2.05
	c-5.355,4.631-9.741,14.328-10.543,26.397c-0.496,7.406-0.183,20.525,0.496,33.213c0.13,2.414,0.271,4.813,0.424,7.152
	c4.573-0.785,8.902-1.343,10.929-1.09c0.095,0.012,0.196,0.021,0.28,0.037c0.274,0.05,0.536,0.112,0.789,0.185
	c0.068,0.02,0.131,0.045,0.197,0.066c0.182,0.057,0.362,0.116,0.534,0.185c0.065,0.026,0.125,0.057,0.189,0.085
	c0.165,0.072,0.329,0.146,0.483,0.228c0.054,0.028,0.104,0.061,0.156,0.091c0.158,0.09,0.313,0.182,0.461,0.282
	c0.04,0.027,0.078,0.057,0.117,0.085c0.154,0.109,0.303,0.224,0.444,0.344c0.026,0.023,0.053,0.047,0.079,0.07
	c0.148,0.132,0.291,0.269,0.426,0.411c0.016,0.017,0.03,0.033,0.046,0.05c0.143,0.153,0.277,0.313,0.403,0.478
	c0.007,0.01,0.014,0.019,0.021,0.027c0.133,0.175,0.258,0.355,0.373,0.542c0.001,0,0.002,0.001,0.002,0.002s0.001,0.001,0.001,0.002
	c1.321,2.127,1.568,4.94,1.156,7.389c0,0.004-0.001,0.009-0.002,0.013c-0.049,0.29-0.107,0.575-0.174,0.854
	c-0.005,0.019-0.009,0.038-0.014,0.057c-0.019,0.078-0.044,0.15-0.063,0.227c-0.054,0.199-0.105,0.399-0.167,0.591
	c-0.006,0.017-0.012,0.033-0.018,0.05c-0.077,0.236-0.161,0.463-0.251,0.683c-0.016,0.04-0.031,0.079-0.048,0.118
	c-0.098,0.23-0.2,0.451-0.31,0.659c-0.012,0.021-0.023,0.04-0.034,0.061c-0.099,0.183-0.202,0.354-0.309,0.517
	c-0.027,0.042-0.055,0.083-0.083,0.124c-0.119,0.173-0.243,0.336-0.372,0.481c-0.011,0.012-0.021,0.021-0.032,0.033
	c-0.119,0.131-0.241,0.246-0.367,0.352c-0.035,0.029-0.07,0.059-0.106,0.086c-0.138,0.105-0.278,0.201-0.423,0.273
	c-0.63,0.313-1.419,0.598-2.323,0.856c-2.479,0.711-5.914,1.212-9.835,1.504c-0.62,1.9-0.354,4.754,0.81,9.362h38.699
	c0.171-0.369,0.33-0.902,0.479-1.568c0.881-3.949,1.381-12.798,1.723-22.722c0.104-3.014,0.195-6.124,0.275-9.229
	c0.301-11.451,0.492-22.8,0.887-28.682c0.89-13.729-3.434-26.477-11.096-29.879l-19.891,12.01L437.365,272.583z M437.118,271.22
	c-0.611,0.384-1.211,0.851-1.803,1.362h2.05L437.118,271.22z"></path>
<path id="color_x5F_1" fill="#ea9a52" d="M333.457,319.906c-6.801,4.722-14.563,7.239-22.37,7.672l19.013-9.337L333.457,319.906z
	 M294.377,363.399c0.309,0.431,1.014,0.656,1.939,0.763l-0.721-2.745C294.574,361.952,293.76,362.539,294.377,363.399z
	 M290.945,349.001c-4.292,0-7.792-3.352-8.05-7.578l-33.191,16.3c12.541,4.333,30.407,10.752,33.594,11.898
	c0.295-1.556,1.313-3.186,2.858-5.164c1.305-1.67,5.7-4.567,8.786-5.533l-2.639-10.046
	C291.859,348.953,291.408,349.001,290.945,349.001z M424.969,365.281h-27.21V469.97H261.52V369.54
	c9.457,0.053,19.423,0.212,21.751,0.251c-0.285,1.826,0.443,3.563,2.55,5.654c1.882,1.867,6.092,3.213,10.25,3.903
	c4.702,0.779,9.055,0.851,9.063-0.588c0.012-2.434-8.15-0.574-8.283-3.006c-0.072-1.319,9.604,1.516,11.528-0.278
	c0.193-0.181,0.311-0.407,0.329-0.691c0.183-2.781-9.888-0.33-9.85-2.611c0.037-2.282,10.91,0.892,11.202-2.158
	c0.291-3.054-11.729,0.204-11.983-2.064c-0.252-2.269,9.123,0.076,9.303-2.836c0.128-2.063-7.309-0.519-11.063-0.953l-0.721-2.745
	c1.309-0.687,2.956-1.289,2.355-2.275c-0.427-0.701-1.578-0.666-3.01-0.218l-2.639-10.046c3.812-0.646,6.718-3.955,6.718-7.952
	c0-2.421-1.071-4.587-2.758-6.067l14.826-7.28c7.808-0.433,15.569-2.95,22.37-7.672l19.702,9.769
	c-0.418,0.975-0.65,2.048-0.65,3.176c0,4.357,3.454,7.899,7.773,8.06c0.101,0.004,0.2,0.016,0.303,0.016
	c3.009,0,5.628-1.649,7.017-4.09l10.41,5.161c-0.033,0.016-0.07,0.029-0.101,0.046c-1.83,0.977-0.379,7.38-0.379,7.38
	s-0.549,5.892,4.543,6.119c0.305,0.014,0.603,0.004,0.9-0.001l2.678,14.936l8.081-1.449l-2.87-16.009
	c0.106-0.072,0.219-0.14,0.322-0.214c3.736,1.508,9.13,2.551,15.01,3.168L424.969,365.281z M314.969,386.121h-29.89v29.88h29.89
	V386.121z M373.53,386.121h-29.891v29.88h29.891V386.121z M237.384,200.004h20.708v-20.258h-20.708V200.004z M216.575,169.735v3.943
	c0.25-0.227,0.486-0.442,0.722-0.657C216.838,172.019,216.575,170.909,216.575,169.735z M216.575,240.546v-54.232
	c1.179-3.713,2.284-7.297,3.183-10.25c1.318,0.985,2.949,1.576,4.721,1.576c4.365,0,7.904-3.539,7.904-7.904
	c0-2.278-0.969-4.325-2.511-5.767l49.475-38.175c0.438-0.337,0.518-0.965,0.181-1.402c-0.337-0.438-0.967-0.519-1.402-0.181
	l-49.95,38.542c-1.104-0.586-2.361-0.92-3.697-0.92c-4.365,0-7.904,3.539-7.904,7.904v-7.904h-15.526l81.091-56.222l86.974,56.222
	h-15.047v78.716h-41.839c-0.212-0.848-0.461-1.686-0.793-2.495l-0.457-1.097c0,0-2.721-6.608-4.908-11.713
	c-0.021-0.054-0.045-0.108-0.067-0.164c-0.117-0.27-0.232-0.536-0.344-0.795c-0.063-0.151-0.127-0.296-0.191-0.441
	c-0.049-0.116-0.098-0.229-0.147-0.341c-0.07-0.161-0.138-0.322-0.207-0.477c-0.014-0.037-0.031-0.071-0.046-0.108
	c-0.138-0.317-0.271-0.616-0.396-0.899c-0.038-0.088-0.078-0.173-0.115-0.258c-0.055-0.125-0.108-0.246-0.161-0.362
	c-0.06-0.128-0.113-0.249-0.168-0.366c-0.049-0.115-0.099-0.222-0.146-0.326c-0.056-0.115-0.105-0.225-0.154-0.328
	c-0.028-0.055-0.054-0.111-0.078-0.163c-0.067-0.141-0.131-0.27-0.186-0.375c-0.616-0.716-1.292-1.372-2-1.988
	c-1.47-1.682-3.206-3.103-5.139-4.206c-4.304-2.474-9.503-3.359-14.714-2.085c-9.39,2.295-15.6,10.865-15.25,20.161
	c0.036,0.917,1.775,7.041,2.832,8.826H216.575z M294.281,205.004h30.708v-30.258h-30.708V205.004z M232.384,205.004h30.708v-30.258
	h-30.708V205.004z M476.531,76.583H162.524v128.15c6.709-0.915,17.857-1.952,27.469-2.074c0.245-1.545,0.806-3.098,1.726-4.549
	c1.912-3.014,11.884-12.482,19.856-19.845V166.83h-26.513l96.981-67.238l37.228,24.064l34.711-24.064l104.017,67.238h-26.992v58.133
	c0.818,0.06,1.67,0.057,2.567-0.047c1.086-0.131,1.92-0.246,2.566-0.352c3.311-0.544,1.922-0.859,5.711-1.316
	c0.189-0.023,0.381-0.047,0.563-0.062l0.057-0.007c14.654-0.517,17.154,8.771,17.459,15.091c0.238,4.937-2.209,10.387-3.773,12.374
	c-0.424,0.533-0.859,1.046-1.309,1.535c-0.852,0.921-1.764,1.727-2.699,2.463l7.443,17.941h16.94V76.583z M291.736,269.484
	c-1.585,0.895-3.044,1.94-4.382,3.099h-37.523c0.85-1.167,1.474-2.53,1.768-4.046c1.061-5.438-2.433-10.69-7.792-11.736
	c-3.964-0.775-7.6,1.262-12.308,0.373c-1.078-0.208-1.897-0.387-2.539-0.532c-3.263-0.785-1.854-0.995-5.602-1.725
	c-0.188-0.033-0.375-0.076-0.553-0.1l-0.06-0.015c-10.835-1.154-15.354,3.564-17.279,8.64c0,0,0,0.01-0.001,0.021
	c-0.297,0.79-0.537,1.595-0.723,2.385c-0.759,2.117-2.197,4.686-4.527,6.736h-24.042c0.179-9.722,0.267-24.522,0.166-47.375
	c8.053-3.197,17.772-7.536,24.359-11.54c3.045-0.532,5.988-2.421,7.879-5.404c0.726-1.146,1.788-3.726,2.999-7.042v44.324h60.57
	c2.841,5.27,7.184,13.209,7.617,13.317c1.654,1.752,3.69,3.352,6.042,4.511c0.813,0.399,1.652,0.732,2.522,1.015
	c0.506,0.168,1.037,0.315,1.563,0.434c0.22,0.048,0.445,0.082,0.668,0.122l0.145,0.553L291.736,269.484z M231.876,253.64
	c0.008,0.008,0.018,0.016,0.027,0.023C231.893,253.656,231.884,253.648,231.876,253.64z M234.712,256.025
	c0.057,0.051,0.115,0.102,0.172,0.152C234.827,256.127,234.768,256.076,234.712,256.025z M436.596,268.348
	c-2.559,1.278-5.008,2.126-6.996,2.366c-6.34,0.768-6.189-4.811-6.275-11.865c-0.68-0.047-1.289-0.163-1.734-0.349
	c-1.99-0.837-0.078-2.694,0.914-5.052c0.145-0.344,0.324-0.66,0.521-0.955c-0.02-0.208-0.041-0.416-0.066-0.625
	c-0.265-2.187-0.178-4.316,0.199-6.324h-62.577v-5h54.811c-1.429-1.515-2.412-3.486-2.683-5.725
	c-0.664-5.5,3.189-10.498,8.617-11.153c1.605-0.194,3.127,0.057,4.679,0.392V161.83h15.047l-86.974-56.222l-30.267,20.984
	l62.247,40.238h-26.992v78.716h-46.259c-0.036,2.473-0.516,4.957-1.416,7.292c-0.269,0.691-0.567,1.375-0.919,2.016
	c-0.267,0.531-0.549,1.037-0.864,1.537c-0.283,0.452-0.59,0.889-0.908,1.318l0.053,0.087l3.606,3.399
	c8.625-1.936,17.503,0.516,23.883,6.208c0.015,0.008,0.015,0.008,0.018,0.021c1.683,1.497,3.183,3.23,4.466,5.16h94.589
	c0.592-0.511,1.191-0.979,1.803-1.362L436.596,268.348z M299.282,200.004h20.708v-20.258h-20.708V200.004z M524.114,395.533h-40.319
	v45.624h40.319V395.533z M114.983,395.533H74.663v45.624h40.319V395.533z"></path>
</svg>