<?xml version="1.0" standalone="no"?>
<svg version="1.1" id="Layer_1" xmlns="http://www.w3.org/2000/svg" xmlns:xlink="http://www.w3.org/1999/xlink" x="0px" y="0px" width="595.279px" height="595.279px" viewBox="0 0.001 595.279 595.279" enable-background="new 0 0.001 595.279 595.279" xml:space="preserve">
<path id="color_x5F_5" fill="#8b572a" d="M419.775,198.584l-20.211,12.204l-3.139-17.294c-2.559,1.278-5.008,2.126-6.996,2.367
	c-6.339,0.767-6.189-4.811-6.275-11.865c-0.679-0.047-1.289-0.163-1.733-0.349c-1.99-0.837-0.078-2.694,0.913-5.052
	c0.146-0.344,0.324-0.66,0.522-0.955c-0.02-0.208-0.042-0.416-0.067-0.625c-0.351-2.902-0.083-5.706,0.66-8.255l0.115-0.014
	c0.778-0.094,10.572-0.961,9.623-0.557c-1.383,4.328-1.155,8.559,0.743,11.559c0.34-1.295,0.968-2.5,1.918-3.414
	c1.812-1.749,4.977-2.302,7.018-0.565c1.521,1.297,1.523,3.369,0.531,5.013c-0.431,0.719-0.977,1.331-1.614,1.813
	c-0.604,0.466-1.285,0.824-2.008,1.056c1.219,0.225,2.515,0.228,3.854,0.017c2.517-0.38,5.162-1.512,7.625-3.305
	c0.034-0.018,0.059-0.034,0.084-0.058c0.218-0.159,0.426-0.348,0.64-0.517L419.775,198.584z M318.374,281.545
	c-0.154-0.417-0.387-0.795-0.712-1.119c-1.446-1.438-15.917-4.154-19.652-2.166c-2.119,1.132-0.438,8.552-0.438,8.552
	s-0.635,6.828,5.264,7.092c4.208,0.188,7.919-1.236,10.685-3.263c0.414,0.154,0.85,0.302,1.298,0.447
	c0.136,0.044,0.278,0.086,0.417,0.129c0.327,0.101,0.659,0.2,1.002,0.296c0.157,0.044,0.316,0.087,0.477,0.131
	c0.355,0.095,0.72,0.188,1.09,0.279c0.145,0.035,0.286,0.071,0.433,0.105c0.484,0.114,0.979,0.224,1.485,0.33
	c0.029,0.006,0.057,0.013,0.086,0.019v-11.14C319.325,281.337,318.846,281.439,318.374,281.545z M222.339,178.594
	c-0.146-0.344-0.324-0.66-0.522-0.955c0.02-0.208,0.042-0.416,0.067-0.625c1.192-9.876-4.602-18.701-12.944-19.709
	c-8.341-1.009-16.072,6.182-17.266,16.059c-0.238,1.968,0.232,4.005,1.19,6.013l-11.433,27.563l23.677,3.847l3.139-17.294
	c2.558,1.278,5.007,2.126,6.996,2.367c6.339,0.767,6.189-4.811,6.275-11.865c0.679-0.047,1.289-0.163,1.733-0.349
	C225.242,182.809,223.33,180.952,222.339,178.594z M306.663,278.26c-3.734-1.988-18.206,0.729-19.653,2.166
	c-0.325,0.324-0.558,0.702-0.711,1.118c-7.827-1.745-17.121-2.78-17.121-2.78s-24.408-5.661-30.556-4.894
	c-0.11,0.014-0.228,0.025-0.326,0.043c-9.807,1.793-7.693,16.155-3.599,18.192c0.729,0.363,1.645,0.692,2.693,0.992
	c11.588,3.322,41.093,2.795,53.886-2.366c2.751,1.979,6.416,3.357,10.561,3.172c5.9-0.264,5.265-7.092,5.265-7.092
	S308.782,279.391,306.663,278.26z M432.55,294.398c-0.006,0.011-0.012,0.022-0.018,0.033c0-0.013,0-0.025,0-0.038
	c-0.41-0.152-0.843-0.222-1.295-0.188c-0.219,0.017-0.553,0.143-0.965,0.35l-8.002,7.197l-4.835,4.349
	c-0.341,0.567-0.584,1.094-0.688,1.555c-0.406,1.799,3.443,4.321,5.26,5.399c0.551,0.327,0.922,0.526,0.922,0.526
	s4.75,4.945,8.808,0.655c0.236-0.25,0.447-0.512,0.663-0.771c2.431-2.907,3.605-6.313,3.856-9.452
	C436.629,299.367,435.01,295.323,432.55,294.398z"></path>
<path id="color_x5F_4" fill="#c1d34c" d="M403.476,403.282c-12.232-23.256-6.033-86.801,0.58-107.349
	c1.597-4.96,10.115-1.4,18.214,5.818l-4.835,4.349c-0.341,0.567-0.584,1.094-0.688,1.555c-0.406,1.799,3.443,4.321,5.26,5.399
	c0.551,0.327,0.922,0.526,0.922,0.526s4.75,4.945,8.808,0.655c0.236-0.25,0.447-0.512,0.663-0.771
	c2.591,4.001,4.524,8.252,5.251,12.4c1.851,10.56-4.433,42.188-4.433,42.188s-2.776,11.807-6.96,23.08
	c8.879,6.671,27.908,27.871,27.908,27.871l1.168,1.743l-8.695,12.74c-6.269-3.305-12.956-6.993-19.172-10.736
	c-1.817,12.011-4.75,25.691-4.75,25.691l-0.725,1.971l-15.417,0.452c-2.364-16.407-4.385-35.905-2.714-46.767
	c-0.03-0.052-0.067-0.105-0.097-0.157C403.647,403.733,403.555,403.511,403.476,403.282z M135.686,426.512
	c-0.388-14.68-18.227-14.094-26.37,0c-8.145,14.092,0,57.545,0,57.545l5.771,1.049h1.053c-1.182-8.676-1.02-17.514-0.405-26.244
	c0.745-10.613,1.55-21.461,5.345-31.496c0.773-2.045,4.087-1.16,3.305,0.91c-1.557,4.113-2.601,8.375-3.358,12.699
	c-0.674,4.58-1.203,9.178-1.598,13.789c-0.099,1.369-0.187,2.736-0.268,4.098c-0.521,8.766-0.772,17.566,0.448,26.244h9.069
	c0.033-3.203,0.297-9.551,1.579-19.254C132.196,451.173,136.074,441.192,135.686,426.512z M69.785,449.725
	c6.999,7.213,14.723,14.039,22.659,20.209c3.937,3.057,8.062,5.951,11.524,9.469c-1.305-5.391-2.338-10.836-2.896-16.352
	c-7.561-9.072-16.473-18.025-23.628-20.143c-15.606-4.623-28.953,7.227-19.134,18.146c9.545,10.611,18.966,15.244,30.052,24.051
	h15.32c-3.021-3.102-6.072-6.172-9.146-9.221c-2.014-1.533-4.05-3.055-5.974-4.711c-7.206-6.205-14.568-12.191-21.2-19.025
	C65.824,450.563,68.245,448.137,69.785,449.725z M159.835,443.481c-7.155,2.119-17.389,11.07-24.948,20.145
	c-0.694,6.857-1.051,13.602-2.63,20.275c5.229-6.121,11.291-11.393,17.337-16.746c6.598-5.842,12.572-12.305,19.827-17.367
	c1.815-1.268,3.526,1.703,1.729,2.959c-7.544,5.264-13.956,12.094-20.788,18.225c-5.062,4.541-10.167,9.043-14.654,14.135h13.943
	c10.768-8.434,19.985-13.104,29.318-23.479C188.787,450.71,175.441,438.86,159.835,443.481z M528.052,472.668
	c-0.611,0-1.209,0.039-1.802,0.089c1.144-3.104,1.802-6.44,1.802-9.937c0-16.089-13.222-29.133-29.531-29.133
	c-15.437,0-28.089,11.693-29.398,26.584c-3.313-7.331-10.748-12.451-19.408-12.451c-11.736,0-21.251,9.386-21.251,20.963
	c0,1.689,0.223,3.325,0.605,4.898c-3.949-2.837-8.591-4.778-13.632-5.527c-1.508-0.225-3.047-0.354-4.618-0.354
	c-0.518,0-1.031,0.014-1.543,0.038c-15.497,0.747-27.998,12.693-29.396,27.808h168.224c0.146-0.966,0.244-1.949,0.244-2.954
	C548.346,481.635,539.258,472.668,528.052,472.668z M101.036,228.005l192.856,133.608l-67.649,97.647L33.386,325.653
	L101.036,228.005z M104.77,249.21l-49.716,71.395l166.514,116.714l48.117-72.137L104.77,249.21z M59.225,319.865l46.284-66.467
	l160.056,112.554L220.776,433.1L59.225,319.865z M137.966,341.633c0,16.03,12.995,29.025,29.025,29.025
	c16.03,0,29.025-12.995,29.025-29.025c0-16.029-12.995-29.024-29.025-29.024C150.961,312.608,137.966,325.603,137.966,341.633z"></path>
<path id="color_x5F_3" fill="#000000" d="M200.861,472.065c12.897,8.283,22.711,11.381,23.222,11.735c0.006,0.015-0.038,0-0.038,0
	H193.96L200.861,472.065z M215.735,313.057C219.193,321.176,221.25,323.974,215.735,313.057L215.735,313.057z M238.297,273.913
	c0.098-0.018,0.216-0.029,0.326-0.043c-3.08-6.484-6.504-12.113-6.504-12.113s-12.44-27.591-20.896-42.292
	c-15.1-32.939-26.579-19.785-29.639-12.523c-7.994,18.935-9.31,52.11-9.282,77.216c0.015,13.265-8.663,28.897-8.663,28.897h52.094
	c0,0.001,0.001,0.002,0.001,0.003c-4.13-9.697-10.258-26.985-7.868-37.569c0.707-3.13,1.677-5.995,2.772-8.611
	c8.419,13.125,18.652,24.873,26.751,26.22c-1.048-0.3-1.964-0.629-2.693-0.992C230.604,290.068,228.49,275.706,238.297,273.913z
	 M419.759,163.414c-0.306-6.319-2.806-15.608-17.46-15.091l-0.056,0.007c-0.183,0.015-0.373,0.039-0.563,0.062
	c-3.79,0.457-2.4,0.772-5.711,1.316c-0.647,0.106-1.481,0.221-2.567,0.352c-4.755,0.554-8.235-1.732-12.246-1.248
	c-5.427,0.655-9.281,5.653-8.616,11.153c0.66,5.465,5.522,9.377,10.902,8.795l0.007-0.001l0.115-0.014
	c0.778-0.094,10.572-0.961,9.623-0.557c-1.383,4.328-1.155,8.559,0.743,11.559c0.34-1.295,0.968-2.5,1.918-3.414
	c1.812-1.749,4.977-2.302,7.018-0.565c1.521,1.297,1.523,3.369,0.531,5.013c-0.431,0.719-0.977,1.331-1.614,1.813
	c-0.604,0.466-1.285,0.824-2.008,1.056c1.219,0.225,2.515,0.228,3.854,0.017c2.517-0.38,5.162-1.512,7.625-3.305
	c0.034-0.018,0.059-0.034,0.084-0.058c0.218-0.159,0.426-0.348,0.64-0.517c0.935-0.736,1.847-1.542,2.698-2.463
	c0.45-0.489,0.885-1.002,1.31-1.535C417.549,173.801,419.997,168.351,419.759,163.414z"></path>
<path id="color_x5F_2" fill="#417505" d="M314.817,291.087c-0.448-0.145-0.884-0.292-1.298-0.447
	C313.933,290.795,314.37,290.943,314.817,291.087z M315.234,291.216c0.327,0.101,0.659,0.2,1.002,0.296
	C315.893,291.416,315.561,291.317,315.234,291.216z M318.235,292.028c0.484,0.114,0.979,0.224,1.485,0.33
	C319.214,292.252,318.719,292.141,318.235,292.028z M316.713,291.643c0.355,0.095,0.72,0.188,1.09,0.279
	C317.432,291.831,317.068,291.739,316.713,291.643z M386.162,177.382c0.089,0.882,0.592,1.553,1.138,1.494
	c0.538-0.059,0.912-0.823,0.827-1.708c-0.085-0.882-0.591-1.551-1.137-1.492C386.45,175.733,386.074,176.498,386.162,177.382z
	 M206.316,390.764c6.565-21.236,15.403-59.115,9.418-77.71h-52.094c-11.821,25.013,11.5,32.513,11.5,32.513
	s7.788,25.142,15.101,42.733c-1.557-0.04-3.176,0.194-4.832,0.797c-6.876,2.496-32.459,27.615-32.459,27.615l-1.276,1.668
	l-18.605,24.387c0,0,0.004-0.003,0.02-0.005c0.575-0.229,12.48-4.839,26.458-11.12c8.499-3.815,17.766-8.245,25.723-12.678
	c1.806,11.077,4.228,22.378,4.228,22.378l0.725,1.971l10.633,28.771c0,0,0-0.005,0.007-0.02c0.114-0.608,2.597-13.131,4.777-28.3
	c2.825-19.605,5.163-43.634,1.294-52.053C206.776,391.374,206.565,391.059,206.316,390.764z M416.747,307.655
	c0.104-0.461,0.348-0.987,0.688-1.555l-7.731,6.954h12.303C420.19,311.976,416.341,309.454,416.747,307.655z M432.532,294.393
	c0.004-0.618,0.008-1.241,0.011-1.88l-2.271,2.042c0.412-0.208,0.746-0.333,0.965-0.35
	C431.689,294.171,432.122,294.241,432.532,294.393z M473.249,254.514c-3.237-8.017-11.321-18.065-20.507-27.119
	c-10.942-10.786-23.451-20.161-31.213-22.991c-0.905-1.21-1.754-2.721-1.754-5.82l-21.489,5.163
	c-2.702,1.645,1.985,6.904-0.66,9.866c-3.393,3.797-6.581,8.74-9.178,14.959c-6.896,11.938-15.894,33.184-15.894,33.184
	s-3.425,5.629-6.505,12.113c-6.147-0.768-30.556,4.894-30.556,4.894s-8.204,0.914-15.688,2.473v11.14
	c12.978,2.689,33.076,2.718,45.053,0.806c10.613-1.208,16.239-5.234,25.562-13.868c1.862,10.427,3.784,20.466,5.025,26.84
	l36.885-33.176c-0.224-8.401-0.649-17.364-1.393-26.095c7.055,3.706,15.254,8.197,18.864,10.38c1.093,0.661,2.28,1.362,3.531,2.071
	c-5.21,7.994-15.249,25.473-18.624,31.229c-0.743,1.267-1.475,2.561-2.16,3.834c2.46,0.925,4.079,4.969,3.706,9.615
	c11.243-6.16,37.373-39.237,38.012-39.979C476.472,261.473,473.5,254.763,473.249,254.514z M217.682,175.676
	c-0.546-0.059-1.052,0.61-1.137,1.492c-0.085,0.886,0.289,1.649,0.827,1.708c0.546,0.059,1.049-0.612,1.138-1.494
	C218.598,176.498,218.222,175.733,217.682,175.676z M223.516,148.813c-4.011-0.485-7.491,1.801-12.246,1.248
	c-1.086-0.131-1.92-0.246-2.567-0.352c-3.311-0.544-1.921-0.859-5.711-1.316c-0.189-0.023-0.38-0.047-0.563-0.062l-0.056-0.007
	c-10.893-0.384-15.068,4.649-16.62,9.854l-0.001-0.002c0,0-0.001,0.01-0.002,0.014c-0.242,0.813-0.42,1.63-0.549,2.432
	c-1.08,3.863-4.008,10.946-10.979,10.946c-9.583,0-21.083,0-28.083,9.5s-0.999,26.782-11.188,29.721
	c-19.188,5.534-44.478,17.217-40.812,37.779c4.84,27.146,23,32.898,36.5,26.199s28.342-2.608,35,3.591s25.945,5.247,25.973-12.271
	s-6.327-20.792-5.15-27.655s17.095-1.787,21.868-13.65s-5.69-18.423-8.44-28.849c-1.948-7.386,5.007-12.281,5.007-12.281
	l-4.27-5.681c0.102-0.82,0.469-1.595,1.179-2.2c2.041-1.737,5.206-1.183,7.018,0.565c0.95,0.914,1.578,2.119,1.918,3.414
	c1.898-3,2.126-7.231,0.743-11.559c-0.949-0.404,8.845,0.462,9.623,0.557l0.122,0.015c5.38,0.582,10.242-3.33,10.902-8.795
	C232.798,154.467,228.943,149.469,223.516,148.813z"></path>
<path id="color_x5F_1" fill="#ea9a52" d="M319.806,292.377c-0.029-0.006-0.057-0.013-0.086-0.019
	C319.75,292.364,319.777,292.37,319.806,292.377L319.806,292.377z M432.532,294.431c0.006-0.011,0.012-0.022,0.018-0.033
	c-0.006-0.002-0.012-0.003-0.018-0.005C432.532,294.406,432.532,294.418,432.532,294.431z M409.275,467.839
	c0.512-0.024,1.025-0.038,1.543-0.038c1.571,0,3.11,0.129,4.618,0.354l6.556-17.74l-15.417,0.452
	C407.488,457.216,408.453,463.096,409.275,467.839z M446.638,433.488c13.555,7.15,25.145,12.502,25.706,12.766
	c0.014,0.005,0.018,0.007,0.018,0.007l-17.028-25.513L446.638,433.488z M550.57,264.195c-17.305,17.305-50.268,12.814-76.031-9.456
	l-0.599,0.539c-0.214-0.258-0.44-0.514-0.691-0.764c-3.237-8.017-11.321-18.065-20.507-27.119
	c-11.341-21.826-11.205-45.061,2.381-58.647c18.485-18.485,54.836-12.104,81.193,14.253
	C562.674,209.359,569.055,245.711,550.57,264.195z M525.535,193.783c-17.867-17.867-42.508-22.192-55.039-9.662
	c-12.529,12.53-8.204,37.171,9.662,55.038c17.868,17.868,42.509,22.193,55.039,9.663S543.402,211.651,525.535,193.783z
	 M449.802,257.263l-17.472,15.715l-36.885,33.176l-83.96,75.517l9.711,10.99l14.966-13.461l15.195,16.694l-6.516,5.931l7.111,7.813
	l9.017-8.206l-4.726-5.191l18.63-16.956l4.405,4.84l9.017-8.206l-7.111-7.813l-5.682,5.172l-14.744-16.199l48.944-44.022
	l12.683-11.407l7.886-7.092l-0.001,0l2.271-2.043l2.167-1.949c3.375-5.757,6.933-10.937,6.933-10.937s6.481-12.299,11.691-20.292
	C452.083,258.625,450.895,257.925,449.802,257.263z M296.615,256.354v-44.3h-21.38v44.3h-17.18v-54.43h-17.93l62.08-54.58
	l11.26,9.763v-9.763h18.077v25.436l33.613,29.144h-17.931v54.43H296.615z M313.465,236.794h16.99v-15.96h-16.99V236.794z"></path>
</svg>