<?xml version="1.0" standalone="no"?>
<svg version="1.1" id="Layer_1" xmlns="http://www.w3.org/2000/svg" xmlns:xlink="http://www.w3.org/1999/xlink" x="0px" y="0px" viewBox="0 0 595.28 595.28" enable-background="new 0 0 595.28 595.28" xml:space="preserve">
<path id="color_x5F_9" fill="#E4F2F3" d="M455.871,449.12c-3.543-0.936-7.795-0.228-7.795-0.936c0-0.709,0.255-1.645-1.162-4.252
	c-1.417-2.58-6.151,0.708-11.339-0.454c-5.187-1.19-3.515-1.417-5.187-6.15c-1.644-4.706-9.184,0.255-12.501-0.454
	c-1.791-0.386-3.39-0.283-6.179-0.147c-2.331,0.114-5.492,0.251-10.319,0.147c-1.053-0.025-1.959-0.055-2.749-0.091
	c-7.166-0.321-4.389-1.107-7.172-3.225c-3.061-2.353-3.515-5.188-0.68-10.602c2.806-5.442-8.504-8.504-16.299-7.087
	c-7.767,1.418-2.806,3.543-4.932,6.151c-2.126,2.579-3.317,4.224-5.669,4.224c-2.353,0-1.191,0.482-3.543,5.188
	c-2.353,4.734-3.061,2.607-6.605,4.025c-3.543,1.417-5.187,11.083-5.187,11.083l0.17,0.284c1.417-0.256,3.43-0.794,6.123-1.475
	c6.293-1.559,2.523-2.522,7.228-4.394c4.734-1.899,4.082,1.247,13.521,4.082c3.836,1.152,4.713,1.939,4.677,2.657
	c-0.033,0.663-0.844,1.267-0.826,2.047c0.01,0.455,0.302,0.969,1.195,1.589c2.553,1.773,2.888,1.938,2.865,2.659
	c-0.009,0.288-0.076,0.664-0.082,1.266c-0.003,0.302,0.01,0.66,0.052,1.092c0.312,3.487,1.871,3.799,3.77,3.146
	c1.105-0.368,3.912,2.211,5.981,4.365h5.413h13.068h28.015h27.01c-2.443-2.638-5.142-7.751-7.002-14.428
	C458.37,449.444,457.022,449.433,455.871,449.12z"></path>
<path id="color_x5F_8" fill="#9b9b9b" d="M411.708,360.14v76.587c-2.331,0.114-5.492,0.251-10.319,0.147
	c-1.053-0.025-1.959-0.055-2.749-0.091V360.14H411.708z M156.958,456.461l-3.742-3.571c0.057,0-0.028-0.029-0.199-0.029v-51.137
	h-5.783v51.166l-3.713,3.571v5.387l1.084,2.012l2.885,5.357h2.183h1.105h2.183l2.906-5.357l1.091-2.012L156.958,456.461
	L156.958,456.461z M257.589,421.369c0.007-0.007,1.949-1.961,4.233-2.176c0.11-0.01,0.221-0.007,0.332-0.009
	c0.082-0.001,0.163-0.01,0.245-0.007c0.583,0.025,1.18,0.179,1.765,0.519c1.364,0.793,2.821,0.99,4.027,0.96
	c1.552-0.038,2.691-0.45,2.691-0.45c-0.085-0.028-0.142-0.028-0.198-0.028V360.14h-1.559h-11.537v46.063v15.16L257.589,421.369
	L257.589,421.369z M150.241,262.062c9.439,1.276,17.858-9.95,17.858-9.95l0.169-0.31l0.001-0.002
	c-0.099-0.022-0.182-0.038-0.278-0.058c-3.222-0.692-4.782-0.789-4.841-0.792c-0.001,0-0.012-0.001-0.012-0.001l0,0
	c-0.021,0.144-0.072,0.293-0.136,0.445c-0.015,0.034-0.031,0.069-0.048,0.104c-0.068,0.141-0.149,0.284-0.251,0.43
	c-0.008,0.012-0.014,0.023-0.022,0.035c-0.114,0.161-0.251,0.325-0.402,0.49c-0.027,0.03-0.056,0.059-0.084,0.089
	c-0.14,0.148-0.292,0.297-0.458,0.447c-0.015,0.013-0.028,0.026-0.043,0.039c-0.008,0.007-0.015,0.014-0.023,0.021
	c-0.191,0.169-0.398,0.339-0.618,0.509c-0.027,0.021-0.056,0.041-0.083,0.062c-0.202,0.154-0.415,0.307-0.638,0.46
	c-0.047,0.032-0.092,0.064-0.14,0.096c-1.338,0.9-2.994,1.767-4.687,2.475c-0.065,0.027-0.13,0.051-0.195,0.078
	c-0.065,0.026-0.129,0.049-0.193,0.075c-0.318,0.128-0.636,0.252-0.953,0.367c-0.487,0.177-0.969,0.337-1.442,0.479
	c-0.281,0.084-0.556,0.159-0.828,0.23c-0.123,0.032-0.245,0.064-0.366,0.092c-0.315,0.075-0.625,0.142-0.922,0.195
	c-0.017,0.003-0.037,0.008-0.054,0.011h-0.001c-0.019-0.003-0.039-0.009-0.059-0.013c-0.232-0.042-0.468-0.094-0.705-0.152
	c-0.199-0.05-0.399-0.106-0.6-0.167c-0.047-0.014-0.093-0.027-0.14-0.041c-3.614-1.112-7.467-3.87-8.939-6.108
	c-0.329-0.5-0.551-0.976-0.611-1.399h-0.002c-0.01,0.001-1.424,0.201-4.023,0.765C136.72,253.133,142.049,260.957,150.241,262.062z"></path>
<path id="color_x5F_7" d="M256.851,318.16l-14.4,41.981h-11.679V318.16H256.851z M168.098,401.724L168.098,401.724l0.001-51.364
	h-0.001H164.3l13.408-24.491h-2.721L161.55,350.36h-9.807h-0.001l13.408-24.491h-2.721l-13.408,24.491h-10.828l13.408-24.491h-2.721
	l-13.408,24.491l0,0h-0.001h-2.805v0.397v50.967h10.545h4.023h5.783h7.087h0.001H168.098z M178.303,345.57L178.303,345.57h1.417
	h2.523h0.374l0,0c0.003-0.024,0.006-0.048,0.009-0.072c0.014-0.106,0.027-0.209,0.042-0.324c0.312-2.58,0.709-5.698,0.709-5.698
	s0.163-0.147,0.427-0.362c0.045-0.037,0.089-0.072,0.141-0.113c0.051-0.04,0.108-0.084,0.165-0.128
	c0.073-0.056,0.153-0.116,0.236-0.177c0.046-0.034,0.084-0.064,0.133-0.1h-3.635h-2.54h-0.001V345.57z M198.955,339.253
	c0.042,0.11,0.087,0.226,0.134,0.348c0.032,0.085,0.064,0.169,0.098,0.26c0.067,0.177,0.136,0.365,0.209,0.563
	c0.026,0.072,0.052,0.142,0.079,0.216c0.084,0.231,0.17,0.472,0.258,0.724c0.017,0.047,0.033,0.095,0.049,0.143
	c0.097,0.28,0.196,0.569,0.295,0.867c0.007,0.022,0.014,0.044,0.022,0.066c0.216,0.654,0.431,1.343,0.63,2.04
	c0.002,0.006,0.003,0.012,0.005,0.018c0.096,0.336,0.187,0.674,0.273,1.01c0.005,0.021,0.011,0.041,0.017,0.062h13.818v-6.974
	h-16.144c0.026,0.065,0.062,0.158,0.093,0.236c0.01,0.025,0.019,0.049,0.03,0.075C198.863,339.015,198.906,339.126,198.955,339.253z
	 M339.538,318.16l-14.372,41.981h33.761l14.4-41.981H339.538z M270.684,360.141L270.684,360.141h27.808v-0.001l14.4-41.98l0,0
	h-29.367l-14.4,41.981L270.684,360.141L270.684,360.141z M413.947,360.14l14.372-41.981h-28.318v0.001l-14.4,41.98l0,0h13.039
	h13.068L413.947,360.14L413.947,360.14z M101.273,338.596h-0.002H87.396v6.974h11.567h0.001
	C99.686,342.703,100.831,339.709,101.273,338.596z M151.176,314.9h-2.778c-5.953,0-10.772,4.819-10.772,10.771h24.293
	C161.919,319.719,157.128,314.899,151.176,314.9z M124.104,347.498c0.303,0.152,0.621,0.302,0.945,0.448
	c0.034,0.016,0.066,0.032,0.101,0.048c0.038,0.017,0.078,0.032,0.117,0.049c0.272,0.12,0.552,0.233,0.834,0.342
	c0.063,0.024,0.123,0.053,0.187,0.077l0.002-0.004l12.385-22.588h-2.72h-0.001l0,0L124.104,347.498L124.104,347.498z
	 M121.383,345.57L121.383,345.57h2.552v-6.974h-3.674h-4.75c0.051,0.037,0.09,0.068,0.138,0.103c0.082,0.06,0.163,0.12,0.236,0.176
	c0.053,0.04,0.107,0.081,0.155,0.119c0.082,0.065,0.157,0.125,0.223,0.179c0.067,0.055,0.123,0.102,0.172,0.143
	c0.019,0.016,0.041,0.035,0.057,0.048c0.076,0.066,0.129,0.112,0.129,0.112s0.397,3.118,0.709,5.698
	c0.017,0.141,0.032,0.263,0.048,0.396h1.992h0.001L121.383,345.57L121.383,345.57z"></path>
<path id="color_x5F_6" fill="#FEBE40" d="M312.892,318.16L312.892,318.16L312.892,318.16l26.646-0.001l-14.372,41.981h-26.674
	L312.892,318.16z M283.525,318.16h-26.674l-14.4,41.981h15.137h11.537L283.525,318.16z M149.021,350.36l13.408-24.491h-10.828
	l-13.408,24.491H149.021z M174.986,325.869h-9.835l-13.408,24.491h9.807L174.986,325.869z M148.879,325.869h-10.204l-12.385,22.589
	c0.084,0.033,0.169,0.065,0.254,0.097c0.205,0.077,0.41,0.153,0.615,0.226c0.044,0.016,0.088,0.032,0.132,0.047
	c0.282,0.099,0.563,0.195,0.841,0.286c0.139,0.046,0.274,0.088,0.411,0.132c0.154,0.049,0.308,0.099,0.459,0.146
	c0.135,0.042,0.266,0.081,0.398,0.12c0.15,0.045,0.299,0.09,0.444,0.132c0.121,0.035,0.238,0.068,0.355,0.101
	c0.151,0.043,0.299,0.084,0.443,0.123c0.099,0.027,0.198,0.054,0.293,0.079c0.155,0.041,0.303,0.079,0.446,0.115
	c0.075,0.019,0.153,0.039,0.224,0.057c0.164,0.04,0.315,0.076,0.459,0.109c0.039,0.009,0.082,0.02,0.119,0.028
	c0.181,0.041,0.345,0.076,0.484,0.103h2.805L148.879,325.869z M400.001,318.16h-26.674l-14.4,41.981h26.674v-0.001l0,0
	L400.001,318.16z M413.947,360.141h26.646V318.16h-12.274L413.947,360.141z M123.935,347.426c0.029,0.015,0.057,0.03,0.087,0.044
	l0.08,0.027l0.002,0.001l11.849-21.629h-12.018v12.727v6.974C123.935,345.57,123.935,347.426,123.935,347.426z M169.108,350.17
	c0.124-0.025,0.26-0.055,0.388-0.083c0.242-0.051,0.487-0.104,0.745-0.163c0.18-0.041,0.367-0.088,0.553-0.133
	c0.219-0.053,0.441-0.109,0.666-0.167c0.218-0.057,0.439-0.117,0.662-0.179c0.2-0.056,0.402-0.114,0.604-0.174
	c0.243-0.072,0.487-0.145,0.73-0.222c0.185-0.059,0.368-0.122,0.552-0.184c0.255-0.086,0.51-0.172,0.761-0.264
	c0.164-0.06,0.322-0.126,0.484-0.189c0.649-0.253,1.279-0.522,1.852-0.817c0.067-0.035,0.133-0.07,0.198-0.106
	c0.304-0.162,0.589-0.331,0.857-0.506c0.047-0.031,0.095-0.061,0.14-0.092v-1.323v-6.973v-12.728h-0.594L164.3,350.36h3.798
	C168.405,350.307,168.748,350.242,169.108,350.17z M174.611,348.665c-0.031,0.011-0.061,0.021-0.092,0.032
	C174.549,348.686,174.58,348.676,174.611,348.665z M175.973,348.13c-0.068,0.029-0.14,0.055-0.208,0.084
	C175.833,348.185,175.906,348.159,175.973,348.13z M177.103,347.598c0.001-0.001,0.002-0.001,0.004-0.002
	c-0.021,0.011-0.046,0.021-0.067,0.032C177.06,347.618,177.083,347.609,177.103,347.598z"></path>
<path id="color_x5F_5" fill="#8b572a" d="M116.435,339.315c0.019,0.016,0.041,0.035,0.057,0.048c0.081,0.07,0.128,0.112,0.128,0.112
	s0.397,3.118,0.709,5.698c0.312,2.579,0.482,3.797-0.113,4.733c-0.566,0.964-1.275,1.049-5.387,1.73
	c-4.111,0.68-2.948,0.198-7.087,0.708s-3.855,1.36-5.896-0.851c-0.834-0.917-0.527-3.368,0.117-5.924h0.001
	c0.722-2.867,1.867-5.861,2.309-6.974h-0.002c0.114-0.288,0.183-0.453,0.183-0.453l-16.469-32.938l9.383-14.372l9.232,7.344
	l3.236,2.583l-4.616,6.004l8.079,29.82c2.082-0.019,4.172,1.252,5.35,2.115c0.082,0.06,0.163,0.12,0.236,0.176
	c0.053,0.04,0.107,0.081,0.155,0.119c0.082,0.065,0.157,0.125,0.223,0.179C116.33,339.227,116.387,339.274,116.435,339.315z
	 M149.048,257.805c0.047,0.014,0.093,0.028,0.14,0.041c0.201,0.06,0.401,0.117,0.6,0.167c0.237,0.058,0.473,0.111,0.705,0.152
	c0.02,0.004,0.04,0.009,0.059,0.013c0.018-0.003,0.037-0.008,0.054-0.011c0.297-0.053,0.607-0.12,0.922-0.195
	c0.056-0.014,0.112-0.027,0.169-0.041c0.065-0.016,0.132-0.035,0.197-0.052c0.272-0.07,0.547-0.145,0.828-0.23
	c0.084-0.026,0.168-0.052,0.253-0.078c0.392-0.122,0.789-0.256,1.189-0.401c0.317-0.115,0.635-0.239,0.953-0.367
	c0.446-0.18,0.89-0.37,1.329-0.57c0.022-0.01,0.045-0.02,0.068-0.03c0.471-0.217,0.936-0.444,1.387-0.678
	c0.081-0.042,0.162-0.085,0.242-0.128c0.174-0.093,0.347-0.186,0.517-0.282c0.198-0.111,0.391-0.224,0.581-0.337
	c0.072-0.043,0.146-0.086,0.217-0.129c0.254-0.156,0.5-0.314,0.736-0.472c0.048-0.032,0.093-0.064,0.14-0.096
	c0.223-0.153,0.436-0.306,0.638-0.46c0.027-0.021,0.056-0.041,0.083-0.062c0.22-0.17,0.427-0.34,0.618-0.509
	c0.008-0.007,0.015-0.014,0.023-0.021c0.058-2.657,0.341-5.31,1.133-5.82c1.616-0.992,2.92-1.928,3.231-5.612
	c0.312-3.714,2.013-5.244,3.232-6.095c1.247-0.851,3.005-2.778,2.778-5.782c-0.229-3.006-1.93-3.997-3.234-3.374
	c-0.51,0.228-0.709,0.539-0.822,0.879c0,0.113-0.028,0.17-0.028,0.255c-0.028,0.511-0.057,0.822-0.057,0.822s0-0.198,0.057-0.822
	c0-0.011,0-0.019,0-0.029c0-0.069,0-0.124,0-0.198c0,0.028-0.028,0.057-0.028,0.057l0.028-0.51
	c-0.008-0.333-0.035-0.703-0.085-1.089c-0.012-0.088-0.025-0.176-0.04-0.265c-0.022-0.137-0.046-0.276-0.076-0.416
	c-0.055-0.255-0.116-0.512-0.2-0.769c-0.007-0.021-0.014-0.042-0.021-0.063c-0.051-0.152-0.109-0.304-0.172-0.454
	c-0.026-0.062-0.056-0.123-0.085-0.185c-0.056-0.122-0.113-0.244-0.178-0.362c-0.101-0.183-0.209-0.364-0.335-0.536
	c-0.953-1.314-1.047-0.826-2.336,0.133c-0.935,0.697-2.495,1.641-5.488,2.333c-7.087,1.644-7.994-1.757-15.08-3.175
	c-7.115-1.445-8.646,1.645-9.042,3.686c-0.425,2.068-0.737,2.353-0.737,2.353s-0.057-0.397-0.142-0.936
	c-0.113-0.255-0.312-0.538-0.737-0.709c-1.304-0.623-3.005,0.368-3.231,3.374c-0.227,3.004,1.531,4.932,2.778,5.782
	c1.247,0.851,2.92,2.381,3.232,6.095c0.312,3.685,1.616,4.62,3.232,5.612c0.679,0.407,0.966,2.352,1.089,4.508
	c0.005,0.094,0.012,0.187,0.017,0.282C141.955,254.172,145.604,256.732,149.048,257.805z M197.749,306.766l-8.079,29.82
	c-2.08-0.018-4.153,1.248-5.324,2.111c-0.083,0.061-0.163,0.121-0.236,0.177c-0.057,0.044-0.114,0.088-0.165,0.128
	c-0.052,0.041-0.096,0.077-0.141,0.113c-0.269,0.219-0.427,0.364-0.427,0.364s-0.397,3.118-0.709,5.698
	c-0.015,0.115-0.027,0.213-0.042,0.322c-0.003,0.024-0.006,0.048-0.009,0.072l0,0c-0.088,0.675-0.157,1.253-0.199,1.751l0.234,2.34
	c0.04,0.084,0.078,0.169,0.128,0.248c0.567,0.963,1.276,1.048,5.386,1.729c4.111,0.68,2.948,0.198,7.087,0.708
	c4.138,0.51,3.855,1.36,5.896-0.851c0.841-0.924,0.518-3.408-0.143-5.987c-0.086-0.336-0.177-0.674-0.273-1.01
	c-0.002-0.006-0.003-0.012-0.005-0.018c-0.199-0.697-0.415-1.387-0.63-2.04c-0.007-0.022-0.014-0.044-0.022-0.066
	c-0.099-0.299-0.198-0.587-0.295-0.867c-0.017-0.048-0.033-0.095-0.049-0.143c-0.088-0.252-0.174-0.492-0.258-0.724
	c-0.027-0.074-0.053-0.145-0.079-0.216c-0.072-0.198-0.142-0.385-0.209-0.563c-0.034-0.091-0.066-0.174-0.098-0.26
	c-0.047-0.123-0.091-0.239-0.134-0.348c-0.049-0.127-0.092-0.239-0.135-0.346c-0.01-0.026-0.02-0.05-0.03-0.075
	c-0.171-0.433-0.277-0.688-0.277-0.688l16.47-32.937l-8.986-13.805l-4.507,3.591l-7.904,6.309L197.749,306.766z"></path>
<path id="color_x5F_4" fill="#c1d34c" d="M111.944,304.837l0.001-0.001l0,0c0,0,0.036-0.064,0.089-0.157
	c0.896-1.576,8.327-14.559,9.605-13.76c1.233,0.771-0.958,37.629-1.378,47.677h-4.75c0.051,0.037,0.09,0.068,0.138,0.103
	c-1.179-0.863-3.268-2.133-5.35-2.115l-8.079-29.82l4.616-6.004L111.944,304.837z M184.346,338.697
	c1.171-0.863,3.244-2.129,5.324-2.111l8.079-29.82l-4.162-5.464l-4.427,3.534v-0.001l-0.001,0.001c0,0-0.058-0.103-0.151-0.267
	c-1.118-1.962-8.289-14.435-9.542-13.651c-1.234,0.772,0.958,37.634,1.378,47.679h3.635
	C184.43,338.632,184.393,338.662,184.346,338.697z M206.444,285.282c-3.291-5.635-9.75-16.046-16.307-23.012
	c13.427,4.285,27.487,9.772,42.081,16.432c36.329,16.568,70.197,1.332,102.168-22.148c1.403,0.975,3.328,1.568,6.087,1.511
	c5.499-0.113,6.35-0.142,10.715,6.548c4.394,6.69,5.046-3.062,21.26,1.247c16.186,4.338,2.636,4.621,9.241,16.356
	s7.71,4.507,20.976,10.177c13.294,5.641,3.912,4.139,12.586,12.443c8.646,8.306-1.616,4.281,19.644,6.379
	c21.232,2.097,20.069,6.377,23.074,9.269c0.652,0.624,1.021,0.567,1.162,0c5.471,9.837,11.452,23.471,17.348,42.321h-9.07
	c0,0,7.143,7.313,8.164,17.972c1.021,10.63-15.789,24.604-17.83,45.241c-0.86,8.74,0.156,16.832,1.988,23.412
	c-1.361,0.014-2.709,0.003-3.86-0.31c-3.543-0.936-7.795-0.228-7.795-0.936c0-0.709,0.255-1.645-1.162-4.252
	c-1.417-2.58-6.151,0.708-11.339-0.454c-5.187-1.19-3.515-1.417-5.187-6.15c-1.644-4.706-9.184,0.255-12.501-0.454
	c-1.791-0.386-3.39-0.283-6.179-0.147V360.14h2.239l14.372-41.981h-28.318v0.001h-26.674h-33.789l-14.372,41.981h33.761h26.674
	v-0.001h13.039v76.643c-7.166-0.321-4.389-1.107-7.172-3.225c-3.061-2.353-3.515-5.188-0.68-10.602
	c2.806-5.442-8.504-8.504-16.299-7.087c-7.767,1.418-2.806,3.543-4.932,6.151c-2.126,2.579-3.317,4.224-5.669,4.224
	c-2.353,0-1.191,0.482-3.543,5.188c-2.353,4.734-3.061,2.607-6.605,4.025c-3.543,1.417-5.187,11.083-5.187,11.083l0.17,0.284
	c1.417-0.256,3.43-0.794,6.123-1.475c6.293-1.559,2.523-2.522,7.228-4.394c4.734-1.899,4.082,1.247,13.521,4.082
	c3.836,1.152,4.713,1.939,4.677,2.657c0.034-0.718-0.845-1.504-4.677-2.655c-9.439-2.835-8.787-5.981-13.521-4.082
	c-4.705,1.872-0.935,2.835-7.228,4.394c-6.293,1.588-9.128,2.524-8.476,0.312c0.624-2.183,5.953-3.77,0.312-3.77
	c-5.669,0-10.063-0.312-8.192-2.835c1.899-2.494,0.935,0.312,2.211-6.293c1.247-6.604,3.458-8.164,0.312-9.411
	c-3.147-1.276-5.046-3.77-4.706-7.228c0.311-3.487-1.276-10.403-2.835-10.403c-1.587,0-5.669,1.276-5.981,3.798
	c-0.312,2.495-1.588,7.853-2.835,8.476c-1.247,0.624-2.834,0.311-3.146,1.899c-0.312,1.558-1.247,5.64-2.211,5.953
	c-0.935,0.312-5.017-1.559-7.54,0.312c-2.495,1.899-1.871,2.835-6.605,4.11c-4.706,1.247-7.229-3.147-10.375-2.835
	c-3.147,0.311-1.248,3.458-4.394,4.082c-3.146,0.624-3.458,0.312-5.981-4.082c-2.523-4.394-0.312-5.669-4.082-5.669
	s-5.669-0.936-9.439-1.56c0,0-1.14,0.412-2.692,0.45c1.552-0.038,2.691-0.45,2.691-0.45c-0.085-0.028-0.142-0.028-0.198-0.028
	v-60.038l0,0h27.808v-0.001h26.674l14.372-41.981h-26.646v0.001h-29.367h-26.674h-26.079v41.981h11.679h15.137v46.063v15.16
	c-1.358-6.601,1.275-9.038-2.749-9.661c-4.082-0.623-7.228-3.147-9.099-1.559c-1.9,1.558,2.494,4.082-2.835,5.981
	c-5.358,1.87-5.67-0.341-9.128-0.965c-3.459-0.623-3.147-5.016-8.476-3.146c-5.358,1.9-5.669-0.934-6.945,2.212
	c-1.247,3.147-3.459,3.147-5.953,3.77c-2.523,0.624-5.981-0.623-6.605,0.624c-0.624,1.275-0.312,4.733-2.211,5.045
	c-1.871,0.313-2.834-1.898-5.669,0.313c-2.806,2.183,8.504,3.458-4.082,5.669c-1.124,0.195-2.146,0.358-3.124,0.507l-4.311-43.06
	h2.355l-1.933-25.125h-2.938l-1.232-12.308c0.04,0.084,0.078,0.169,0.128,0.248c0.567,0.963,1.276,1.048,5.386,1.729
	c4.111,0.68,2.948,0.198,7.087,0.708c4.138,0.51,3.855,1.36,5.896-0.851c0.841-0.924,0.518-3.408-0.143-5.987
	c0.005,0.021,0.011,0.041,0.017,0.062h13.818v-6.974h-16.144c0.026,0.065,0.062,0.158,0.093,0.236
	c-0.171-0.433-0.277-0.688-0.277-0.688l16.47-32.937l-8.986-13.805l-4.507,3.591l7.2-5.747c0,0-0.185-0.343-0.514-0.932
	c-0.561-1.02-1.14-2.038-1.726-3.037L206.444,285.282z M428.319,318.16l-14.372,41.981h26.646V318.16H428.319z M534.929,278.104
	c1.002-1.148,1.512-2.431,1.737-3.811c9.02,58.678-6.968,122.654-23.96,147.161c-1.502,2.165-3.121,4.22-4.823,6.188
	c-0.039-0.539-0.083-1.08-0.136-1.624c-2.041-20.637-18.85-34.611-17.83-45.241c1.021-10.658,8.135-17.972,8.135-17.972h-13.294
	h-4.025h-2.467c-6.803-21.826-13.691-36.822-19.843-47.055c-0.878-3.232-2.465-7.229-4.138-9.609c0,0-3.827-3.26-10.006-8.107
	c-0.709-0.624-1.389-1.134-2.013-1.588c-17.178-13.436-48.898-36.566-69.194-41.188c-13.475-3.069-23.702-4.465-30.66-4.787
	c53.368-41.642,101.476-101.092,147.023-65.483c20.289,15.855,33.263,37.632,40.876,61.725
	c-9.618,13.962-17.078,30.074-22.423,43.808c-7.937,19.36-18.397,48.671-20.126,72.283h1.701c0.935-12.784,4.479-27.27,8.787-40.932
	c3.26-0.256,18.567-1.843,23.102-8.136c5.102-7.059-4.791-13.578-2.239-22.904C521.635,281.506,529.288,284.624,534.929,278.104z
	 M488.697,299.564c0.34-7.229-0.539-17.575-2.976-28.518c-0.34-2.098-0.595-3.288-0.624-3.373l-0.17,0.028
	c-3.09-12.444-8.22-25.313-15.874-34.923c-20.041-25.115-40.309-31.605-40.309-31.605s-4.054,6.746,6.038,12.528
	c10.12,5.783,15.676,13.748,15.591,20.552c-0.085,6.774-8.759,20.806,0.709,31.662c9.496,10.857,4.365,13.068,6.406,31.748
	c2.013,18.681,22.961,15.563,28.687,11.68c0.397-0.284,0.765-0.794,1.105-1.531c0.255,16.215-0.992,35.688-5.953,54.992h1.758
	C488.839,340.071,489.547,317.195,488.697,299.564z M111.179,454.052c0.567-1.417,1.928-1.162,1.928-1.162s0.539-0.34,0.907-0.255
	c0.215,0.035-0.109,2.44,1.366,4.01c-0.482-0.52-0.768-1.129-0.942-1.715l0.085-0.822c-0.028-0.481-0.113-0.821-0.113-0.821
	l0.227-0.086l2.13-16.819l-4.058,0.067l3.617-49.355h-3.17l2.355-25.125h2.657l1.202-16.399h-1.992
	c-0.016-0.133-0.031-0.255-0.048-0.396c-0.312-2.58-0.709-5.698-0.709-5.698s-0.053-0.047-0.129-0.112
	c0.081,0.07,0.128,0.112,0.128,0.112s0.397,3.118,0.709,5.698c0.312,2.579,0.482,3.797-0.113,4.733
	c-0.566,0.964-1.275,1.049-5.387,1.73c-4.111,0.68-2.948,0.198-7.087,0.708s-3.855,1.36-5.896-0.851
	c-0.834-0.917-0.527-3.368,0.117-5.924H87.396v-6.974h13.875c0.114-0.288,0.183-0.453,0.183-0.453l-16.469-32.938l9.383-14.372
	l9.232,7.344l-11.187-8.93c0,0,0.015-0.027,0.021-0.039c0.104-0.196,1.15-2.158,2.871-5.036l0.006,0.005
	c5.117-8.634,16.011-25.559,24.371-28.493c6.398-2.246,11.337-3.59,14.685-4.374c-49.501-2.41-83.508,19.88-92.722,70.79
	c-12.124,66.875,41.928,122.283,59.806,138.544c2.641-0.337,5.268-0.739,6.525-1.603C110.215,457.483,110.64,455.47,111.179,454.052
	z M143.521,456.461l3.713-3.571v-51.166h-4.023h-10.545v-50.967h-0.001v-0.397h0.001c-0.139-0.027-0.304-0.062-0.484-0.103
	c0.18,0.04,0.344,0.076,0.483,0.103h-0.001v51.365h10.545l-8.05,34.355l-4.005,0.066l-4.555,17.878l0.113,0.567
	c-0.017,0.118-0.055,0.261-0.118,0.418c0.189-0.445,0.147-0.759,0.147-0.759s2.069,1.021,2.014,2.693
	c-0.049,0.991-0.761,4.311-1.348,6.917h17.198l-1.084-2.012L143.521,456.461L143.521,456.461z M161.607,463.86L161.607,463.86
	l-2.665-1.843c0,0,0-0.936,3.146-5.329c3.146-4.423-0.964-2.835,0-6.604c0.935-3.799,3.458-0.964,6.605-3.146
	c3.146-2.211,1.871-4.11,3.458-5.357c0.505-0.404,1.112-0.672,1.732-0.9l-1.085-4.232h-3.595l-9.099-34.725h-7.087v51.137
	c0.171,0,0.256,0.029,0.199,0.029l3.742,3.571v5.387l-1.091,2.012h20.627l0,0H161.607z"></path>
<path id="color_x5F_3" fill="#417505" d="M177.226,454.845c0.032,0.179,0.106,0.415,0.258,0.677
	c-0.342-0.579-0.288-1.016-0.288-1.016s-2.041,1.021-1.984,2.692c0.032,0.958,0.702,4.099,1.281,6.662h-14.886v-0.001l-2.665-1.842
	c0,0,0-0.936,3.146-5.329c3.146-4.423-0.964-2.835,0-6.604c0.935-3.799,3.458-0.964,6.605-3.146c3.146-2.211,1.871-4.11,3.458-5.357
	c0.505-0.404,1.112-0.672,1.732-0.9l3.485,13.598L177.226,454.845z M530.31,246.713c-9.618,13.962-17.078,30.074-22.423,43.808
	c-7.937,19.36-18.397,48.671-20.126,72.283h1.701c0.935-12.784,4.479-27.27,8.787-40.932c3.26-0.256,18.567-1.843,23.102-8.136
	c5.102-7.059-4.791-13.578-2.239-22.904c2.523-9.326,10.176-6.208,15.817-12.728c1.002-1.148,1.512-2.431,1.737-3.811
	c1.046-6.428-4.211-15.022,3.932-22.466c9.893-9.042,12.699-11.877,12.983-21.77c0.272-9.187,11.222-13.863,12.824-14.482
	C552.101,220.549,540.089,232.517,530.31,246.713z M483.085,362.804h-1.758c4.961-19.304,6.208-38.777,5.953-54.992
	c-0.34,0.737-0.708,1.247-1.105,1.531c-5.726,3.883-26.674,7.001-28.687-11.68c-2.041-18.68,3.09-20.891-6.406-31.748
	c-9.468-10.856-0.794-24.888-0.709-31.662c0.085-6.804-5.471-14.769-15.591-20.552c-10.092-5.782-6.038-12.528-6.038-12.528
	s20.268,6.49,40.309,31.605c7.654,9.61,12.784,22.479,15.874,34.923l0.17-0.028c0.029,0.085,0.284,1.275,0.624,3.373
	c2.437,10.943,3.316,21.289,2.976,28.518C489.547,317.195,488.839,340.071,483.085,362.804z M340.473,258.065
	c-2.759,0.056-4.684-0.537-6.087-1.511c-1.408-0.978-2.289-2.341-2.956-3.818c-0.713-1.579,2.965-2.635,10.981-2.265
	c6.959,0.322,17.185,1.718,30.66,4.787c20.296,4.622,52.016,27.752,69.194,41.188c0.624,0.454,1.304,0.964,2.013,1.588
	c6.179,4.847,10.006,8.107,10.006,8.107c1.673,2.38,3.26,6.377,4.138,9.609c6.152,10.233,13.04,25.229,19.843,47.055h-1.786
	c-5.896-18.85-11.877-32.484-17.348-42.321c-0.141,0.567-0.51,0.624-1.162,0c-3.005-2.892-1.842-7.172-23.074-9.269
	c-21.26-2.098-10.998,1.927-19.644-6.379c-8.674-8.304,0.708-6.802-12.586-12.443c-13.266-5.67-14.371,1.558-20.976-10.177
	c-6.605-11.735,6.945-12.018-9.241-16.356c-16.214-4.309-16.866,5.443-21.26-1.247C346.823,257.923,345.972,257.952,340.473,258.065
	z M380.272,447.694c-0.033,0.663-0.844,1.267-0.826,2.047c0.009,0.455,0.301,0.97,1.195,1.591c2.55,1.771,2.888,1.938,2.865,2.657
	c-0.009,0.288-0.076,0.664-0.082,1.266c-0.003,0.302,0.009,0.661,0.052,1.094c0.312,3.487,1.871,3.799,3.77,3.146
	c1.105-0.368,3.912,2.211,5.981,4.365H210.442c-0.243-0.87-0.87-1.69-2.262-2.069c-3.203-0.879-9.921-0.936-12.189-2.495
	c-2.268-1.559-2.665-3.571-3.232-4.989c-0.539-1.417-1.928-1.162-1.928-1.162s-0.539-0.34-0.879-0.255
	c-0.214,0.036,0.095,2.414-1.353,3.984c0.471-0.514,0.757-1.113,0.929-1.69l-0.113-0.822c0.057-0.481,0.142-0.821,0.142-0.821
	l-0.255-0.084l-2.126-17.008h4.166l-0.63-6.295c0.978-0.15,2.001-0.312,3.124-0.507c12.586-2.211,1.276-3.486,4.082-5.669
	c2.835-2.211,3.798,0,5.669-0.313c1.899-0.312,1.587-3.77,2.211-5.045c0.624-1.247,4.082,0,6.605-0.624
	c2.494-0.623,4.706-0.623,5.953-3.77c1.276-3.146,1.587-0.312,6.945-2.212c5.329-1.87,5.017,2.523,8.476,3.146
	c3.458,0.624,3.77,2.835,9.128,0.965c5.329-1.899,0.935-4.423,2.835-5.981c1.871-1.588,5.017,0.936,9.099,1.559
	c4.024,0.624,1.391,3.061,2.749,9.661v0.006l0.001-0.001c0,0,0,0,0,0.001c0,0,1.945-1.961,4.233-2.177
	c0.11-0.01,0.221-0.007,0.332-0.009c0.082-0.001,0.163-0.01,0.245-0.007c0.583,0.025,1.18,0.179,1.765,0.519
	c1.364,0.793,2.821,0.99,4.027,0.96c1.552-0.038,2.692-0.45,2.692-0.45c3.77,0.624,5.669,1.56,9.439,1.56s1.559,1.275,4.082,5.669
	s2.835,4.706,5.981,4.082s1.247-3.771,4.394-4.082c3.146-0.312,5.669,4.082,10.375,2.835c4.734-1.275,4.11-2.211,6.605-4.11
	c2.523-1.871,6.605,0,7.54-0.312c0.964-0.313,1.899-4.395,2.211-5.953c0.312-1.588,1.899-1.275,3.146-1.899
	c1.247-0.623,2.523-5.981,2.835-8.476c0.312-2.522,4.394-3.798,5.981-3.798c1.559,0,3.146,6.916,2.835,10.403
	c-0.34,3.458,1.559,5.952,4.706,7.228c3.146,1.247,0.935,2.807-0.312,9.411c-1.276,6.605-0.312,3.799-2.211,6.293
	c-1.871,2.523,2.523,2.835,8.192,2.835c5.641,0,0.312,1.587-0.312,3.77c-0.652,2.212,2.183,1.276,8.476-0.312
	c6.293-1.559,2.523-2.522,7.228-4.394c4.734-1.899,4.082,1.247,13.521,4.082C379.427,446.19,380.307,446.976,380.272,447.694z"></path>
<path id="color_x5F_2" fill="#ea9a52" d="M128.755,456.943c-0.049,0.991-0.761,4.311-1.348,6.917
	c-0.421,1.869-0.778,3.373-0.778,3.373h-32.23c0,0-0.426-0.085-0.709-0.822c-0.255-0.737-1.162-3.997,2.069-4.876
	c1.439-0.392,3.57-0.62,5.692-0.891c2.641-0.337,5.268-0.739,6.525-1.603c2.239-1.558,2.664-3.571,3.203-4.989
	c0.567-1.417,1.928-1.162,1.928-1.162s0.539-0.34,0.907-0.255c0.215,0.035-0.109,2.44,1.366,4.01
	c0.913,0.987,2.246,1.315,3.58,1.329c0.071,0.001,0.146-0.002,0.219-0.003c2.221-0.03,6.247-0.789,7.323-2.767
	c0.004-0.008,0.009-0.016,0.013-0.024c0.032-0.06,0.055-0.115,0.078-0.171c0.189-0.445,0.147-0.759,0.147-0.759
	S128.81,455.271,128.755,456.943z M208.18,461.791c-3.203-0.879-9.921-0.936-12.189-2.495c-2.268-1.559-2.665-3.571-3.232-4.989
	c-0.539-1.417-1.928-1.162-1.928-1.162s-0.539-0.34-0.879-0.255c-0.214,0.036,0.095,2.414-1.353,3.984
	c-0.022,0.024-0.046,0.047-0.069,0.071c-0.155,0.159-0.322,0.313-0.518,0.45c-0.092,0.065-0.19,0.126-0.292,0.185
	s-0.21,0.114-0.323,0.167c-0.13,0.06-0.266,0.115-0.41,0.165c-0.077,0.027-0.152,0.056-0.233,0.08
	c-0.205,0.06-0.428,0.106-0.662,0.144c-0.086,0.014-0.174,0.027-0.265,0.038c-0.255,0.031-0.525,0.05-0.814,0.054
	c-0.08,0.001-0.166-0.002-0.249-0.004c-0.315-0.005-0.643-0.02-0.999-0.06c-0.017-0.002-0.031-0.001-0.048-0.003
	c-0.069-0.008-0.127-0.02-0.195-0.028c-0.31-0.039-0.609-0.082-0.889-0.129c-0.131-0.022-0.252-0.046-0.376-0.07
	c-0.222-0.042-0.438-0.085-0.641-0.132c-0.099-0.023-0.197-0.045-0.292-0.069c-0.247-0.062-0.483-0.126-0.701-0.194
	c-0.032-0.01-0.067-0.019-0.098-0.029c-1.629-0.519-2.464-1.186-2.89-1.76c-0.016-0.021-0.031-0.042-0.045-0.063
	c-0.04-0.057-0.073-0.111-0.105-0.165c-0.342-0.579-0.288-1.016-0.288-1.016s-2.041,1.021-1.984,2.692
	c0.032,0.958,0.702,4.099,1.281,6.662l0,0c0.45,1.988,0.844,3.628,0.844,3.628h32.23c0,0,0.397-0.057,0.68-0.822
	c0.162-0.419,0.515-1.656,0.194-2.806l0,0C210.199,462.99,209.572,462.169,208.18,461.791z M119.682,255.684
	c6.398-2.246,11.337-3.59,14.685-4.374c3.371-0.79,5.129-1.012,5.129-1.012l0,0c-0.01,0.001-1.424,0.201-4.023,0.765
	c1.247,2.07,6.576,9.894,14.768,10.999c9.439,1.276,17.858-9.95,17.858-9.95l0.169-0.31c2.965,0.658,7.276,1.818,13.153,3.881
	c2.731,0.958,5.733,3.418,8.716,6.587c6.557,6.966,13.016,17.377,16.307,23.012l0.007-0.005c0.586,1,1.165,2.017,1.726,3.037
	c0.171,0.311,0.347,0.62,0.513,0.932l-19.53,15.589l-0.001,0.001c0,0-0.058-0.103-0.151-0.267
	c-1.118-1.962-8.289-14.435-9.542-13.651c-1.234,0.772,0.958,37.634,1.378,47.679h-2.54v-12.728h-0.595l0,0L164.3,350.36
	l13.408-24.491h-2.721h-0.001h-9.835l-13.408,24.491h-0.001l13.408-24.491h-2.721h-10.828h-2.721l-13.408,24.491l0,0h-0.001
	l13.408-24.491h-10.204h-0.001h-2.72h-0.001l0,0h-12.018v12.727h-3.674c0.42-10.048,2.611-46.906,1.378-47.677
	c-1.279-0.799-8.71,12.184-9.605,13.76c-0.052,0.093-0.089,0.157-0.089,0.157l0,0l-19.531-15.59c0,0,0.015-0.028,0.02-0.038
	c0.104-0.196,1.15-2.158,2.871-5.036l0.006,0.005C100.429,275.543,111.322,258.618,119.682,255.684z M137.626,325.671h24.293
	c0-5.952-4.791-10.772-10.743-10.771h-2.778C142.445,314.9,137.626,319.719,137.626,325.671z M122.776,361.969h-4.608h-2.657
	l-2.355,25.125h3.17h4.517L122.776,361.969z M181.49,387.094h4.911h2.355l-1.933-25.125h-2.938h-4.75L181.49,387.094z"></path>
<path id="color_x5F_1" fill="#000000" d="M507.746,426.018c0.054,0.544,0.097,1.085,0.136,1.624
	c1.374,18.86-5.832,34.41-10.709,37.607h-28.857c-0.506-0.332-1.038-0.803-1.583-1.391c-2.443-2.638-5.142-7.751-7.002-14.428
	c-1.832-6.579-2.849-14.672-1.988-23.412c2.041-20.637,18.851-34.611,17.83-45.241c-1.021-10.659-8.164-17.972-8.164-17.972h9.07
	h1.786h2.467h4.025h13.294c0,0-7.114,7.314-8.135,17.972C488.896,391.407,505.705,405.381,507.746,426.018z M166.794,222.66
	c0.125,0.172,0.233,0.353,0.335,0.536c0.065,0.119,0.122,0.241,0.178,0.362c0.029,0.061,0.058,0.122,0.085,0.185
	c0.063,0.15,0.121,0.302,0.172,0.454c0.007,0.021,0.014,0.042,0.021,0.063c0.084,0.257,0.146,0.514,0.2,0.769
	c0.031,0.142,0.053,0.277,0.076,0.416c0.015,0.089,0.028,0.177,0.04,0.265c0.09,0.668,0.108,1.285,0.085,1.74
	c0.028-0.312,0.085-0.737,0.142-1.304c0.198-1.729,0.51-2.466,4.11-3.373c3.6-0.936,15.817-5.471,18.085-13.465
	c2.268-8.021-4.11-13.266-12.954-9.978c-8.816,3.288-14.485-0.511-24.151-1.134c-9.638-0.624-11.395,3.486-16.016,7.398
	c-4.62,3.911-6.18,2.977-7.2,7.398c-1.021,4.422,2.976,10.375,2.976,10.375c0.822,1.757,1.134,4.62,1.134,4.62
	s0.312-0.284,0.737-2.353c0.397-2.041,1.928-5.131,9.042-3.686c7.087,1.418,7.994,4.818,15.08,3.175
	c2.993-0.69,4.553-1.633,5.488-2.33C165.747,221.834,165.841,221.346,166.794,222.66z M132.008,350.222
	c-0.109-0.025-0.217-0.049-0.337-0.078c-0.118-0.028-0.247-0.062-0.375-0.094c-0.079-0.02-0.155-0.039-0.238-0.06
	c-0.173-0.045-0.356-0.095-0.542-0.146c-0.041-0.011-0.08-0.022-0.121-0.033c-0.217-0.06-0.442-0.125-0.672-0.193
	c-0.015-0.004-0.03-0.009-0.045-0.013c-0.472-0.139-0.969-0.298-1.473-0.465c-0.226-0.075-0.453-0.152-0.682-0.232
	c-0.078-0.027-0.153-0.051-0.231-0.078c-0.044-0.016-0.088-0.031-0.132-0.047c-0.206-0.074-0.41-0.149-0.615-0.226
	c-0.085-0.032-0.169-0.065-0.254-0.097h-0.001l-0.002,0.004c-0.064-0.024-0.124-0.052-0.187-0.077
	c-0.282-0.108-0.562-0.222-0.834-0.342c-0.038-0.017-0.078-0.032-0.117-0.049c-0.39-0.168-0.763-0.343-1.121-0.521
	c-0.001-0.001-0.003-0.001-0.004-0.002c-0.001,0-0.002-0.001-0.003-0.001c-0.029-0.015-0.058-0.03-0.087-0.044
	c-0.003-0.002-0.006-0.003-0.01-0.005c-0.268-0.136-0.522-0.274-0.763-0.413c-0.032-0.019-0.065-0.038-0.097-0.057
	c-0.207-0.122-0.398-0.246-0.579-0.371c-0.046-0.032-0.095-0.064-0.14-0.096c-0.16-0.116-0.301-0.233-0.434-0.35
	c-0.042-0.037-0.09-0.073-0.129-0.11c-0.158-0.15-0.296-0.301-0.4-0.452l-0.001-0.001h-2.012h-0.001l-1.202,16.399h4.608
	l-1.933,25.125h-4.517l-3.617,49.355l4.058-0.067l-2.13,16.819l-0.227,0.086c0,0,0.085,0.34,0.113,0.821l-0.085,0.822
	c0.175,0.585,0.461,1.195,0.942,1.715c0.01,0.011,0.02,0.021,0.03,0.031c0.159,0.168,0.337,0.327,0.541,0.471
	c0.089,0.062,0.183,0.122,0.282,0.178c0.098,0.057,0.202,0.111,0.311,0.162c0.14,0.065,0.288,0.125,0.445,0.179
	c0.067,0.023,0.131,0.048,0.201,0.069c0.214,0.063,0.448,0.111,0.694,0.151c0.075,0.012,0.152,0.023,0.231,0.033
	c0.264,0.032,0.544,0.053,0.846,0.056c0.071,0.001,0.146-0.002,0.219-0.003c0.335-0.004,0.685-0.02,1.067-0.064
	c0.001,0,0.002,0,0.003,0c0.01-0.001,0.018-0.003,0.028-0.004c0.377-0.045,0.726-0.098,1.061-0.154
	c0.13-0.022,0.251-0.046,0.375-0.07c0.213-0.04,0.419-0.082,0.615-0.127c0.114-0.026,0.227-0.052,0.335-0.079
	c0.213-0.054,0.416-0.11,0.607-0.168c0.063-0.019,0.13-0.037,0.191-0.056c0.527-0.17,0.972-0.354,1.344-0.547
	c0.013-0.007,0.024-0.013,0.037-0.02c0.94-0.494,1.419-1.033,1.661-1.478c0.004-0.008,0.009-0.016,0.013-0.024
	c0.032-0.06,0.055-0.115,0.078-0.171c0.064-0.157,0.102-0.3,0.118-0.418l-0.113-0.567l4.217-17.873l0.338-0.006l4.005-0.066
	l8.05-34.355h-10.545V350.36h0.001c-0.132-0.024-0.285-0.055-0.453-0.091C132.149,350.255,132.075,350.237,132.008,350.222z
	 M189.415,454.362c0.057-0.481,0.142-0.821,0.142-0.821l-0.255-0.084l-2.126-17.008h4.166l-0.63-6.295l-4.311-43.06h-4.911
	l-2.355-25.125h4.75l-1.232-12.308l-0.234-2.34l-0.175-1.751h-2.523c-0.1,0.145-0.221,0.286-0.35,0.425
	c-0.039,0.041-0.08,0.082-0.121,0.123c-0.098,0.098-0.204,0.195-0.316,0.291c-0.051,0.044-0.1,0.088-0.153,0.13
	c-0.149,0.12-0.308,0.238-0.476,0.353c0,0-0.001,0-0.001,0.001c-0.046,0.031-0.094,0.061-0.14,0.092
	c-0.268,0.174-0.553,0.343-0.857,0.506c-0.066,0.036-0.131,0.071-0.198,0.106l0,0l0,0c-0.001,0.001-0.002,0.001-0.003,0.002
	c-0.689,0.357-1.449,0.684-2.243,0.979c-0.002,0.001-0.003,0.001-0.005,0.002c-0.11,0.041-0.225,0.07-0.336,0.11
	c-0.551,0.198-1.11,0.378-1.669,0.545c-0.137,0.041-0.272,0.094-0.408,0.133c-0.016,0.005-0.033,0.009-0.049,0.014
	c-0.377,0.108-0.751,0.208-1.117,0.301c-0.026,0.007-0.053,0.014-0.079,0.021c-0.371,0.094-0.733,0.18-1.083,0.259
	c-0.045,0.01-0.088,0.019-0.133,0.029c-0.284,0.063-0.556,0.12-0.819,0.172c-0.081,0.016-0.163,0.033-0.242,0.048
	c-0.29,0.056-0.57,0.107-0.822,0.149h0.001v51.364h-0.001h-7.993h-0.001l9.099,34.725h3.595l1.085,4.232l3.485,13.598l-0.142,0.566
	c0.032,0.179,0.106,0.415,0.258,0.677c0.032,0.054,0.065,0.109,0.105,0.165c0.014,0.021,0.029,0.042,0.045,0.063
	c0.427,0.574,1.261,1.241,2.89,1.76c0.031,0.01,0.066,0.019,0.098,0.029c0.219,0.068,0.454,0.132,0.701,0.194
	c0.095,0.023,0.192,0.046,0.292,0.069c0.203,0.047,0.419,0.09,0.641,0.132c0.124,0.023,0.245,0.048,0.376,0.07
	c0.281,0.047,0.579,0.09,0.889,0.129c0.067,0.009,0.127,0.019,0.196,0.027c0.016,0.002,0.031,0.002,0.047,0.004
	c0.356,0.039,0.684,0.055,0.999,0.06c0.083,0.001,0.169,0.005,0.249,0.004c0.29-0.004,0.559-0.023,0.814-0.054
	c0.09-0.011,0.178-0.024,0.265-0.038c0.234-0.038,0.457-0.085,0.662-0.144c0.082-0.024,0.156-0.053,0.233-0.08
	c0.144-0.05,0.281-0.105,0.41-0.165c0.113-0.052,0.221-0.108,0.323-0.167s0.2-0.12,0.292-0.185c0.195-0.138,0.364-0.291,0.518-0.45
	c0.023-0.024,0.047-0.047,0.069-0.071c0.471-0.514,0.757-1.113,0.929-1.69L189.415,454.362z"></path>
</svg>