<?xml version="1.0" standalone="no"?>
<svg version="1.1" id="Layer_1" xmlns="http://www.w3.org/2000/svg" xmlns:xlink="http://www.w3.org/1999/xlink" x="0px" y="0px" viewBox="0 0 595.28 595.28" enable-background="new 0 0 595.28 595.28" xml:space="preserve">
<path id="color_x5F_6" fill="#FFFFFF" d="M108.768,344.909l4.347-4.289h11.764c-0.013,2.036,0.697,3.675,0.697,3.675
	c0.118,0.204,0.234,0.409,0.35,0.615H108.768z"></path>
<path id="color_x5F_5_1_" fill="#417505" d="M93.1,335.928l-3.726-6.783l11.847-11.369l5.462,10.506
	C105.234,330.856,93.1,335.928,93.1,335.928z M97.495,343.189l4.204,8.694l11.416-11.264l-4.24-8.542l-3.55,3.325L97.495,343.189z
	 M167.786,442.142c0,0,4.125-24.376-15.872-30.191c-8.742-2.542-16.243-0.766-22.054,2.858l-8.792,59.858h-5.095l-1.077-42.699
	c-1.807-0.668-4.796-1.616-8.427-2.189l-8.133,44.888H92.26l1.359-44.69c-3.941,0.846-7.945,2.558-11.619,5.619
	c-4.11,3.425-6.695,7.205-8.29,10.875c0.177-3.525,0.205-7.014-0.076-10.369c-0.247-2.934-1.04-5.762-2.157-8.418
	c1.526-1.486,9.778-9.938,8.139-17.579c-1.804-8.412,2.438-11.45,2.438-11.45s-7.851,5.551-9.753,13.582
	c-1.498,6.329-1.296,12.417-1.143,14.714c-2.255-5.031-5.63-9.402-8.584-12.626c-1.406-1.534-2.803-2.908-4.087-4.093
	c-1.316-3.875-4.752-11.965-10.966-13.814c-8.246-2.455-8.877-7.636-8.877-7.636s1.102,9.552,7.234,15.076
	c5.504,4.957,11.794,7.829,13.025,8.365c5.631,5.462,12.769,14.197,13.591,23.977c0.203,2.415,0.242,4.908,0.18,7.439
	c-0.643-1.256-3.882-7.31-9.128-12.466c-5.885-5.785-15.487-6.305-15.487-6.305s5.209,0.314,8.161,8.396
	c2.786,7.631,15.084,10.313,16.448,10.589c-0.059,2.219-0.197,4.466-0.368,6.715c-2.027,7.763-0.208,14.138-0.208,14.138
	s-32.051-7.348-30.506,19.822h44.285c0,0-0.016-0.446,0.685-0.908c0.701-0.462,4.538-0.589,5.35-1.433
	c0.812-0.844,0.621-1.783,0.748-2.118c0.127-0.334,0.605-0.191,0.605-0.191c2.42,0.032,3.309-0.447,3.309-0.447
	s0.377-0.15,0.52-0.087c0.143,0.064-0.533,5.183-0.533,5.183h20.383c0,0-0.677-5.119-0.533-5.183c0.143-0.064,0.52,0.087,0.52,0.087
	s0.889,0.479,3.309,0.447c0,0,0.478-0.143,0.605,0.191c0.127,0.334-0.064,1.274,0.748,2.118c0.812,0.844,4.65,0.971,5.35,1.433
	c0.701,0.462,0.685,0.908,0.685,0.908h62.497v-38.24C185.096,443.224,177.933,441.488,167.786,442.142z M118.435,482.52
	c-0.239-0.048-0.621,2.006-0.621,2.006h2.341C119.773,484.526,118.674,482.568,118.435,482.52z M95.059,482.52
	c-0.239,0.048-1.338,2.006-1.72,2.006h2.341C95.68,484.526,95.298,482.472,95.059,482.52z M499.768,433.01h20.786v7.966h-20.786
	v21.294h20.786v7.966h-20.786v14.291h-3.242h-1.867h-3.122v-14.291h-23.135v14.291h-8.232v-14.291h-28.128v14.291h-8.232v-14.291
	h-23.135v14.291h-8.232v-14.291h-11.938v-7.966h11.938v-21.294h-11.938v-7.966h11.938v-13.548l4.116-6.698l4.116,6.698v13.548
	h23.135v-13.548l4.116-6.698l4.116,6.698v13.548h28.128v-13.548l4.116-6.698l4.116,6.698v13.548h23.135v-13.548l4.116-6.698
	l4.116,6.698V433.01z M423.81,440.976h-23.135v21.294h23.135V440.976z M460.17,440.976h-28.128v21.294h28.128V440.976z
	 M491.536,440.976h-23.135v21.294h23.135V440.976z M299.716,484.526h50.823V388.78h-50.823V484.526z M204.634,424.507h35.726V388.78
	h-35.726V424.507z M513.113,190.49c-20.452-11.764-2.922-37.252-17.755-39.605c-14.833-2.353-15.282,16.077-19.328,34.899
	c-4.045,18.822-16.181,12.156-15.283,37.252c0.899,25.096,15.283,27.449,12.586,43.134c-2.697,15.685-16.182,22.743-7.641,38.428
	c8.54,15.685,8.54,21.567,7.192,29.409c-1.348,7.842,2.248,14.901,8.99,19.606c6.314,4.407,1.199,7.438,12.707,12.314v-81.074
	l-14.46-19.977c-0.299-0.411-0.158-0.956,0.315-1.218c0.474-0.26,1.097-0.138,1.395,0.276l12.751,17.616v-22.693
	c0-0.487,0.453-0.882,1.011-0.882c0.558,0,1.011,0.395,1.011,0.882v46.747l11.623-15.219c0.309-0.404,0.935-0.512,1.402-0.246
	c0.465,0.271,0.59,0.818,0.28,1.225l-13.305,17.423v57.941c0.194,0.074,0.351,0.143,0.552,0.218c0,0,13.934,2.353,12.586-17.254
	c-1.348-19.606,9.439-11.372,13.934-32.154c4.495-20.783,0-23.528-5.843-36.86c-5.844-13.332,8.99-21.959,11.237-44.702
	C531.317,213.233,533.564,202.254,513.113,190.49z M424.677,366.961l-138.623-108.12L145.948,366.921l14.783,19.163l125.242-96.615
	l123.82,96.575L424.677,366.961z M247.843,424.507h35.726V388.78h-35.726V424.507z"></path>
<path id="color_x5F_5" fill="#8b572a" d="M124.197,287.113c0,0.042,0.001,0.084,0.001,0.125c0,0.291-0.008,0.57-0.027,0.827
	c-0.028,0.38-0.071,0.74-0.123,1.088c-0.034,0.219-0.078,0.425-0.121,0.632c-0.023,0.112-0.042,0.229-0.067,0.337
	c-0.064,0.271-0.137,0.531-0.215,0.782c-0.009,0.028-0.016,0.058-0.025,0.086c-0.089,0.276-0.185,0.541-0.288,0.796
	c0,0,0,0.001,0,0.001c-0.196,0.327-0.298,0.565-0.334,0.739c-0.219,0.439-0.459,0.845-0.711,1.224
	c-0.006,0.009-0.013,0.018-0.019,0.027c-0.25,0.374-0.513,0.721-0.782,1.046c-1.284,1.546-2.335,1.317-2.394,3.092
	c-0.027,0.829,0.343,1.652,0.742,2.3l-5.282,8.216l-4.789-8.127l-0.039-0.067c0.505-1.019,0.226-1.937,0.143-2.265
	c-0.117-0.458-0.526-1.26-2.452-3.264c-0.175-0.182-0.321-0.398-0.456-0.627c-0.028-0.048-0.057-0.094-0.083-0.144
	c-0.122-0.229-0.23-0.473-0.321-0.732c-0.017-0.048-0.031-0.099-0.047-0.148c-0.078-0.242-0.146-0.492-0.202-0.749
	c-0.009-0.044-0.021-0.086-0.03-0.13c-0.057-0.282-0.101-0.57-0.136-0.857c-0.008-0.067-0.016-0.135-0.023-0.202
	c-0.03-0.286-0.055-0.571-0.068-0.846c-0.001-0.02-0.001-0.038-0.002-0.058c-0.012-0.272-0.017-0.535-0.018-0.785
	c0-0.048-0.001-0.097-0.001-0.144c0.001-0.251,0.007-0.489,0.015-0.704c0.001-0.033,0.003-0.063,0.004-0.094
	c0.009-0.211,0.021-0.407,0.032-0.565c2.59-0.84,8.611-3.156,11.117-7.2c0,0,1.029,2.058,2.793,2.793
	c1.764,0.735,2.058,2.278,2.058,2.278s0.636-1.583,1.249-1.617c0.265-0.015,0.658,0.825,0.869,2.029c0,0,0,0,0,0.001
	C124.186,286.522,124.195,286.823,124.197,287.113z M174.008,311.897c-2.088,0.951-9.63,0.65-11.304-0.129
	c-1.674-0.779-3.286-0.503-3.886,0.003c-0.6,0.506-0.156,1.022-0.391,2.556c-0.133,0.87-2.177,2.914-3.921,4.52l3.981,2.367
	l4.907-5.156c0,0,1.999-0.367,4.161-0.335c2.162,0.032,5.738-1.096,6.686-1.922C175.189,312.975,176.097,310.946,174.008,311.897z
	 M116.092,321.685c-0.711-1.038-2.077-2.022-2.951-0.984s-3.17,2.131-3.826,2.131c-0.656,0-1.202,0.656-1.913,1.421
	c-0.711,0.765-0.492,2.35-0.547,3.552c-0.055,1.202-3.771,3.279-3.771,3.279l2.241,4.318c0,0,4.809-4.809,5.957-5.028
	c1.148-0.219,5.465-3.17,6.066-4.318C117.95,324.909,116.802,322.723,116.092,321.685z M93.259,479.877h0.445
	c2.085-0.027,2.864-0.447,2.864-0.447h0l0.648-4.763h-3.784L93.259,479.877z M116.974,479.453c0.213,0.094,1.158,0.451,3.261,0.424
	c0,0,0.008-0.002,0.014-0.004l0.28-5.206h-3.664L116.974,479.453z"></path>
<path id="color_x5F_4" fill="#c1d34c" d="M400.675,440.975h23.135v21.294h-23.135V440.975z M380.506,462.269h11.938v-21.294h-11.938
	V462.269z M468.402,462.269h23.135v-21.294h-23.135V462.269z M134.49,381.862c-0.156,0.004-0.327,0.008-0.492,0.012
	C134.162,381.87,134.335,381.866,134.49,381.862z M133.382,381.889c0.215-0.005,0.413-0.01,0.616-0.015
	C133.793,381.879,133.601,381.884,133.382,381.889z M494.581,365.929v48.578l-3.044,4.954v13.548h-23.135v-13.548l-4.116-6.698
	l-4.116,6.698v13.548h-28.128v-13.548l-4.116-6.698l-4.116,6.698v13.548h-23.135v-13.548l-4.116-6.698l-4.116,6.698v13.548h-11.938
	v-69.808l-94.532-73.732l-78.376,60.461l78.376-60.461l123.82,96.575l14.884-19.083l-138.623-108.12L145.948,366.921l14.783,19.163
	l29.388-22.671v82.873c-5.024-3.062-12.187-4.798-22.333-4.145c0,0,4.125-24.376-15.872-30.191
	c-8.742-2.542-16.243-0.766-22.054,2.858l4.84-32.952c-0.065,0.002-0.143,0.004-0.21,0.005c2.147-0.053,3.432-0.088,3.432-0.088
	s-3.013-20.916-12.002-36.866h0.005h0c-0.116-0.206-0.232-0.411-0.35-0.615c0,0-0.71-1.638-0.697-3.674
	c0.006-0.89,0.148-1.854,0.55-2.793c1.323-3.087,4.997-12.935,4.997-12.935s7.202,15.139,9.701,15.727
	c2.499,0.588,19.108-18.961,19.108-18.961l-5.438-3.234c0,0-9.554,7.79-11.024,7.055c-1.44-0.72-6.41-17.813-12.833-22.37
	c-0.003,0.041-0.005,0.069-0.007,0.108c0.332-5.023,1.258-23.038-2.201-27.296c-4.875-6.002-11.71-5.123-11.71-5.123
	c-26.163,0.833-13.441,30.8-13.441,30.8l0-0.001c-3.007,0.694-6.035,1.565-6.989,2.422c-7.251,6.516-10.73,39.391-10.73,41.155
	c0,1.764,1.911,2.205,4.703,1.764c1.567-0.247,5.185-2.207,8.06-3.879l7.7-7.658l-7.83,7.787l4.204,8.694l-2.177-4.502
	c-3.611,11.423-10.507,33.415-10.398,34.393c0.032,0.287,2.345,0.449,5.945,0.528l-1.45,47.675
	c-3.941,0.846-7.945,2.558-11.619,5.619c-4.11,3.425-6.695,7.205-8.29,10.875c0.177-3.525,0.205-7.014-0.076-10.369
	c-0.247-2.934-1.04-5.762-2.157-8.418c1.526-1.486,9.778-9.938,8.139-17.579c-1.804-8.412,2.438-11.45,2.438-11.45
	s-7.851,5.551-9.753,13.582c-1.498,6.329-1.296,12.417-1.143,14.714c-2.255-5.031-5.63-9.402-8.584-12.626
	c-1.406-1.534-2.803-2.908-4.087-4.093c-1.316-3.875-4.752-11.965-10.966-13.814c-2.213-0.659-3.864-1.515-5.115-2.414
	c1.889-2.343,3.967-4.681,6.269-7.004c45.652-46.079,29.775-71.873,16.154-140.72c-16.154-81.648,65.467-133.27,146.088-135.728
	c88.047-2.685,133.722,24.231,163.646,86.037c21.73,44.882,59.67,63.265,97.65,74.093c-4.084,12.688-14.198,19.82-6.522,33.919
	c8.54,15.685,8.54,21.567,7.192,29.409c-1.348,7.842,2.247,14.901,8.99,19.606C488.187,358.021,483.073,361.052,494.581,365.929z
	 M174.008,311.897c-2.088,0.951-9.63,0.65-11.304-0.129c-1.674-0.779-3.286-0.503-3.886,0.003c-0.6,0.506-0.156,1.022-0.391,2.556
	c-0.133,0.87-2.177,2.914-3.921,4.52l3.981,2.367l4.906-5.156c0,0,1.999-0.367,4.161-0.335c2.162,0.032,5.738-1.096,6.686-1.922
	C175.189,312.975,176.097,310.946,174.008,311.897z M383.267,264.29h-42.871v13.599h4.84v27.067l33.191,25.888v-52.955h4.84V264.29z
	 M131.99,381.922c0.489-0.011,0.952-0.022,1.392-0.033C132.942,381.899,132.481,381.91,131.99,381.922z M432.042,462.269h28.128
	v-21.294h-28.128V462.269z M400.675,484.526h23.135v-14.291h-23.135V484.526z M432.042,484.526h28.128v-14.291h-28.128V484.526z
	 M468.402,484.526h23.135v-14.291h-23.135V484.526z M380.506,484.526h11.938v-14.291h-11.938V484.526z M518.345,281.829
	c5.588,12.358,9.693,15.539,5.331,35.71c-4.495,20.783-15.282,12.548-13.934,32.154c1.348,19.606-12.586,17.254-12.586,17.254
	c-0.202-0.075-0.359-0.144-0.552-0.218v47.582l3.165,5.151v13.548h20.786v7.966h-20.786v21.294h20.786v7.966h-20.786v14.291h3.324
	C598.113,476.629,584.276,302.96,518.345,281.829z M58.903,412.221c-1.231-0.537-7.52-3.408-13.025-8.365
	c-2.446-2.203-4.082-5.044-5.177-7.667c-32.739,43.465,0.885,88.337,0.885,88.337c-1.545-27.171,30.506-19.822,30.506-19.822
	s-1.819-6.375,0.208-14.138c0.172-2.248,0.309-4.495,0.368-6.715c-1.365-0.276-13.662-2.958-16.448-10.589
	c-2.951-8.082-8.161-8.396-8.161-8.396s9.602,0.519,15.487,6.304c5.245,5.156,8.485,11.21,9.128,12.466
	c0.062-2.531,0.023-5.024-0.18-7.439C71.672,426.419,64.534,417.683,58.903,412.221z M98.335,474.667l8.133-44.888
	c3.631,0.573,6.62,1.521,8.427,2.189l-1.079-42.747L98.335,474.667z"></path>
<path id="color_x5F_3" fill="#000000" d="M134.7,381.857l-13.632,92.81h-5.095l-2.156-85.446l-15.482,85.446H92.26l2.81-92.365
	C105.471,382.529,126.634,382.056,134.7,381.857z M509.628,290.14c-0.467-0.267-1.093-0.159-1.402,0.246l-11.623,15.219v-46.747
	c0-0.487-0.453-0.882-1.011-0.882c-0.558,0-1.011,0.395-1.011,0.882v22.693l-12.751-17.616c-0.298-0.414-0.921-0.535-1.395-0.276
	c-0.473,0.262-0.614,0.807-0.315,1.218l14.46,19.977v81.074v48.578l1.072-1.744l0.951,1.548v-47.582v-57.941l13.305-17.423
	C510.218,290.958,510.093,290.411,509.628,290.14z M495.592,485.073c0.422,0,0.782-0.226,0.934-0.547h-1.867
	C494.81,484.847,495.17,485.073,495.592,485.073z M96.569,479.43c0,0-0.889,0.479-3.309,0.447c0,0-0.478-0.143-0.605,0.191
	c-0.127,0.334,0.064,1.274-0.748,2.118c-0.812,0.844-4.65,0.971-5.35,1.433c-0.701,0.462-0.685,0.908-0.685,0.908s7.086,0,7.468,0
	c0.382,0,1.481-1.959,1.72-2.006c0.239-0.048,0.621,2.006,0.621,2.006h0.876c0,0,0.677-5.119,0.533-5.183
	C96.946,479.28,96.569,479.43,96.569,479.43z M126.938,483.619c-0.701-0.462-4.538-0.589-5.35-1.433
	c-0.812-0.844-0.621-1.783-0.748-2.118c-0.127-0.334-0.605-0.191-0.605-0.191c-2.42,0.032-3.309-0.447-3.309-0.447
	s-0.377-0.15-0.52-0.087c-0.143,0.064,0.533,5.183,0.533,5.183h0.876c0,0,0.382-2.054,0.621-2.006
	c0.239,0.048,1.338,2.006,1.72,2.006c0.382,0,7.468,0,7.468,0S127.639,484.081,126.938,483.619z"></path>
<path id="color_x5F_2" fill="#ea9a52" d="M383.267,264.29v13.599h-4.84v52.955l-33.191-25.888v-27.067h-4.84V264.29H383.267z
	 M285.973,289.47l94.532,73.732v121.325h-29.967V388.78h-50.823v95.746H190.12V363.413L285.973,289.47z M240.36,388.78h-35.726
	v35.726h35.726V388.78z M283.569,388.78h-35.726v35.726h35.726V388.78z M108.768,344.909l-7.069,6.975l-2.177-4.502
	c-3.611,11.423-10.507,33.415-10.398,34.393c0.147,1.323,48.798,0,48.798,0s-3.013-20.916-12.002-36.866H108.768z M105.325,335.402
	l3.548-3.324C107.192,333.536,105.33,335.397,105.325,335.402z M125.576,344.294c0.117,0.203,0.229,0.41,0.345,0.615h0.005
	C125.81,344.703,125.693,344.498,125.576,344.294z M106.683,328.281l-0.005-0.01c-0.031,0.052-0.053,0.102-0.092,0.155
	C106.62,328.378,106.657,328.328,106.683,328.281z M142.773,325.48c-1.44-0.72-6.41-17.813-12.833-22.37
	c-0.059,0.902-0.101,1.425-0.101,1.425l-10.005-4.321l-5.282,8.216l-4.828-8.193l0.039,0.067c-0.415,0.028-0.828,0.06-1.235,0.096
	c-1.335,0.236-3.631,0.664-5.942,1.197c-0.002,0.001-0.004,0.001-0.005,0.002l0-0.001c-3.007,0.694-6.035,1.565-6.989,2.422
	c-7.251,6.516-10.73,39.391-10.73,41.155s1.911,2.205,4.703,1.764c1.567-0.247,5.185-2.207,8.06-3.88l7.7-7.658l-2.241-4.318
	c0,0,0.591-0.331,1.305-0.804c-3.943,2.576-11.289,5.647-11.289,5.647l-3.726-6.783l11.847-11.369l5.457,10.497
	c0.099-0.164,0.17-0.322,0.177-0.466c0.055-1.202-0.164-2.787,0.547-3.552c0.711-0.765,1.257-1.421,1.913-1.421
	c0.656,0,2.951-1.093,3.826-2.131s2.241-0.055,2.951,0.984c0.711,1.038,1.858,3.224,1.257,4.372
	c-0.601,1.148-4.919,4.099-6.067,4.318c-0.433,0.083-1.387,0.818-2.407,1.703l4.24,8.542h11.764c0,0,0,0,0,0.001
	c0.006-0.89,0.148-1.855,0.55-2.793c1.323-3.087,4.997-12.935,4.997-12.935s7.202,15.139,9.701,15.727
	c2.499,0.588,19.108-18.961,19.108-18.961l-5.438-3.234C153.796,318.425,144.242,326.215,142.773,325.48z"></path>
<path id="color_x5F_1" d="M127.731,275.923c-4.875-6.002-11.71-5.123-11.71-5.123c-26.163,0.833-13.441,30.8-13.441,30.8
	c1.594-0.727,4.343-1.106,7.183-1.296l-0.039-0.067c0.506-1.019,0.226-1.937,0.143-2.265c-0.117-0.458-0.525-1.26-2.452-3.264
	c-1.552-1.614-1.437-5.379-1.334-6.784c2.59-0.84,8.611-3.156,11.117-7.2c0,0,1.029,2.058,2.793,2.793
	c1.764,0.735,2.058,2.278,2.058,2.278s0.636-1.583,1.249-1.617c0.265-0.015,0.658,0.825,0.869,2.029
	c0.043,0.679,0.044,1.313,0.004,1.858c-0.107,1.473-0.418,2.684-0.84,3.721c-0.196,0.327-0.298,0.565-0.334,0.739
	c-0.442,0.885-0.964,1.637-1.512,2.297c-1.284,1.546-2.335,1.317-2.394,3.092c-0.027,0.829,0.343,1.652,0.742,2.3l10.005,4.321
	C129.838,304.535,131.76,280.883,127.731,275.923z" fill="#000000"></path>
</svg>