<?xml version="1.0" standalone="no"?>
<svg version="1.1" id="Layer_1" xmlns="http://www.w3.org/2000/svg" xmlns:xlink="http://www.w3.org/1999/xlink" x="0px" y="0px" width="850.394px" height="595.28px" viewBox="0 0 850.394 595.28" enable-background="new 0 0 850.394 595.28" xml:space="preserve">
<path id="color_x5F_2" fill="#ea9a52" d="M638.598,384.798l7.274,5.927l0.651,0.931c-0.115-0.13-0.231-0.26-0.346-0.39
	c-0.143-0.163-0.371-0.248-0.634-0.276C643.37,389.197,640.927,387.097,638.598,384.798z M694.372,400.226l-0.355-0.888
	c-2.403-0.901-4.797-1.828-7.181-2.781L694.372,400.226z M654.562,319.43l0.073,0.207c0.025-0.015,0.053-0.028,0.08-0.042
	C654.665,319.538,654.61,319.488,654.562,319.43z M687.795,376.89c-0.201,0.048-0.403,0.093-0.605,0.139
	c0.007,0.02,0.014,0.041,0.021,0.061C687.394,377.027,687.589,376.96,687.795,376.89z M709.553,451.411
	c-3.395-4.82-7.193-9.58-9.345-15.125c-0.048-0.125-0.01-0.25,0.079-0.373c-0.318-0.101-0.712-0.233-1.166-0.395
	c-9.408-1.884-18.231-7.989-25.453-13.682c-10.948-8.631-20.719-18.646-29.908-29.105c-9.955-8.126-26.594-23.103-11.239-34.22
	c0.049-0.035,0.12-0.069,0.199-0.103c-3.555-4.581-7.791-11.159-4.33-13.898c2.843-2.251,6.982-0.505,9.079,1.809
	c2.947,3.252,5.069,7.296,6.525,11.425c9.085,0.508,13.996,15.048,14.185,22.708c0.013,0.537-1.014,0.922-1.85,1.02
	c0.028,0.162,0.043,0.254,0.043,0.254l0.677,0.33c0.141-0.478,2.098-1.287,2.795-0.875c9.85,5.827,20.289,10.546,30.937,14.728
	c-2.343-6.023-4.491-12.132-6.554-18.262c-1.481,0.255-1.201-0.636-0.394-1.179c-0.483-1.441-0.967-2.881-1.444-4.322
	c-2.696-8.138-5.668-16.395-7.287-24.834c-0.178-0.926,2.734-1.627,2.897-0.776c1.697,8.847,4.833,17.519,7.689,26.039
	c0.349,1.041,0.702,2.082,1.052,3.123c9.305-2.004,18.089-5.687,27.676-5.814c-1.963-7.333-4.39-14.746-7.649-21.725
	c-1.682-3.268-3.662-6.921-5.773-10.408c-1.571-2.376-3.283-4.657-5.159-6.811c-8.93-10.253-20.444-16.077-33.513-17.237
	c-1.892-0.039-3.859-0.123-5.546-0.21c-0.51,0.006-1.016-0.001-1.529,0.018c-0.384,0.014-0.664-0.046-0.857-0.152
	c-0.083-0.005-0.174-0.01-0.253-0.015c1.146,2.43,2.563,4.68,4.396,6.433c0.274,0.262-0.458,0.723-1.246,0.974
	c0.085,1.641-1.307,4.035-1.854,4.964c-1.666,2.824-3.794,5.646-6.718,7.271c-6.79,3.773-15.42-0.942-17.259-8.271
	c-0.107-0.428,0.108-0.797,0.463-1.061c0.249-2.021,0.103-4.411-0.443-6.769c-11.028,6.401-19.11,15.979-22.749,28.306
	c-2.299,7.79-2.632,15.905-4.605,23.743c-0.102,0.404-0.452,0.713-0.877,0.908c0.035,0.013,0.074,0.022,0.106,0.038
	c4.092,2.063,9.199,5.063,13.947,5.616c0.209-4.344,0.899-8.719,1.903-12.92c0.463-1.94,0.785-4.299,1.791-6.062
	c0.274-0.479,2.798-1.306,2.791-0.386c-0.002,0.34-0.091,0.62-0.185,0.95c-0.053,0.188-0.216,0.354-0.437,0.493
	c-1.086,2.581-1.449,6.028-1.881,8.573c-0.978,5.759-1.547,11.647-0.889,17.479c0.653,5.786,2.276,11.286,3.886,16.859
	c4.671,16.161,3.426,31.54-0.679,47.773c-0.141,0.558-1.242,0.94-2.047,0.946c-0.112,0.333-0.178,0.525-0.178,0.525l90,2
	l-0.16-0.249C710.544,451.699,709.785,451.741,709.553,451.411z M158.792,241.777l-0.506-0.304
	c-0.401,0.392-1.081,0.747-1.609,0.736c-7.971-0.161-9.608,4.379-8.51,10.202C151.633,248.829,155.174,245.28,158.792,241.777z
	 M174.872,265.226l-0.146,0.194c0.12-0.125,0.24-0.25,0.359-0.375L174.872,265.226z M163.754,434.046
	c-0.759,0.197-1.502,0.426-2.22,0.701C162.24,434.513,162.989,434.278,163.754,434.046z M148.663,254.536
	c0.049,0.178,0.105,0.357,0.159,0.536l9.431-10.081c-3.113,3.068-6.175,6.164-9.173,9.289
	C148.984,254.379,148.836,254.464,148.663,254.536z M177.044,283.626c3.983-6.097,5.04-14.019,3.116-21.019
	c-6.018,6.073-12.18,12.675-15.596,20.094C168.359,287.025,173.002,289.813,177.044,283.626z M218.791,299.963
	c-0.771-0.575-0.295-1.305,0.455-1.684c-0.105-0.07-0.205-0.137-0.294-0.194c-2.262,0.045-4.525,0.176-6.83,0.497
	c-0.35,0.049-1.713,0.19-3.488,0.411c-0.001,0.003,0,0.005-0.001,0.009c-2.41,10.479-16.196,19.82-26.297,13.388
	c-4.787-3.048-8.544-7.645-10.929-12.78c-0.427-0.919-1.14-2.285-1.533-3.655c-2.504,3.152-4.746,6.493-6.868,10.131
	c-0.585,1.002-3.529,1.098-2.747-0.242c3.779-6.478,7.889-12.044,13.204-17.252c-7.13,2.109-12.356-5.163-16.152-10.975
	c-3.681-5.634-8.406-12.359-10.847-19.292l-0.591-0.099l0.403-0.431c-0.78-2.332-1.294-4.685-1.411-7.025
	c-0.084-1.687,0.147-3.114,0.607-4.337c-7.029,4.32-12.691,11.485-17.451,17.953c-0.212,0.288-0.417,0.581-0.627,0.87
	c-2.917,4.356-6.248,9.526-9.83,15.439c-1.241,2.279-2.419,4.596-3.508,6.964c-9.724,21.153-15.093,43.928-16.863,67.097
	c-1.266,16.577-1.15,33.2-1.307,49.813c-0.11,11.72-1.168,24.122,0.435,35.768c0.071,0.518-0.389,0.938-0.962,1.173l0.013,0.215
	l57.5-0.5c0,0,0.054-0.085,0.149-0.226c-1.944,0.119-1.403-2.094,0.255-2.211c0.055-0.004,2.397-3.239,3.128-3.781
	c3.388-2.51,7.688-3.518,11.814-3.986c12.322-1.397,25.067-1.046,37.621-0.755c-2.924-4.452-0.859-13.211,0.513-18.159
	c0.875-3.156,1.871-6.282,2.956-9.38c-0.339-0.036-0.597-0.163-0.647-0.417c-0.759-3.799,0.081-8.36,0.284-12.173
	c0.427-8.01,0.908-16.017,1.284-24.029c0.734-15.619,2.505-32.542-0.588-48.01c-0.198-0.987,2.712-1.703,2.897-0.776
	c3.038,15.194,1.357,31.863,0.635,47.217c-0.081,1.713-0.177,3.425-0.265,5.138c0.004,0.001,0.01,0,0.014,0.002
	c3.593,0.95,8.222-0.071,12.232-1.096c0.627-0.797,1.299-1.548,2.02-2.244l0.075-0.12c0.034-5.874,0.261-11.741,0.414-17.61
	c-0.13-8.862-0.322-19.635-0.575-28.033C226.346,312.568,224.435,304.174,218.791,299.963z"></path>
<path id="color_x5F_1" d="M235.052,260.041c2.214,3.22,4.895,7.984,3.51,12.064c-1.071,3.158-3.737,4.591-6.78,5.481
	c-1.695,0.496-1.956-0.532-0.274-1.023c7.675-2.246,3.652-11.375,0.647-15.746C231.866,260.397,234.524,259.272,235.052,260.041z
	 M217.407,279.423c0.291,0.031,0.023-0.062-0.065-0.13c-0.174-0.135-0.322-0.319-0.457-0.492c-0.339-0.435-0.624-0.915-0.912-1.383
	c-0.483-0.787-0.931-1.629-1.568-2.305c-0.508-0.538-3.18,0.511-2.73,0.987c0.765,0.81,1.261,1.895,1.86,2.826
	c0.502,0.781,1.009,1.576,1.994,1.681c0.658,0.07,1.498-0.202,2.049-0.549C218.073,279.746,217.933,279.479,217.407,279.423z
	 M217.444,252.97c0-1.632,0-3.265,0-4.896c0-1.507-2.934-1.054-2.934,0.229c0,1.632,0,3.265,0,4.896
	C214.511,254.706,217.444,254.252,217.444,252.97z M236.542,249.282c0,1.632,0,3.264,0,4.896c0,1.507,2.934,1.054,2.934-0.229
	c0-1.632,0-3.264,0-4.896C239.476,247.546,236.542,248,236.542,249.282z M352.646,187.354c-2.249,2.221-5.97,2.207-8.9,1.849
	c-10.329-1.264-20.112-5.376-29.893-8.786c-17.942,4.878-35.934,10.025-52.453,18.734c-2.186,1.152-4.355,2.334-6.51,3.54
	c4.409-0.706,9.174-0.597,12.618,1.255c6.813,3.667,0.355,11.43-4.257,14.566c5.265,2.214,13.693,7.599,4.415,11.15
	c-3.915,1.498-8.042,2.395-12.213,2.704c-1.454,0.234-2.705,0.359-3.58,0.359c-0.13,0-0.273-0.007-0.423-0.018
	c-1.866,17.691,2.671,38.661-6.98,54.376c-3.996,6.506-9.986,11.177-17.793,11.052c-2.053-0.033-4.07-0.076-6.08-0.07
	c0.153,0.036,0.296,0.094,0.419,0.186c8.528,6.363,8.963,20.945,9.45,30.52c0.597,11.75-0.111,23.454-0.25,35.193
	c1.472-0.912,3.104-1.621,4.94-2.053c4.458-1.048,8.944-0.852,13.482-0.828c15.212,0.08,30.424,0.161,45.635,0.285
	c10.931,0.089,22.294-0.638,33.183,0.531c0.435,0.047,0.544,0.184,0.468,0.355c3.749,0.482,7.212,1.801,9.524,5.034
	c2.75,3.847-0.578,9.546-1.853,13.276c-4.122,12.055-8.303,24.097-12.114,36.254c-2.149,6.855-3.577,14.601-11.639,16.42
	c-0.486,0.109-0.974,0.192-1.462,0.273c0.307,0.629-0.299,1.65-1.412,1.729c-0.055,0.004-2.397,3.239-3.128,3.781
	c-3.387,2.511-7.688,3.518-11.814,3.986c-16.004,1.814-32.722,0.68-48.807,0.558c-29.844-0.226-59.687-0.964-89.532-0.979
	c-1.962-0.001-1.456-2.212,0.233-2.211c30.392,0.014,60.78,0.79,91.171,0.99c8.554,0.056,17.109,0.089,25.664,0.051
	c7.736-0.034,15.979,0.6,23.601-0.94c3.694-0.747,7.363-1.814,9.53-5.101c0.402-0.61,0.814-1.146,1.311-1.555
	c-0.578,0.017-1.157,0.013-1.738-0.016c-0.15,0.043-0.311,0.072-0.489,0.072c-30.593-0.017-61.179-0.912-91.772-0.972
	c-0.122,0.034-0.247,0.061-0.375,0.073c-1.542,0.141-2.819,0.005-3.88-0.343c-6.484-0.032-12.968-0.051-19.452-0.022
	c-7.736,0.034-15.979-0.6-23.601,0.94c-0.717,0.145-1.43,0.31-2.134,0.493c-0.759,0.197-1.502,0.426-2.22,0.701
	c-2.049,0.784-3.883,1.946-5.175,3.908c-0.836,1.268-1.706,2.232-3.316,2.346c-0.008,0-0.014,0-0.022,0
	c-1.944,0.119-1.403-2.094,0.255-2.211c0.055-0.004,2.397-3.239,3.128-3.781c3.388-2.51,7.688-3.518,11.814-3.986
	c12.322-1.397,25.067-1.046,37.621-0.755c-2.924-4.452-0.859-13.211,0.513-18.159c0.875-3.156,1.871-6.282,2.956-9.38
	c-0.339-0.036-0.597-0.163-0.647-0.417c-0.759-3.799,0.081-8.36,0.284-12.173c0.427-8.01,0.908-16.017,1.284-24.029
	c0.734-15.619,2.505-32.542-0.588-48.01c-0.198-0.987,2.712-1.703,2.897-0.776c3.038,15.194,1.357,31.863,0.635,47.217
	c-0.081,1.713-0.177,3.425-0.265,5.138c0.004,0.001,0.01,0,0.014,0.002c3.593,0.95,8.222-0.071,12.232-1.096
	c0.627-0.797,1.299-1.548,2.02-2.244c0.024-0.023,0.05-0.046,0.075-0.07c0-0.017,0-0.034,0-0.05
	c0.034-5.874,0.261-11.741,0.414-17.61c0.14-5.33,0.217-10.662,0.018-16c-0.127-3.399-0.187-7.659-0.593-12.034
	c-0.745-8.008-2.656-16.402-8.299-20.614c-0.771-0.575-0.295-1.305,0.455-1.684c0.19-0.096,0.397-0.166,0.607-0.208
	c-0.3,0.003-0.601,0.008-0.901,0.014c-2.262,0.045-4.525,0.176-6.83,0.497c-0.35,0.049-1.713,0.19-3.488,0.411
	c-0.001,0.003,0,0.005-0.001,0.009c-2.41,10.479-16.196,19.82-26.297,13.388c-4.787-3.048-8.544-7.645-10.929-12.78
	c-0.427-0.919-1.14-2.285-1.533-3.655c-2.504,3.152-4.746,6.493-6.868,10.131c-0.585,1.002-3.529,1.098-2.747-0.242
	c3.779-6.478,7.889-12.044,13.204-17.252c-7.13,2.109-12.356-5.163-16.152-10.975c-3.681-5.634-8.406-12.359-10.847-19.292
	c-0.062-0.177-0.129-0.353-0.188-0.529c-0.78-2.332-1.294-4.685-1.411-7.025c-0.084-1.687,0.147-3.114,0.607-4.337
	c-7.029,4.32-12.691,11.485-17.451,17.953c-0.212,0.288-0.417,0.581-0.627,0.87c-3.596,4.952-6.91,10.079-9.83,15.439
	c-1.241,2.279-2.419,4.596-3.508,6.964c-9.724,21.153-15.093,43.928-16.863,67.097c-1.266,16.577-1.15,33.2-1.307,49.813
	c-0.11,11.72-1.168,24.122,0.435,35.768c0.071,0.518-0.389,0.938-0.962,1.173c-0.808,0.331-1.841,0.289-1.936-0.397
	c-1.718-12.48-0.563-25.761-0.434-38.317c0.188-18.351-0.057-36.751,1.96-55.021c2.537-22.976,8.539-46.258,19.551-66.715
	c4.122-7.657,8.99-14.97,14.516-21.689c5.018-6.101,10.598-12.315,17.809-15.829c0.242-0.118,0.49-0.174,0.728-0.186
	c2.419-2.181,6.192-2.975,10.223-2.893c1.068,0.021,0.988,0.543,0.51,1.011c-0.401,0.392-1.081,0.747-1.609,0.736
	c-7.971-0.161-9.608,4.379-8.51,10.202c3.467-3.583,7.007-7.131,10.625-10.634c3.041-2.943,6.13-5.855,9.273-8.729
	c-9.18-17.902,7.943-34.459,26.66-40.088c2.993-1.132,5.505-1.735,7.146-1.735c0.265,0,0.551,0.01,0.85,0.026
	c6.062-0.757,11.918-0.216,16.728,1.948c28.167-18.139,58.876-32.04,91.325-38.726c0.245-0.05,0.456-0.06,0.646-0.049
	c2.101-0.706,4.221-1.667,6.151-2.315c5.361-1.801,10.738-3.573,16.175-5.132c2.951-0.846,22.796-7.515,24.231-2.856
	c1.085,3.527-1.951,5.919-4.863,6.907c-1.993,0.676-4.12,0.851-6.185,1.19c-4.111,0.675-5.511,3.959-8.073,6.758
	c-6.761,7.387-13.264,9.672-22.92,7.704c-1.61-0.328,0.951-1.657,1.799-1.484c6.303,1.285,10.356,0.93,15.26-3.408
	c3.383-2.993,5.801-7.073,9.497-9.63c1.948-1.348,4.801-1.373,7.049-1.742c2.258-0.372,6.801-1.419,5.72-4.932
	c-0.7-2.275-5.901-0.721-7.427-0.469c-8.913,1.468-17.617,4.343-26.173,7.175c-4.449,1.472-9.503,4.046-14.219,4.575
	c-0.188,0.021-0.341,0.022-0.478,0.015c-50.815,11.504-97.084,40.775-135.762,75.95c0.069,0.128,0.131,0.257,0.203,0.386
	c0.147,0.265-0.804,0.761-1.665,0.948c-3.909,3.588-7.738,7.235-11.487,10.929c-3.113,3.068-6.175,6.164-9.173,9.289
	c-0.095,0.099-0.243,0.184-0.416,0.256c0.049,0.178,0.105,0.357,0.159,0.536c2.229,7.449,7.721,16.052,10.08,19.699
	c1.02,1.577,2.407,3.786,4.018,5.907c2.992-5.481,7.291-10.532,11.808-15.258c0.12-0.125,0.24-0.25,0.359-0.375
	c3.085-3.209,6.253-6.272,9.153-9.219c5.721-5.813,11.549-11.551,17.566-17.073c0.008-0.226,0.274-0.431,0.647-0.591
	c2.878-2.627,5.795-5.208,8.772-7.716c11.1-9.35,23.373-17.995,36.164-25.404c0.079-0.2,0.324-0.408,0.805-0.591
	c0.198-0.075,0.407-0.147,0.613-0.22c5.101-2.91,10.278-5.628,15.494-8.105c15.234-7.235,31.285-12.04,47.486-16.49
	c-0.247-0.439,1.895-1.321,2.553-1.099c0.216,0.073,0.432,0.149,0.648,0.223c0.886-0.241,1.772-0.482,2.659-0.722
	c1.72-0.466,2.056,0.793,0.337,1.259c-0.273,0.074-0.547,0.148-0.821,0.223c8.763,3.11,17.563,6.768,26.768,8.115
	c1.347,0.197,5.841,1.242,6.352-0.698c0.718-2.723-1.792-3.56-3.635-4.864c-1.857-1.314-4.869-3.488-4.496-6.173
	c0.691-4.971,9.108-7.154,12.948-8.448c1.892-0.637,15.459-3.831,11.053-6.864c-0.073-0.05-0.097-0.113-0.081-0.183
	c-3.57,1.559-7.289,2.763-11.003,3.924c-2.505,0.783-5.751,1.275-7.966,2.744c-0.887,0.588-3.416,0.284-1.782-0.8
	c4.13-2.739,10.16-3.453,14.774-5.091c3.819-1.355,14.545-5.004,6.257-8.514c-0.157-0.066-0.241-0.146-0.274-0.233
	c-1.891,2.362-4.22,4.114-7.236,4.857c-4.37,1.078-9.316,0.66-13.214,3.148c-0.867,0.553-3.419,0.299-1.77-0.755
	c4.572-2.92,9.665-2.16,14.627-3.721c4.211-1.325,10.774-10.436,1.857-8.457c-1.73,0.384-2.114-0.938-0.355-1.328
	c1.839-0.408,5.729-1.448,7.27,0.345c1.349,1.569,0.426,3.721-0.649,5.228c0.623-0.369,1.607-0.642,2.059-0.451
	c1.79,0.758,4.941,2.201,3.762,4.66c-0.744,1.552-2.501,2.635-4.167,3.454c0.245-0.009,0.459,0.025,0.604,0.125
	c5.241,3.607-6.893,6.879-8.894,7.534c-4.145,1.357-20.368,5.378-12.953,12.095C348.818,180.796,356.131,183.912,352.646,187.354z
	 M210.153,192.344c1.343,0.268,2.652,0.553,3.818,0.818C212.737,192.792,211.46,192.524,210.153,192.344z M221.567,374.387
	c0.603-1.217,1.261-2.399,1.979-3.527c-3.574,0.816-7.371,1.425-10.747,0.946c-0.299,5.693-0.615,11.386-0.919,17.08
	c-0.142,2.662-0.583,5.668-0.626,8.551C214.289,389.577,217.85,381.897,221.567,374.387z M230.191,366.057
	c0,0.172-0.005,0.344-0.005,0.516c-0.002,0.547-0.483,0.935-1.055,1.106c1.205,0.099,1.363,1.471-0.176,1.848
	c-0.733,0.18-1.499,0.375-2.285,0.573c-1.767,2.638-3.12,5.657-4.501,8.582c-3.036,6.426-5.92,12.937-8.448,19.581
	c-1.598,4.199-10.448,26.505-4.679,32.076c2.674,0.057,5.337,0.105,7.982,0.125c29.845,0.226,59.687,0.969,89.533,0.978
	c0.963,0,1.329,0.533,1.254,1.075c9.619-0.061,10.803-8.993,13.293-16.789c3.129-9.795,6.438-19.531,9.762-29.261
	c1.031-3.018,2.064-6.035,3.094-9.053c0.714-2.09,2.172-4.845,1.506-7.104c-1.422-4.826-6.085-6.549-10.737-6.912
	c-0.292-0.023-0.424-0.088-0.445-0.178c-2.016-0.123-4.063-0.081-6.068-0.115c-15.584-0.261-31.173-0.334-46.76-0.43
	c-7.173-0.044-14.347-0.083-21.521-0.121c-4.476-0.023-10.155-0.715-14.451,0.592C233.39,363.786,231.667,364.8,230.191,366.057z
	 M177.044,283.626c3.983-6.097,5.04-14.019,3.116-21.019c-6.018,6.073-12.18,12.675-15.596,20.094
	C168.359,287.025,173.002,289.813,177.044,283.626z M248.585,232.334c-3.12-0.256-6.212-0.839-9.207-1.76
	c0.131,0.884-0.015,1.644-0.388,2.279c0.032,1.285-0.665,2.372-3.118,2.372c-0.256,0-0.52-0.008-0.782-0.016
	c-1.101,0.251-2.309,0.357-3.507,0.322c-5.34-0.156-13.127-1.317-17.311-5.243c-1.174,0.961-2.357,1.912-3.515,2.894
	c-2.039,1.729-4.048,3.499-6.034,5.296c0.591,8.78-3.345,18.122-8.37,25.118c-0.261,0.362-2.833,1.336-2.876,0.649
	c-0.142-2.254-4.029-11.244-7.524-7.362c-0.063,0.069-0.171,0.136-0.305,0.198c-1.025,1.048-2.083,2.111-3.161,3.19
	c0.078,0.072,0.144,0.155,0.179,0.261c2.572,7.701,1.783,20.643-5.442,26.104c0.593,0.148,0.912,0.516,0.292,1.087
	c-1.67,1.54-3.212,3.114-4.671,4.727c0.06,0.276-0.055,0.607-0.458,0.961c-0.545,0.48,2.306,6.224,2.697,6.9
	c1.776,3.073,3.914,6.166,6.71,8.408c2.695,2.161,5.51,3.499,8.498,3.547c0.484-0.016,0.962-0.044,1.433-0.082
	c1.424-0.175,2.886-0.639,4.396-1.462c4.521-2.466,8.29-6.219,9.531-11.329c-4.069,0.595-8.562,1.478-8.767,2.547
	c-0.251,1.311-3.217,1.673-2.938,0.214c0.372-1.939,3.278-2.635,4.864-3.083c5.009-1.416,10.213-2.28,15.381-2.864
	c4.63-0.523,9.077-0.032,13.696-0.225c5.403-0.225,9.141-3.009,12.349-7.268c6.361-8.442,7.016-19.692,7.363-29.902
	C247.898,250.013,247.542,241.095,248.585,232.334z M608.945,284.535c-8.288-2.425-5.341-11.003-1.707-16.291
	c0.273-0.397-2.367-0.251-2.867,0.477c-3.961,5.762-6.44,14.471,2.21,17.002C607.291,285.93,609.88,284.809,608.945,284.535z
	 M625.789,282.871c-2.292,2.869-5.968,7.072-9.964,7.082c-0.606,0.001-3.301,1.187-1.879,1.184
	c6.128-0.015,11.073-4.235,14.701-8.775C628.835,282.125,626.326,282.199,625.789,282.871z M624.898,261.024
	c0-1.632,0-3.265,0-4.896c0-1.507-2.934-1.054-2.934,0.229c0,1.632,0,3.265,0,4.896C621.964,262.76,624.898,262.306,624.898,261.024
	z M602.866,262.003c0-1.632,0-3.264,0-4.896c0-1.507-2.934-1.054-2.934,0.229c0,1.632,0,3.264,0,4.896
	C599.933,263.739,602.866,263.286,602.866,262.003z M755.951,331.565c-0.626,7.915-4.347,16.007-17.079,21.161
	c-13.907,5.629-21.231,6.433-24.596,6.334c1.111,3.253,2.093,6.547,2.983,9.85c0.418,0.027,0.752,0.189,0.822,0.53
	c2.845,13.857,6.251,28.122,5.711,42.365c-0.395,10.413-3.619,22.593-15.718,24.106c-1.585,0.198-3.163,0.244-4.729,0.158
	c2.144,5.2,5.697,9.701,8.914,14.269c0.307,0.436-0.315,0.897-1.048,1.141c-0.668,0.222-1.427,0.264-1.659-0.066
	c-3.395-4.82-7.193-9.58-9.345-15.125c-0.048-0.125-0.01-0.25,0.079-0.373c0.04-0.055,0.089-0.108,0.149-0.16
	c-0.439-0.069-0.878-0.146-1.315-0.234c-9.408-1.884-18.231-7.989-25.453-13.682c-10.948-8.631-20.719-18.646-29.908-29.105
	c-9.955-8.126-26.594-23.103-11.239-34.22c0.049-0.035,0.12-0.069,0.199-0.103c-3.555-4.581-7.791-11.159-4.33-13.898
	c2.843-2.251,6.982-0.505,9.079,1.809c2.947,3.252,5.069,7.296,6.525,11.425c9.085,0.508,13.996,15.048,14.185,22.708
	c0.013,0.537-1.014,0.922-1.85,1.02c-0.564,0.065-1.042,0.001-1.048-0.243c-0.158-6.398-2.865-14.669-7.481-19.224
	c-3.199-3.156-6.521-3.238-9.098-0.625c0.002,0.003,0.005,0.006,0.008,0.009c0.237,0.287-0.205,0.646-0.801,0.898
	c-0.377,0.498-0.733,1.06-1.066,1.687c-0.962,1.814-2.262,4.21-1.204,6.273c1.7,3.316,3.318-1.032,3.8-2.825
	c0.212-0.787,3.066-1.209,2.868-0.473c-0.671,2.495-2.081,4.898-4.617,5.853c-1.41,0.531-3.643,0.771-4.48-0.864
	c-1.561-3.045-0.163-7.161,2.28-10.126c-0.519-0.62-1.184-1.412-1.914-2.32c-9.055,7.969-2.669,17.715,5.023,25.307
	c2.33,2.299,4.772,4.398,6.946,6.192c0.264,0.028,0.491,0.113,0.634,0.276c0.114,0.13,0.231,0.26,0.346,0.39
	c0.146,0.166,0.293,0.33,0.439,0.495c0.041,0.033,0.083,0.068,0.124,0.101c0.025,0.02,0.033,0.045,0.031,0.074
	c7.555,8.559,15.495,16.857,24.214,24.238c9.04,7.653,21.217,17.631,33.757,17.804c26.044,0.358,13.887-46.613,10.403-62.701
	c-0.182-0.029-0.344-0.088-0.474-0.181c-9.452-0.304-18.166,3.259-27.223,5.404c-0.201,0.048-0.403,0.093-0.605,0.139
	c0.007,0.02,0.014,0.041,0.021,0.061c2.23,6.599,4.521,13.187,7.086,19.658c0.062,0.156-0.006,0.316-0.153,0.466
	c3.322,1.266,6.658,2.493,10.002,3.68c1.084,0.385-1.551,1.573-2.335,1.295c-2.605-0.925-5.203-1.88-7.794-2.851
	c-2.403-0.901-4.797-1.828-7.181-2.781c-10.215-4.085-20.216-8.688-29.698-14.297c-0.091-0.054-0.112-0.125-0.089-0.204
	c0.141-0.478,2.098-1.287,2.795-0.875c9.85,5.827,20.289,10.546,30.937,14.728c-2.343-6.023-4.491-12.132-6.554-18.262
	c-1.481,0.255-1.201-0.636-0.394-1.179c-0.483-1.441-0.967-2.881-1.444-4.322c-2.696-8.138-5.668-16.395-7.287-24.834
	c-0.178-0.926,2.734-1.627,2.897-0.776c1.697,8.847,4.833,17.519,7.689,26.039c0.349,1.041,0.702,2.082,1.052,3.123
	c9.305-2.004,18.089-5.687,27.676-5.814c-1.963-7.333-4.39-14.746-7.649-21.725c-1.682-3.268-3.662-6.921-5.773-10.408
	c-1.571-2.376-3.283-4.657-5.159-6.811c-8.93-10.253-20.444-16.077-33.513-17.237c-1.892-0.039-3.859-0.123-5.546-0.21
	c-0.51,0.006-1.016-0.001-1.529,0.018c-0.384,0.014-0.664-0.046-0.857-0.152c-0.083-0.005-0.174-0.01-0.253-0.015
	c1.146,2.43,2.563,4.68,4.396,6.433c0.274,0.262-0.458,0.723-1.246,0.974c0.085,1.641-1.307,4.035-1.854,4.964
	c-1.666,2.824-3.794,5.646-6.718,7.271c-6.79,3.773-15.42-0.942-17.259-8.271c-0.107-0.428,0.108-0.797,0.463-1.061
	c0.249-2.021,0.103-4.411-0.443-6.769c-11.028,6.401-19.11,15.979-22.749,28.306c-2.299,7.79-2.632,15.905-4.605,23.743
	c-0.102,0.404-0.452,0.713-0.877,0.908c0.035,0.013,0.074,0.022,0.106,0.038c4.092,2.063,9.199,5.063,13.947,5.616
	c0.209-4.344,0.899-8.719,1.903-12.92c0.463-1.94,0.785-4.299,1.791-6.062c0.274-0.479,2.798-1.306,2.791-0.386
	c-0.002,0.34-0.091,0.62-0.185,0.95c-0.053,0.188-0.216,0.354-0.437,0.493c-1.086,2.581-1.449,6.028-1.881,8.573
	c-0.978,5.759-1.547,11.647-0.889,17.479c0.653,5.786,2.276,11.286,3.886,16.859c4.671,16.161,3.426,31.54-0.679,47.773
	c-0.141,0.558-1.242,0.94-2.047,0.946c-0.536,0.003-0.942-0.158-0.843-0.553c1.973-7.803,3.654-15.883,3.952-23.984
	c-2.829,9.498-8.201,18.718-16.731,23.821c-7.842,4.692-17.61,5.461-24.84-0.913c-11.547-10.18-11.873-26.185-15.031-40.125
	c-0.932-4.114-1.921-8.587-4.125-12.244c-1.926-3.194-4.888-5.349-7.401-8.027c-3.053-3.253-4.801-7.043-6.974-10.896
	c-1.757-3.116-3.591-6.208-4.697-9.623c-0.201-0.084-0.368-0.213-0.466-0.405c-4.382-8.519,2.458-20.279,8.687-26.061
	c0.542-0.503,1.116-0.977,1.708-1.414c-0.78,0.342-1.896,0.529-2.137,0.056c-1.864-3.674-12.535-22.578-3.21-22.815
	c2.937-1.045,6.936-0.382,9.855-0.312c3.559,0.087,7.786-0.435,11.271,0.248c3.539,0.692,5.359,7.97,6.347,10.636
	c1.198,3.235,2.368,6.482,3.52,9.734c3.567,10.074,7.151,20.203,9.933,30.527c0.634,2.354,4.609,12.651-1.241,11.822
	c-0.466,0.501-1.338,0.898-2.001,0.711c-0.587-0.166-1.195-0.293-1.811-0.406c0.272,10.383,4.657,20.43,9.134,29.988
	c1.406-5.058,2.166-10.425,3.224-15.505c1.489-7.146,2.875-14.324,4.542-21.431c0,0,0,0,0,0c-0.381-0.196-0.757-0.389-1.125-0.574
	c-0.815-0.411-0.202-1.08,0.637-1.439c-0.408-0.114-0.669-0.396-0.547-0.883c2.293-9.108,2.451-18.563,5.813-27.444
	c4.491-11.864,12.767-20.722,23.757-26.931c0.031-0.018,0.063-0.028,0.094-0.043c-1.473-4.26-4.322-7.976-8.62-8.564
	c-8.386-1.146-15.986,1.895-22.669-4.992c-15.734-16.213-5.413-40.033-7.86-59.887c-12.922-0.936-23.399-3.923-18.824-11.84
	c3.682-6.37,10.971-11.066,17.594-13.893c10.244-4.371,21.87-7.935,32.99-9.069c10.949-1.117,23.269-0.866,33.82,2.529
	c6.055,1.949,11.949,4.404,16.154,8.569c0.486-0.239,0.612-0.382,1.093,1.176c2.056,2.372,3.609,5.245,4.412,8.817
	c1.735,7.723-0.051,16.458,9.124,19.42c7.853,2.536,16.328,2.29,24.428,3.49c6.588,0.976,14.603,2.495,19.039,8.017
	c4.045,5.035,4.791,10.998,1.035,16.349c-2.478,3.53-10.014,8.339-8.008,13.407c3.135,7.922,14.087,10.904,20.826,14.94
	c6.122,3.666,10.738,8.84,11.25,16.268C756.896,323.333,756.81,327.578,755.951,331.565z M634.292,346.832
	c-0.541-0.523-1.126-0.985-1.766-1.329c-1.909-1.026-2.79-0.202-2.335,1.703c1.097,4.599,4.236,8.909,7.264,12.651
	c0.788-0.625,1.62-1.123,2.457-1.438c0.344-0.129,0.683-0.236,1.018-0.329c-1.065-2.925-2.458-5.831-4.26-8.356
	c-0.489-0.685-1.025-1.411-1.617-2.09C634.798,347.362,634.544,347.092,634.292,346.832z M634.566,207.739
	c3.452,0.136,7.318,0.416,11.203,0.878C642.104,208.075,638.339,207.789,634.566,207.739z M555.53,338.255
	c4.8-3.199,10.505-3.701,11.251,4.096c0.044,0.457-0.313,0.834-0.789,1.077c6.417,0.556,5.883,5.206,3.459,10.147
	c7.62,6.701-5.62,14.289-1.388,21.461c2.741-0.288,6.424,0.653,8.784,0.869c1.984,0.182,4.059,0.281,6.118,0.475
	c0.763-0.448,2.009-0.456,2.274,0.269c1.206,0.172,2.395,0.393,3.539,0.716c0.19,0.054,0.327,0.125,0.433,0.207
	c0.019-0.035,0.047-0.072,0.089-0.11c-0.01,0.063-0.022,0.109-0.035,0.147c0.031,0.027,0.049,0.059,0.072,0.089
	c0.536-0.283,1.224-0.501,1.57-0.45c-0.972-0.144-1.418,0.038-1.607,0.214c0.018-0.111,0.029-0.264,0.025-0.471
	c-0.007-0.39-0.022-0.778-0.069-1.166c-0.157-1.298-0.401-2.583-0.695-3.858c-0.798-3.456-1.774-6.87-2.811-10.261
	c-2.527-8.27-5.322-16.458-8.216-24.605c-1.973-5.555-3.847-14.338-7.793-18.712c-1.743-1.932-6.129-1.077-8.558-1.144
	c-2.5-0.068-9.079-1.077-10.702-0.285c-0.122,0.06-0.284,0.104-0.462,0.136c-0.445,0.168-0.899,0.281-1.127,0.252
	c-1.559-0.202,1.504,9.396,1.743,9.996c1.458,3.653,3.135,7.205,4.913,10.712C555.581,338.118,555.568,338.186,555.53,338.255z
	 M624.514,417.242c-0.512-6.314-2.061-12.323-3.84-18.383c-2.01-6.847-3.453-13.551-3.448-20.73c0-0.204,0.009-0.408,0.011-0.612
	c-4.144-0.167-8.56-2.191-12.533-4.208c-1.494,6.545-2.784,13.142-4.155,19.712c-1.251,5.996-2.072,12.396-4.047,18.211
	c-0.08,0.234-0.362,0.431-0.719,0.579c0.93,1.975,1.847,3.931,2.711,5.861c0.518,1.157-2.346,2.007-2.897,0.776
	c-5.601-12.507-13.101-25.8-13.219-39.858c-1.908-0.175-3.84-0.251-5.651-0.417c-2.385-0.218-7.89-1.33-9.487-0.782
	c-1.062,0.364-1.669-0.239-1.619-0.909c-4.793-6.868,6.564-14.126,2.453-20.374c-2.177,3.672-4.923,7.147-6.156,8.852
	c-0.766,1.059-3.499,0.659-2.42-0.833c2.038-2.818,14.847-19.354,4.812-18.613c-13.699,1.012-10.898,16.57-8.76,25.909
	c0.308,1.343-2.594,2.103-2.897,0.776c-1.417-6.191-3.167-13.596-0.96-19.814c1.887-5.318,6.757-8.711,12.299-8.985
	c-0.055-0.077-0.096-0.164-0.106-0.272c-0.246-2.572-1.199-6.77-4.674-5.013c-3.189,1.612-5.82,4.596-7.795,7.515
	c-3.628,5.361-7.263,12.931-4.347,19.341c0.266,0.084,0.475,0.244,0.554,0.505c1.383,4.552,4.079,8.583,6.336,12.737
	c1.782,3.28,3.459,6.119,6.188,8.687c4.556,4.288,7.687,8.26,9.428,14.34c3.607,12.591,3.237,26.937,10.462,38.287
	c5.838,9.17,16.007,14.366,26.035,7.872c9.955-6.448,15.269-17.827,17.267-29.192C623.417,417.751,623.935,417.409,624.514,417.242z
	 M654.562,319.43c-2.983-3.572-4.745-8.503-6.071-12.786c-1.551-5.013-3.333-11.047-2.281-16.343
	c0.809-4.075,3.688-5.683,7.327-7.031c4.031-1.493,6.274-4.438,6.256-8.853c-0.014-3.312-0.863-6.333-3.302-7.911
	c-4.021-1.904-7.98,0.575-10.155,2.991c-0.228,0.744-0.368,1.45-0.404,2.024c-0.031,0.499-1.201,0.945-2.061,0.988
	c-0.248,0.153-0.373,0.085-0.436-0.024c-0.177-0.032-0.328-0.085-0.401-0.188c-3.359-4.685-5.661-10.31-7.569-15.716
	c-1.764-4.996-3.729-10.536-3.596-15.944c-1.796,0.016-3.592,0.042-5.387,0.099c-3.051,0.095-18.195,1.372-31.778,0.717
	c1.117,10.515-0.876,21.154-1.026,31.678c-0.082,5.748-0.034,11.958,2.115,17.393c1.932,4.884,6.096,10.849,11.286,12.645
	c7.427,2.569,16.97-2.239,22.967,4.46c3.597,4.018,5.48,10.453,4.805,15.842c-0.035,0.282-0.201,0.518-0.432,0.706
	c1.629,5.832,9.036,10.876,14.331,6.082c0.958-0.868,7.072-7.617,5.475-9.327c-0.446-0.478-0.143-0.976,0.408-1.296
	c0.025-0.015,0.053-0.028,0.08-0.042C654.665,319.538,654.61,319.488,654.562,319.43z M394.974,221.014
	c-9.275-4.198-18.553-8.395-27.765-12.73c-1.547-0.728-11.077-3.903-11.105-6.096c-0.01-0.782,1.503-1.293,2.352-1.011
	c0.518-0.343,1.244-0.585,1.708-0.469c-0.965-0.241-1.535,0.105-1.683,0.221c0.077-0.074,0.266-0.279,0.581-0.739
	c0.435-0.635,0.857-1.276,1.27-1.925c1.227-1.93,2.419-3.883,3.597-5.844c3.231-5.381,6.395-10.802,9.547-16.229
	c3.168-5.456,6.316-10.923,9.487-16.378c1.333-2.294,2.523-4.95,4.224-7.007c0.171-0.208,0.468-0.356,0.801-0.445
	c-0.069-0.206-0.14-0.412-0.187-0.615c-0.332-1.435,2.568-2.2,2.897-0.776c0.064,0.279,0.16,0.563,0.261,0.847
	c0.375,0.095,0.648,0.325,0.653,0.733c-0.009-0.702,0.402-0.047,1.111,0.329c0.932,0.496,1.874,0.97,2.821,1.435
	c3.056,1.501,6.138,2.95,9.225,4.387c9.24,4.302,18.523,8.512,27.812,12.708c9.138,4.129,18.287,8.237,27.432,12.352
	c4.025,1.812,8.505,3.328,12.301,5.603c1.28,0.767-1.356,2.062-2.277,1.51c-0.022-0.014-0.046-0.025-0.069-0.039
	c-0.026,0.138-0.103,0.296-0.253,0.478c-2.023,2.447-4.036,6.846-5.813,9.916c-3.511,6.065-7.012,12.136-10.549,18.186
	c-3.218,5.506-6.407,11.042-9.828,16.425c-0.984,1.548-2.521,5.076-4.93,4.473c-0.035-0.009-0.059-0.021-0.09-0.031
	c-0.406,0.084-0.802,0.079-1.062-0.076c-4.221-2.529-9.206-4.211-13.682-6.224C414.162,229.665,404.562,225.354,394.974,221.014z
	 M440.328,238.588c-0.361-0.09-0.665-0.096-0.915-0.064c0.059,0.035,0.121,0.066,0.179,0.101
	C439.862,238.557,440.121,238.536,440.328,238.588z M393.427,156.336c0.637,0.969,1.267,1.901,1.752,2.751
	c3.102,5.431,6.232,10.846,9.357,16.264c3,5.201,6.009,10.397,8.971,15.621c1.03,1.815,2.745,3.998,3.438,6.092
	c1.468-0.291,3.107-0.367,3.926-0.494c5.337-0.829,10.69-1.556,16.042-2.284c6.354-0.865,12.71-1.71,19.059-2.607
	c2.551-0.36,5.103-0.717,7.646-1.128c0.817-0.132,1.635-0.262,2.448-0.416c0.246-0.047,0.409-0.09,0.539-0.131
	c-0.117,0.083-0.252,0.204-0.378,0.387c0.253-0.368,1.107-0.555,1.816-0.618c-3.747-1.946-7.898-3.418-11.688-5.123
	c-9.598-4.317-19.198-8.627-28.786-12.967c-9.275-4.199-18.553-8.395-27.765-12.73C399.004,158.576,396.077,157.545,393.427,156.336
	z M372.174,208.032c9.24,4.302,18.523,8.512,27.812,12.708c9.138,4.129,18.287,8.237,27.432,12.352
	c3.793,1.707,7.982,3.161,11.631,5.226c0.054-0.074,0.112-0.155,0.176-0.249c0.435-0.635,0.857-1.276,1.27-1.925
	c1.227-1.931,2.419-3.883,3.597-5.844c3.231-5.381,6.395-10.802,9.547-16.229c3.168-5.456,6.316-10.923,9.487-16.378
	c1.288-2.216,2.451-4.757,4.061-6.782c-1.627,0.455-3.757,0.534-4.73,0.686c-5.337,0.83-10.69,1.556-16.042,2.284
	c-6.354,0.865-12.71,1.71-19.059,2.607c-2.551,0.36-5.103,0.717-7.646,1.128c-0.817,0.132-1.635,0.262-2.448,0.416
	c-0.055,0.01-0.086,0.02-0.135,0.03c-0.227,1.159-2.603,1.655-2.899,0.373c-0.628-2.715-3.12-5.732-4.483-8.118
	c-3.102-5.431-6.231-10.846-9.356-16.264c-3-5.201-6.009-10.397-8.971-15.621c-0.706-1.245-1.74-2.663-2.543-4.106
	c-1.793,2.524-3.559,6.294-5.137,9.021c-3.511,6.065-7.012,12.136-10.549,18.186c-3.218,5.505-6.407,11.042-9.828,16.425
	c-0.735,1.156-1.778,3.413-3.261,4.233c0.01,0.006,0.019,0.012,0.029,0.018c0.931,0.496,1.874,0.97,2.821,1.435
	C366.006,205.146,369.088,206.595,372.174,208.032z M466.604,190.003C467.053,189.864,466.9,189.795,466.604,190.003
	L466.604,190.003z M464.577,214.015c-1.058-0.322-2.174,0.277-2.494,1.334c-0.32,1.057,0.277,2.173,1.334,2.494
	c0.021,0.006,2.129,0.648,5.575,1.897c0.225,0.082,0.455,0.12,0.682,0.12c0.818,0,1.585-0.505,1.88-1.319
	c0.376-1.038-0.16-2.186-1.199-2.562C466.798,214.689,464.666,214.042,464.577,214.015z M519.026,242.53
	c-0.851-0.704-2.112-0.585-2.816,0.266c-0.704,0.851-0.585,2.112,0.266,2.816c2.884,2.386,5.531,4.851,7.867,7.327
	c0.394,0.417,0.923,0.627,1.455,0.627c0.492,0,0.986-0.181,1.372-0.545c0.803-0.758,0.84-2.024,0.082-2.827
	C524.804,247.6,522.036,245.021,519.026,242.53z M549.109,290.688c0.278,0,0.561-0.059,0.831-0.182
	c1.004-0.459,1.446-1.646,0.987-2.651c-1.559-3.407-3.206-6.763-4.897-9.974c-0.515-0.979-1.728-1.353-2.701-0.838
	c-0.978,0.515-1.353,1.724-0.838,2.701c1.656,3.146,3.271,6.435,4.798,9.775C547.625,290.254,548.35,290.688,549.109,290.688z
	 M510.066,235.83c-2.959-2.009-6.141-3.994-9.458-5.9c-0.958-0.55-2.179-0.22-2.73,0.738c-0.55,0.958-0.22,2.18,0.738,2.73
	c3.23,1.855,6.326,3.787,9.203,5.741c0.344,0.233,0.735,0.345,1.122,0.345c0.641,0,1.27-0.307,1.657-0.876
	C511.217,237.694,510.98,236.45,510.066,235.83z M534.37,258.908c-0.648-0.895-1.899-1.094-2.793-0.446
	c-0.895,0.648-1.094,1.899-0.446,2.793c2.03,2.801,4.048,5.84,5.999,9.032c0.377,0.617,1.035,0.958,1.708,0.958
	c0.355,0,0.715-0.095,1.041-0.294c0.942-0.576,1.24-1.807,0.664-2.75C538.537,264.92,536.46,261.794,534.37,258.908z M490.786,224.7
	c-3.257-1.609-6.655-3.17-10.098-4.64c-1.016-0.433-2.191,0.039-2.625,1.054c-0.434,1.016,0.038,2.191,1.054,2.625
	c3.375,1.441,6.706,2.971,9.897,4.547c0.285,0.141,0.587,0.208,0.884,0.208c0.737,0,1.446-0.409,1.794-1.115
	C492.183,226.389,491.776,225.189,490.786,224.7z M553.596,305.057c0.279,0.838,1.06,1.368,1.896,1.368
	c0.21,0,0.423-0.033,0.633-0.104c1.048-0.35,1.614-1.482,1.265-2.53c-0.03-0.088-0.738-2.206-2.119-5.722
	c-0.404-1.028-1.566-1.535-2.593-1.131c-1.028,0.404-1.534,1.564-1.131,2.593C552.886,302.94,553.588,305.037,553.596,305.057z
	 M379.616,350.826c-1.186,4.134,5.267,5.079,7.802,4.832c3.952-0.385,8.534-2.429,9.711-6.533c2.276-7.932,7.288-14.238,13.9-18.573
	c5.661-3.711,13.01-5.593,19.902-5.621c17.484-0.07,33.472,9.913,38.247,27.374c1.969,7.201,19.351,2.524,17.387-4.658
	C473.132,298.521,392.816,304.815,379.616,350.826z M436.48,339.453c-16.788-1.025-28.725,10.655-32.305,26.312
	c-1.006,4.398,4.955,6.232,8.12,6.017c4.344-0.294,8.526-2.811,9.531-7.206c0.885-3.869,2.766-8.143,5.438-10.402
	c0.023-0.02,1.119-0.706,1.421-0.925c0.312-0.123,0.766-0.294,1.042-0.403c0.346-0.064,0.815-0.143,1.072-0.192
	c0.254-0.018,0.509-0.032,0.764-0.039c0.136,0.015,0.364,0.036,0.704,0.063c6.223,0.657,11.384,7.362,12.538,14.823
	c1.297,8.382,18.72,3.956,17.387-4.659C460.214,350.056,449.419,340.243,436.48,339.453z M433.25,368.17
	c-3.728,0-6.75,3.022-6.75,6.75s3.022,6.75,6.75,6.75s6.75-3.022,6.75-6.75S436.978,368.17,433.25,368.17z M431.041,388.371
	c0,19.063,0,38.126,0,57.189c0,1.388,2.918,0.85,2.918-0.287c0-19.063,0-38.126,0-57.189
	C433.959,386.696,431.041,387.234,431.041,388.371z M431.051,255.314c0,17.584,0,35.169,0,52.753c0,0.503,2.897,0.077,2.897-0.776
	c0-17.584,0-35.169,0-52.753C433.949,254.035,431.051,254.461,431.051,255.314z" fill="#819021"></path>
</svg>